%TF.GenerationSoftware,KiCad,Pcbnew,10.0.6*%
%TF.CreationDate,2026-09-06T22:11:13-04:00*%
%TF.ProjectId,ArmPCB_v1,41726d50-4342-45f7-9631-2e6b69636164,rev?*%
%TF.SameCoordinates,Original*%
%TF.FileFunction,Copper,L1,Top*%
%TF.FilePolarity,Positive*%
%FSLAX46Y46*%
G04 Gerber Fmt 4.6, Leading zero omitted, Abs format (unit mm)*
G04 Created by KiCad (PCBNEW 10.0.6) date 2026-09-06 22:11:13*
%MOMM*%
%LPD*%
G01*
G04 APERTURE LIST*
G04 Aperture macros list*
%AMRoundRect*
0 Rectangle with rounded corners*
0 $1 Rounding radius*
0 $2 $3 $4 $5 $6 $7 $8 $9 X,Y pos of 4 corners*
0 Add a 4 corners polygon primitive as box body*
4,1,4,$2,$3,$4,$5,$6,$7,$8,$9,$2,$3,0*
0 Add four circle primitives for the rounded corners*
1,1,$1+$1,$2,$3*
1,1,$1+$1,$4,$5*
1,1,$1+$1,$6,$7*
1,1,$1+$1,$8,$9*
0 Add four rect primitives between the rounded corners*
20,1,$1+$1,$2,$3,$4,$5,0*
20,1,$1+$1,$4,$5,$6,$7,0*
20,1,$1+$1,$6,$7,$8,$9,0*
20,1,$1+$1,$8,$9,$2,$3,0*%
G04 Aperture macros list end*
%TA.AperFunction,ComponentPad*%
%ADD10R,1.700000X1.700000*%
%TD*%
%TA.AperFunction,ComponentPad*%
%ADD11C,1.700000*%
%TD*%
%TA.AperFunction,ComponentPad*%
%ADD12C,1.600000*%
%TD*%
%TA.AperFunction,ComponentPad*%
%ADD13RoundRect,0.250000X-0.750000X-0.750000X0.750000X-0.750000X0.750000X0.750000X-0.750000X0.750000X0*%
%TD*%
%TA.AperFunction,ComponentPad*%
%ADD14C,2.000000*%
%TD*%
%TA.AperFunction,ComponentPad*%
%ADD15RoundRect,0.250000X0.550000X-0.550000X0.550000X0.550000X-0.550000X0.550000X-0.550000X-0.550000X0*%
%TD*%
%TA.AperFunction,ComponentPad*%
%ADD16R,1.600000X1.600000*%
%TD*%
%TA.AperFunction,ComponentPad*%
%ADD17O,1.600000X1.600000*%
%TD*%
%TA.AperFunction,ComponentPad*%
%ADD18RoundRect,0.250000X1.050000X1.050000X-1.050000X1.050000X-1.050000X-1.050000X1.050000X-1.050000X0*%
%TD*%
%TA.AperFunction,ComponentPad*%
%ADD19C,2.600000*%
%TD*%
%TA.AperFunction,Conductor*%
%ADD20C,0.200000*%
%TD*%
G04 APERTURE END LIST*
D10*
%TO.P,J5,1,Pin_1_1*%
%TO.N,GND*%
X108460000Y-123000000D03*
D11*
%TO.P,J5,2,Pin_2_2*%
%TO.N,+5V*%
X111000000Y-123000000D03*
%TO.P,J5,3,Pin_3_3*%
%TO.N,Net-(J5-Pin_3)*%
X113540000Y-123000000D03*
%TO.P,J5,4,Pin_4_4*%
%TO.N,Net-(J5-Pin_4)*%
X116080000Y-123000000D03*
%TO.P,J5,5,Pin_5_5*%
%TO.N,/swtch*%
X118620000Y-123000000D03*
%TD*%
D12*
%TO.P,R3,1*%
%TO.N,Net-(J5-Pin_3)*%
X109170000Y-116620000D03*
%TO.P,R3,2*%
%TO.N,/right_vrx*%
X109170000Y-101380000D03*
%TD*%
D13*
%TO.P,C3,1*%
%TO.N,+5V*%
X150250000Y-85250000D03*
D14*
%TO.P,C3,2*%
%TO.N,GND*%
X155250000Y-85250000D03*
%TD*%
D10*
%TO.P,J1,1,Pin_1_1*%
%TO.N,GND*%
X155290000Y-95000000D03*
D11*
%TO.P,J1,2,Pin_2_2*%
%TO.N,+5V*%
X152750000Y-95000000D03*
%TO.P,J1,3,Pin_3_3*%
%TO.N,/servo_1*%
X150210000Y-95000000D03*
%TD*%
D10*
%TO.P,J6,1,Pin_1_1*%
%TO.N,GND*%
X155290000Y-116000000D03*
D11*
%TO.P,J6,2,Pin_2_2*%
%TO.N,+5V*%
X152750000Y-116000000D03*
%TO.P,J6,3,Pin_3_3*%
%TO.N,/servo_4*%
X150210000Y-116000000D03*
%TD*%
D15*
%TO.P,C5,1*%
%TO.N,/right_vry*%
X117170000Y-95500000D03*
D12*
%TO.P,C5,2*%
%TO.N,GND*%
X117170000Y-93000000D03*
%TD*%
D15*
%TO.P,C1,1*%
%TO.N,/Left_vrx*%
X94170000Y-95500000D03*
D12*
%TO.P,C1,2*%
%TO.N,GND*%
X94170000Y-93000000D03*
%TD*%
D15*
%TO.P,C2,1*%
%TO.N,/Left_vry*%
X102000000Y-95500000D03*
D12*
%TO.P,C2,2*%
%TO.N,GND*%
X102000000Y-93000000D03*
%TD*%
D15*
%TO.P,C4,1*%
%TO.N,/right_vrx*%
X109170000Y-95500000D03*
D12*
%TO.P,C4,2*%
%TO.N,GND*%
X109170000Y-93000000D03*
%TD*%
%TO.P,R1,1*%
%TO.N,Net-(J3-Pin_3)*%
X94170000Y-116620000D03*
%TO.P,R1,2*%
%TO.N,/Left_vrx*%
X94170000Y-101380000D03*
%TD*%
D10*
%TO.P,J2,1,Pin_1_1*%
%TO.N,GND*%
X155290000Y-102000000D03*
D11*
%TO.P,J2,2,Pin_2_2*%
%TO.N,+5V*%
X152750000Y-102000000D03*
%TO.P,J2,3,Pin_3_3*%
%TO.N,/servo_2*%
X150210000Y-102000000D03*
%TD*%
D12*
%TO.P,R4,1*%
%TO.N,Net-(J5-Pin_4)*%
X117170000Y-116620000D03*
%TO.P,R4,2*%
%TO.N,/right_vry*%
X117170000Y-101380000D03*
%TD*%
D10*
%TO.P,J3,1,Pin_1_1*%
%TO.N,GND*%
X91920000Y-123000000D03*
D11*
%TO.P,J3,2,Pin_2_2*%
%TO.N,+5V*%
X94460000Y-123000000D03*
%TO.P,J3,3,Pin_3_3*%
%TO.N,Net-(J3-Pin_3)*%
X97000000Y-123000000D03*
%TO.P,J3,4,Pin_4_4*%
%TO.N,Net-(J3-Pin_4)*%
X99540000Y-123000000D03*
%TO.P,J3,5,Pin_5_5*%
%TO.N,unconnected-(J3-Pin_5-Pad5)*%
X102080000Y-123000000D03*
%TD*%
D12*
%TO.P,R2,1*%
%TO.N,Net-(J3-Pin_4)*%
X102000000Y-116860000D03*
%TO.P,R2,2*%
%TO.N,/Left_vry*%
X102000000Y-101620000D03*
%TD*%
D16*
%TO.P,A1,1,D1/TX_1*%
%TO.N,unconnected-(A1-D1{slash}TX-Pad1)*%
X127760000Y-82810000D03*
D17*
%TO.P,A1,2,D0/RX_2*%
%TO.N,unconnected-(A1-D0{slash}RX-Pad2)*%
X127760000Y-85350000D03*
%TO.P,A1,3,~{RESET}_3*%
%TO.N,unconnected-(A1-~{RESET}-Pad3)*%
X127760000Y-87890000D03*
%TO.P,A1,4,GND_4*%
%TO.N,GND*%
X127760000Y-90430000D03*
%TO.P,A1,5,D2_5*%
%TO.N,unconnected-(A1-D2-Pad5)*%
X127760000Y-92970000D03*
%TO.P,A1,6,D3_6*%
%TO.N,/servo_1*%
X127760000Y-95510000D03*
%TO.P,A1,7,D4_7*%
%TO.N,unconnected-(A1-D4-Pad7)*%
X127760000Y-98050000D03*
%TO.P,A1,8,D5_8*%
%TO.N,/servo_2*%
X127760000Y-100590000D03*
%TO.P,A1,9,D6_9*%
%TO.N,/servo_3*%
X127760000Y-103130000D03*
%TO.P,A1,10,D7_10*%
%TO.N,unconnected-(A1-D7-Pad10)*%
X127760000Y-105670000D03*
%TO.P,A1,11,D8_11*%
%TO.N,unconnected-(A1-D8-Pad11)*%
X127760000Y-108210000D03*
%TO.P,A1,12,D9_12*%
%TO.N,/servo_4*%
X127760000Y-110750000D03*
%TO.P,A1,13,D10_13*%
%TO.N,/servo_5*%
X127760000Y-113290000D03*
%TO.P,A1,14,D11_14*%
%TO.N,unconnected-(A1-D11-Pad14)*%
X127760000Y-115830000D03*
%TO.P,A1,15,D12_15*%
%TO.N,unconnected-(A1-D12-Pad15)*%
X127760000Y-118370000D03*
%TO.P,A1,16,D13_16*%
%TO.N,unconnected-(A1-D13-Pad16)*%
X143000000Y-118370000D03*
%TO.P,A1,17,3V3_17*%
%TO.N,unconnected-(A1-3V3-Pad17)*%
X143000000Y-115830000D03*
%TO.P,A1,18,AREF_18*%
%TO.N,unconnected-(A1-AREF-Pad18)*%
X143000000Y-113290000D03*
%TO.P,A1,19,A0_19*%
%TO.N,/Left_vrx*%
X143000000Y-110750000D03*
%TO.P,A1,20,A1_20*%
%TO.N,/Left_vry*%
X143000000Y-108210000D03*
%TO.P,A1,21,A2_21*%
%TO.N,/right_vrx*%
X143000000Y-105670000D03*
%TO.P,A1,22,A3_22*%
%TO.N,/right_vry*%
X143000000Y-103130000D03*
%TO.P,A1,23,A4_23*%
%TO.N,/swtch*%
X143000000Y-100590000D03*
%TO.P,A1,24,A5_24*%
%TO.N,unconnected-(A1-A5-Pad24)*%
X143000000Y-98050000D03*
%TO.P,A1,25,A6_25*%
%TO.N,unconnected-(A1-A6-Pad25)*%
X143000000Y-95510000D03*
%TO.P,A1,26,A7_26*%
%TO.N,unconnected-(A1-A7-Pad26)*%
X143000000Y-92970000D03*
%TO.P,A1,27,+5V_27*%
%TO.N,+5V*%
X143000000Y-90430000D03*
%TO.P,A1,28,~{RESET}_28*%
%TO.N,unconnected-(A1-~{RESET}-Pad28)*%
X143000000Y-87890000D03*
%TO.P,A1,29,GND_29*%
%TO.N,GND*%
X143000000Y-85350000D03*
%TO.P,A1,30,VIN_30*%
%TO.N,unconnected-(A1-VIN-Pad30)*%
X143000000Y-82810000D03*
%TD*%
D10*
%TO.P,J7,1,Pin_1_1*%
%TO.N,GND*%
X155290000Y-123000000D03*
D11*
%TO.P,J7,2,Pin_2_2*%
%TO.N,+5V*%
X152750000Y-123000000D03*
%TO.P,J7,3,Pin_3_3*%
%TO.N,/servo_5*%
X150210000Y-123000000D03*
%TD*%
D18*
%TO.P,J8,1,Pin_1_1*%
%TO.N,GND*%
X117545000Y-83827500D03*
D19*
%TO.P,J8,2,Pin_2_2*%
%TO.N,+5V*%
X112465000Y-83827500D03*
%TD*%
D10*
%TO.P,J4,1,Pin_1_1*%
%TO.N,GND*%
X155290000Y-109000000D03*
D11*
%TO.P,J4,2,Pin_2_2*%
%TO.N,+5V*%
X152750000Y-109000000D03*
%TO.P,J4,3,Pin_3_3*%
%TO.N,/servo_3*%
X150210000Y-109000000D03*
%TD*%
%TO.N,Net-(J5-Pin_3)*%
D20*
X113540000Y-123000000D02*
X109170000Y-118630000D01*
X109170000Y-118630000D02*
X109170000Y-116620000D01*
%TO.N,Net-(J5-Pin_4)*%
X117170000Y-121910000D02*
X117170000Y-116620000D01*
X116080000Y-123000000D02*
X117170000Y-121910000D01*
%TO.N,/swtch*%
X124530000Y-117090000D02*
X129090000Y-117090000D01*
X133490000Y-110100000D02*
X143000000Y-100590000D01*
X118620000Y-123000000D02*
X124530000Y-117090000D01*
X129090000Y-117090000D02*
X133490000Y-112690000D01*
X133490000Y-112690000D02*
X133490000Y-110100000D01*
%TO.N,/right_vrx*%
X109170000Y-101380000D02*
X109170000Y-95500000D01*
%TO.N,/right_vry*%
X117170000Y-101380000D02*
X117170000Y-95500000D01*
%TO.N,/Left_vrx*%
X94170000Y-101380000D02*
X94170000Y-95500000D01*
%TO.N,/Left_vry*%
X102000000Y-101620000D02*
X102000000Y-95500000D01*
%TO.N,Net-(J3-Pin_3)*%
X94170000Y-120170000D02*
X94170000Y-116620000D01*
X97000000Y-123000000D02*
X94170000Y-120170000D01*
%TO.N,Net-(J3-Pin_4)*%
X99540000Y-123000000D02*
X102000000Y-120540000D01*
X102000000Y-120540000D02*
X102000000Y-116860000D01*
%TD*%
%TA.AperFunction,Conductor*%
%TO.N,+5V*%
G36*
X158192539Y-77520185D02*
G01*
X158238294Y-77572989D01*
X158249500Y-77624500D01*
X158249500Y-125375500D01*
X158229815Y-125442539D01*
X158177011Y-125488294D01*
X158125500Y-125499500D01*
X89624500Y-125499500D01*
X89557461Y-125479815D01*
X89511706Y-125427011D01*
X89500500Y-125375500D01*
X89500500Y-122102135D01*
X90569500Y-122102135D01*
X90569500Y-123897870D01*
X90569501Y-123897876D01*
X90575908Y-123957483D01*
X90626202Y-124092328D01*
X90626206Y-124092335D01*
X90712452Y-124207544D01*
X90712455Y-124207547D01*
X90827664Y-124293793D01*
X90827671Y-124293797D01*
X90962517Y-124344091D01*
X90962516Y-124344091D01*
X90969444Y-124344835D01*
X91022127Y-124350500D01*
X92817872Y-124350499D01*
X92877483Y-124344091D01*
X93012331Y-124293796D01*
X93127546Y-124207546D01*
X93213796Y-124092331D01*
X93264091Y-123957483D01*
X93270500Y-123897873D01*
X93270499Y-122102128D01*
X93264091Y-122042517D01*
X93228796Y-121947887D01*
X93213797Y-121907671D01*
X93213793Y-121907664D01*
X93127547Y-121792455D01*
X93127544Y-121792452D01*
X93012335Y-121706206D01*
X93012328Y-121706202D01*
X92877482Y-121655908D01*
X92877483Y-121655908D01*
X92817883Y-121649501D01*
X92817881Y-121649500D01*
X92817873Y-121649500D01*
X92817864Y-121649500D01*
X91022129Y-121649500D01*
X91022123Y-121649501D01*
X90962516Y-121655908D01*
X90827671Y-121706202D01*
X90827664Y-121706206D01*
X90712455Y-121792452D01*
X90712452Y-121792455D01*
X90626206Y-121907664D01*
X90626202Y-121907671D01*
X90575908Y-122042517D01*
X90569501Y-122102116D01*
X90569501Y-122102123D01*
X90569500Y-122102135D01*
X89500500Y-122102135D01*
X89500500Y-116517648D01*
X92869500Y-116517648D01*
X92869500Y-116722351D01*
X92901522Y-116924534D01*
X92964781Y-117119223D01*
X93057715Y-117301613D01*
X93178028Y-117467213D01*
X93178034Y-117467219D01*
X93322781Y-117611966D01*
X93488390Y-117732287D01*
X93501793Y-117739116D01*
X93552589Y-117787088D01*
X93569500Y-117849601D01*
X93569500Y-120083330D01*
X93569499Y-120083348D01*
X93569499Y-120249054D01*
X93569498Y-120249054D01*
X93610423Y-120401785D01*
X93639358Y-120451900D01*
X93639359Y-120451904D01*
X93639360Y-120451904D01*
X93689479Y-120538714D01*
X93689481Y-120538717D01*
X93808349Y-120657585D01*
X93808355Y-120657590D01*
X95666241Y-122515476D01*
X95699726Y-122576799D01*
X95696492Y-122641473D01*
X95682753Y-122683757D01*
X95649500Y-122893713D01*
X95649500Y-123106286D01*
X95682753Y-123316239D01*
X95748444Y-123518414D01*
X95844951Y-123707820D01*
X95969890Y-123879786D01*
X96120213Y-124030109D01*
X96292179Y-124155048D01*
X96292181Y-124155049D01*
X96292184Y-124155051D01*
X96481588Y-124251557D01*
X96683757Y-124317246D01*
X96893713Y-124350500D01*
X96893714Y-124350500D01*
X97106286Y-124350500D01*
X97106287Y-124350500D01*
X97316243Y-124317246D01*
X97518412Y-124251557D01*
X97707816Y-124155051D01*
X97794138Y-124092335D01*
X97879786Y-124030109D01*
X97879788Y-124030106D01*
X97879792Y-124030104D01*
X98030104Y-123879792D01*
X98030106Y-123879788D01*
X98030109Y-123879786D01*
X98155048Y-123707820D01*
X98155047Y-123707820D01*
X98155051Y-123707816D01*
X98159514Y-123699054D01*
X98207488Y-123648259D01*
X98275308Y-123631463D01*
X98341444Y-123653999D01*
X98380486Y-123699056D01*
X98384951Y-123707820D01*
X98509890Y-123879786D01*
X98660213Y-124030109D01*
X98832179Y-124155048D01*
X98832181Y-124155049D01*
X98832184Y-124155051D01*
X99021588Y-124251557D01*
X99223757Y-124317246D01*
X99433713Y-124350500D01*
X99433714Y-124350500D01*
X99646286Y-124350500D01*
X99646287Y-124350500D01*
X99856243Y-124317246D01*
X100058412Y-124251557D01*
X100247816Y-124155051D01*
X100334138Y-124092335D01*
X100419786Y-124030109D01*
X100419788Y-124030106D01*
X100419792Y-124030104D01*
X100570104Y-123879792D01*
X100570106Y-123879788D01*
X100570109Y-123879786D01*
X100695048Y-123707820D01*
X100695047Y-123707820D01*
X100695051Y-123707816D01*
X100699514Y-123699054D01*
X100747488Y-123648259D01*
X100815308Y-123631463D01*
X100881444Y-123653999D01*
X100920486Y-123699056D01*
X100924951Y-123707820D01*
X101049890Y-123879786D01*
X101200213Y-124030109D01*
X101372179Y-124155048D01*
X101372181Y-124155049D01*
X101372184Y-124155051D01*
X101561588Y-124251557D01*
X101763757Y-124317246D01*
X101973713Y-124350500D01*
X101973714Y-124350500D01*
X102186286Y-124350500D01*
X102186287Y-124350500D01*
X102396243Y-124317246D01*
X102598412Y-124251557D01*
X102787816Y-124155051D01*
X102874138Y-124092335D01*
X102959786Y-124030109D01*
X102959788Y-124030106D01*
X102959792Y-124030104D01*
X103110104Y-123879792D01*
X103110106Y-123879788D01*
X103110109Y-123879786D01*
X103235048Y-123707820D01*
X103235047Y-123707820D01*
X103235051Y-123707816D01*
X103331557Y-123518412D01*
X103397246Y-123316243D01*
X103430500Y-123106287D01*
X103430500Y-122893713D01*
X103397246Y-122683757D01*
X103331557Y-122481588D01*
X103235051Y-122292184D01*
X103110104Y-122120208D01*
X103092031Y-122102135D01*
X107109500Y-122102135D01*
X107109500Y-123897870D01*
X107109501Y-123897876D01*
X107115908Y-123957483D01*
X107166202Y-124092328D01*
X107166206Y-124092335D01*
X107252452Y-124207544D01*
X107252455Y-124207547D01*
X107367664Y-124293793D01*
X107367671Y-124293797D01*
X107502517Y-124344091D01*
X107502516Y-124344091D01*
X107509444Y-124344835D01*
X107562127Y-124350500D01*
X109357872Y-124350499D01*
X109417483Y-124344091D01*
X109552331Y-124293796D01*
X109667546Y-124207546D01*
X109753796Y-124092331D01*
X109804091Y-123957483D01*
X109810500Y-123897873D01*
X109810499Y-122102128D01*
X109804091Y-122042517D01*
X109768796Y-121947887D01*
X109753797Y-121907671D01*
X109753793Y-121907664D01*
X109667547Y-121792455D01*
X109667544Y-121792452D01*
X109552335Y-121706206D01*
X109552328Y-121706202D01*
X109417482Y-121655908D01*
X109417483Y-121655908D01*
X109357883Y-121649501D01*
X109357881Y-121649500D01*
X109357873Y-121649500D01*
X109357864Y-121649500D01*
X107562129Y-121649500D01*
X107562123Y-121649501D01*
X107502516Y-121655908D01*
X107367671Y-121706202D01*
X107367664Y-121706206D01*
X107252455Y-121792452D01*
X107252452Y-121792455D01*
X107166206Y-121907664D01*
X107166202Y-121907671D01*
X107115908Y-122042517D01*
X107109501Y-122102116D01*
X107109501Y-122102123D01*
X107109500Y-122102135D01*
X103092031Y-122102135D01*
X102959792Y-121969896D01*
X102959786Y-121969890D01*
X102787820Y-121844951D01*
X102598414Y-121748444D01*
X102598413Y-121748443D01*
X102598412Y-121748443D01*
X102396243Y-121682754D01*
X102396241Y-121682753D01*
X102396240Y-121682753D01*
X102234957Y-121657208D01*
X102186287Y-121649500D01*
X102039096Y-121649500D01*
X101972057Y-121629815D01*
X101926302Y-121577011D01*
X101916358Y-121507853D01*
X101945383Y-121444297D01*
X101951415Y-121437819D01*
X102358506Y-121030728D01*
X102358511Y-121030724D01*
X102368714Y-121020520D01*
X102368716Y-121020520D01*
X102480520Y-120908716D01*
X102559577Y-120771784D01*
X102600500Y-120619057D01*
X102600500Y-118089601D01*
X102620185Y-118022562D01*
X102668206Y-117979116D01*
X102681610Y-117972287D01*
X102847219Y-117851966D01*
X102991966Y-117707219D01*
X102991968Y-117707215D01*
X102991971Y-117707213D01*
X103054867Y-117620642D01*
X103112287Y-117541610D01*
X103205220Y-117359219D01*
X103268477Y-117164534D01*
X103300500Y-116962352D01*
X103300500Y-116757648D01*
X103268477Y-116555466D01*
X103256437Y-116518412D01*
X103256189Y-116517648D01*
X107869500Y-116517648D01*
X107869500Y-116722351D01*
X107901522Y-116924534D01*
X107964781Y-117119223D01*
X108057715Y-117301613D01*
X108178028Y-117467213D01*
X108178034Y-117467219D01*
X108322781Y-117611966D01*
X108488390Y-117732287D01*
X108501793Y-117739116D01*
X108552589Y-117787088D01*
X108569500Y-117849601D01*
X108569500Y-118543330D01*
X108569499Y-118543348D01*
X108569499Y-118709054D01*
X108569498Y-118709054D01*
X108610423Y-118861785D01*
X108639358Y-118911900D01*
X108639359Y-118911904D01*
X108639360Y-118911904D01*
X108689479Y-118998714D01*
X108689481Y-118998717D01*
X108808349Y-119117585D01*
X108808355Y-119117590D01*
X112206241Y-122515476D01*
X112239726Y-122576799D01*
X112236492Y-122641473D01*
X112222753Y-122683757D01*
X112189500Y-122893713D01*
X112189500Y-123106286D01*
X112222753Y-123316239D01*
X112288444Y-123518414D01*
X112384951Y-123707820D01*
X112509890Y-123879786D01*
X112660213Y-124030109D01*
X112832179Y-124155048D01*
X112832181Y-124155049D01*
X112832184Y-124155051D01*
X113021588Y-124251557D01*
X113223757Y-124317246D01*
X113433713Y-124350500D01*
X113433714Y-124350500D01*
X113646286Y-124350500D01*
X113646287Y-124350500D01*
X113856243Y-124317246D01*
X114058412Y-124251557D01*
X114247816Y-124155051D01*
X114334138Y-124092335D01*
X114419786Y-124030109D01*
X114419788Y-124030106D01*
X114419792Y-124030104D01*
X114570104Y-123879792D01*
X114570106Y-123879788D01*
X114570109Y-123879786D01*
X114695048Y-123707820D01*
X114695047Y-123707820D01*
X114695051Y-123707816D01*
X114699514Y-123699054D01*
X114747488Y-123648259D01*
X114815308Y-123631463D01*
X114881444Y-123653999D01*
X114920486Y-123699056D01*
X114924951Y-123707820D01*
X115049890Y-123879786D01*
X115200213Y-124030109D01*
X115372179Y-124155048D01*
X115372181Y-124155049D01*
X115372184Y-124155051D01*
X115561588Y-124251557D01*
X115763757Y-124317246D01*
X115973713Y-124350500D01*
X115973714Y-124350500D01*
X116186286Y-124350500D01*
X116186287Y-124350500D01*
X116396243Y-124317246D01*
X116598412Y-124251557D01*
X116787816Y-124155051D01*
X116874138Y-124092335D01*
X116959786Y-124030109D01*
X116959788Y-124030106D01*
X116959792Y-124030104D01*
X117110104Y-123879792D01*
X117110106Y-123879788D01*
X117110109Y-123879786D01*
X117235048Y-123707820D01*
X117235047Y-123707820D01*
X117235051Y-123707816D01*
X117239514Y-123699054D01*
X117287488Y-123648259D01*
X117355308Y-123631463D01*
X117421444Y-123653999D01*
X117460486Y-123699056D01*
X117464951Y-123707820D01*
X117589890Y-123879786D01*
X117740213Y-124030109D01*
X117912179Y-124155048D01*
X117912181Y-124155049D01*
X117912184Y-124155051D01*
X118101588Y-124251557D01*
X118303757Y-124317246D01*
X118513713Y-124350500D01*
X118513714Y-124350500D01*
X118726286Y-124350500D01*
X118726287Y-124350500D01*
X118936243Y-124317246D01*
X119138412Y-124251557D01*
X119327816Y-124155051D01*
X119414138Y-124092335D01*
X119499786Y-124030109D01*
X119499788Y-124030106D01*
X119499792Y-124030104D01*
X119650104Y-123879792D01*
X119650106Y-123879788D01*
X119650109Y-123879786D01*
X119775048Y-123707820D01*
X119775047Y-123707820D01*
X119775051Y-123707816D01*
X119871557Y-123518412D01*
X119937246Y-123316243D01*
X119970500Y-123106287D01*
X119970500Y-122893713D01*
X148859500Y-122893713D01*
X148859500Y-123106286D01*
X148892753Y-123316239D01*
X148958444Y-123518414D01*
X149054951Y-123707820D01*
X149179890Y-123879786D01*
X149330213Y-124030109D01*
X149502179Y-124155048D01*
X149502181Y-124155049D01*
X149502184Y-124155051D01*
X149691588Y-124251557D01*
X149893757Y-124317246D01*
X150103713Y-124350500D01*
X150103714Y-124350500D01*
X150316286Y-124350500D01*
X150316287Y-124350500D01*
X150526243Y-124317246D01*
X150728412Y-124251557D01*
X150917816Y-124155051D01*
X151004138Y-124092335D01*
X151089786Y-124030109D01*
X151089788Y-124030106D01*
X151089792Y-124030104D01*
X151240104Y-123879792D01*
X151240106Y-123879788D01*
X151240109Y-123879786D01*
X151365048Y-123707820D01*
X151365047Y-123707820D01*
X151365051Y-123707816D01*
X151461557Y-123518412D01*
X151527246Y-123316243D01*
X151560500Y-123106287D01*
X151560500Y-122893713D01*
X151527246Y-122683757D01*
X151461557Y-122481588D01*
X151365051Y-122292184D01*
X151240104Y-122120208D01*
X151222031Y-122102135D01*
X153939500Y-122102135D01*
X153939500Y-123897870D01*
X153939501Y-123897876D01*
X153945908Y-123957483D01*
X153996202Y-124092328D01*
X153996206Y-124092335D01*
X154082452Y-124207544D01*
X154082455Y-124207547D01*
X154197664Y-124293793D01*
X154197671Y-124293797D01*
X154332517Y-124344091D01*
X154332516Y-124344091D01*
X154339444Y-124344835D01*
X154392127Y-124350500D01*
X156187872Y-124350499D01*
X156247483Y-124344091D01*
X156382331Y-124293796D01*
X156497546Y-124207546D01*
X156583796Y-124092331D01*
X156634091Y-123957483D01*
X156640500Y-123897873D01*
X156640499Y-122102128D01*
X156634091Y-122042517D01*
X156598796Y-121947887D01*
X156583797Y-121907671D01*
X156583793Y-121907664D01*
X156497547Y-121792455D01*
X156497544Y-121792452D01*
X156382335Y-121706206D01*
X156382328Y-121706202D01*
X156247482Y-121655908D01*
X156247483Y-121655908D01*
X156187883Y-121649501D01*
X156187881Y-121649500D01*
X156187873Y-121649500D01*
X156187864Y-121649500D01*
X154392129Y-121649500D01*
X154392123Y-121649501D01*
X154332516Y-121655908D01*
X154197671Y-121706202D01*
X154197664Y-121706206D01*
X154082455Y-121792452D01*
X154082452Y-121792455D01*
X153996206Y-121907664D01*
X153996202Y-121907671D01*
X153945908Y-122042517D01*
X153939501Y-122102116D01*
X153939501Y-122102123D01*
X153939500Y-122102135D01*
X151222031Y-122102135D01*
X151089792Y-121969896D01*
X151089786Y-121969890D01*
X150917820Y-121844951D01*
X150728414Y-121748444D01*
X150728413Y-121748443D01*
X150728412Y-121748443D01*
X150526243Y-121682754D01*
X150526241Y-121682753D01*
X150526240Y-121682753D01*
X150364957Y-121657208D01*
X150316287Y-121649500D01*
X150103713Y-121649500D01*
X150055042Y-121657208D01*
X149893760Y-121682753D01*
X149691585Y-121748444D01*
X149502179Y-121844951D01*
X149330213Y-121969890D01*
X149179890Y-122120213D01*
X149054951Y-122292179D01*
X148958444Y-122481585D01*
X148892753Y-122683760D01*
X148859500Y-122893713D01*
X119970500Y-122893713D01*
X119937246Y-122683757D01*
X119923506Y-122641473D01*
X119921512Y-122571635D01*
X119953755Y-122515478D01*
X124742416Y-117726819D01*
X124803739Y-117693334D01*
X124830097Y-117690500D01*
X126444288Y-117690500D01*
X126511327Y-117710185D01*
X126557082Y-117762989D01*
X126567026Y-117832147D01*
X126556257Y-117866110D01*
X126556647Y-117866272D01*
X126554784Y-117870770D01*
X126491522Y-118065465D01*
X126459500Y-118267648D01*
X126459500Y-118472351D01*
X126491522Y-118674534D01*
X126554781Y-118869223D01*
X126647715Y-119051613D01*
X126768028Y-119217213D01*
X126912786Y-119361971D01*
X127067749Y-119474556D01*
X127078390Y-119482287D01*
X127194607Y-119541503D01*
X127260776Y-119575218D01*
X127260778Y-119575218D01*
X127260781Y-119575220D01*
X127365137Y-119609127D01*
X127455465Y-119638477D01*
X127556557Y-119654488D01*
X127657648Y-119670500D01*
X127657649Y-119670500D01*
X127862351Y-119670500D01*
X127862352Y-119670500D01*
X128064534Y-119638477D01*
X128259219Y-119575220D01*
X128441610Y-119482287D01*
X128534590Y-119414732D01*
X128607213Y-119361971D01*
X128607215Y-119361968D01*
X128607219Y-119361966D01*
X128751966Y-119217219D01*
X128751968Y-119217215D01*
X128751971Y-119217213D01*
X128829486Y-119110521D01*
X128872287Y-119051610D01*
X128965220Y-118869219D01*
X129028477Y-118674534D01*
X129060500Y-118472352D01*
X129060500Y-118267648D01*
X129028477Y-118065466D01*
X128965220Y-117870781D01*
X128965216Y-117870773D01*
X128965215Y-117870770D01*
X128963353Y-117866272D01*
X128964303Y-117865878D01*
X128952332Y-117802122D01*
X128978611Y-117737383D01*
X129035719Y-117697128D01*
X129075713Y-117690501D01*
X129169054Y-117690501D01*
X129169057Y-117690501D01*
X129321785Y-117649577D01*
X129371904Y-117620639D01*
X129458716Y-117570520D01*
X129570520Y-117458716D01*
X129570520Y-117458714D01*
X129580728Y-117448507D01*
X129580729Y-117448504D01*
X133970520Y-113058716D01*
X134049577Y-112921784D01*
X134090501Y-112769057D01*
X134090501Y-112610942D01*
X134090501Y-112603347D01*
X134090500Y-112603329D01*
X134090500Y-110400096D01*
X134110185Y-110333057D01*
X134126814Y-110312420D01*
X141487819Y-102951414D01*
X141549142Y-102917930D01*
X141618834Y-102922914D01*
X141674767Y-102964786D01*
X141699184Y-103030250D01*
X141699500Y-103039096D01*
X141699500Y-103232351D01*
X141731522Y-103434534D01*
X141794781Y-103629223D01*
X141887715Y-103811613D01*
X142008028Y-103977213D01*
X142152786Y-104121971D01*
X142307749Y-104234556D01*
X142318390Y-104242287D01*
X142409840Y-104288883D01*
X142411080Y-104289515D01*
X142461876Y-104337490D01*
X142478671Y-104405311D01*
X142456134Y-104471446D01*
X142411080Y-104510485D01*
X142318386Y-104557715D01*
X142152786Y-104678028D01*
X142008028Y-104822786D01*
X141887715Y-104988386D01*
X141794781Y-105170776D01*
X141731522Y-105365465D01*
X141699500Y-105567648D01*
X141699500Y-105772351D01*
X141731522Y-105974534D01*
X141794781Y-106169223D01*
X141887715Y-106351613D01*
X142008028Y-106517213D01*
X142152786Y-106661971D01*
X142307749Y-106774556D01*
X142318390Y-106782287D01*
X142409840Y-106828883D01*
X142411080Y-106829515D01*
X142461876Y-106877490D01*
X142478671Y-106945311D01*
X142456134Y-107011446D01*
X142411080Y-107050485D01*
X142318386Y-107097715D01*
X142152786Y-107218028D01*
X142008028Y-107362786D01*
X141887715Y-107528386D01*
X141794781Y-107710776D01*
X141731522Y-107905465D01*
X141699500Y-108107648D01*
X141699500Y-108312351D01*
X141731522Y-108514534D01*
X141794781Y-108709223D01*
X141887715Y-108891613D01*
X142008028Y-109057213D01*
X142152786Y-109201971D01*
X142307749Y-109314556D01*
X142318390Y-109322287D01*
X142409840Y-109368883D01*
X142411080Y-109369515D01*
X142461876Y-109417490D01*
X142478671Y-109485311D01*
X142456134Y-109551446D01*
X142411080Y-109590485D01*
X142318386Y-109637715D01*
X142152786Y-109758028D01*
X142008028Y-109902786D01*
X141887715Y-110068386D01*
X141794781Y-110250776D01*
X141731522Y-110445465D01*
X141699500Y-110647648D01*
X141699500Y-110852351D01*
X141731522Y-111054534D01*
X141794781Y-111249223D01*
X141887715Y-111431613D01*
X142008028Y-111597213D01*
X142152786Y-111741971D01*
X142307749Y-111854556D01*
X142318390Y-111862287D01*
X142409840Y-111908883D01*
X142411080Y-111909515D01*
X142461876Y-111957490D01*
X142478671Y-112025311D01*
X142456134Y-112091446D01*
X142411080Y-112130485D01*
X142318386Y-112177715D01*
X142152786Y-112298028D01*
X142008028Y-112442786D01*
X141887715Y-112608386D01*
X141794781Y-112790776D01*
X141731522Y-112985465D01*
X141699500Y-113187648D01*
X141699500Y-113392351D01*
X141731522Y-113594534D01*
X141794781Y-113789223D01*
X141887715Y-113971613D01*
X142008028Y-114137213D01*
X142152786Y-114281971D01*
X142307749Y-114394556D01*
X142318390Y-114402287D01*
X142409840Y-114448883D01*
X142411080Y-114449515D01*
X142461876Y-114497490D01*
X142478671Y-114565311D01*
X142456134Y-114631446D01*
X142411080Y-114670485D01*
X142318386Y-114717715D01*
X142152786Y-114838028D01*
X142008028Y-114982786D01*
X141887715Y-115148386D01*
X141794781Y-115330776D01*
X141731522Y-115525465D01*
X141699500Y-115727648D01*
X141699500Y-115932351D01*
X141731522Y-116134534D01*
X141794781Y-116329223D01*
X141858691Y-116454653D01*
X141876447Y-116489500D01*
X141887715Y-116511613D01*
X142008028Y-116677213D01*
X142152786Y-116821971D01*
X142293955Y-116924534D01*
X142318390Y-116942287D01*
X142409840Y-116988883D01*
X142411080Y-116989515D01*
X142461876Y-117037490D01*
X142478671Y-117105311D01*
X142456134Y-117171446D01*
X142411080Y-117210485D01*
X142318386Y-117257715D01*
X142152786Y-117378028D01*
X142008028Y-117522786D01*
X141887715Y-117688386D01*
X141794781Y-117870776D01*
X141731522Y-118065465D01*
X141699500Y-118267648D01*
X141699500Y-118472351D01*
X141731522Y-118674534D01*
X141794781Y-118869223D01*
X141887715Y-119051613D01*
X142008028Y-119217213D01*
X142152786Y-119361971D01*
X142307749Y-119474556D01*
X142318390Y-119482287D01*
X142434607Y-119541503D01*
X142500776Y-119575218D01*
X142500778Y-119575218D01*
X142500781Y-119575220D01*
X142605137Y-119609127D01*
X142695465Y-119638477D01*
X142796557Y-119654488D01*
X142897648Y-119670500D01*
X142897649Y-119670500D01*
X143102351Y-119670500D01*
X143102352Y-119670500D01*
X143304534Y-119638477D01*
X143499219Y-119575220D01*
X143681610Y-119482287D01*
X143774590Y-119414732D01*
X143847213Y-119361971D01*
X143847215Y-119361968D01*
X143847219Y-119361966D01*
X143991966Y-119217219D01*
X143991968Y-119217215D01*
X143991971Y-119217213D01*
X144069486Y-119110521D01*
X144112287Y-119051610D01*
X144205220Y-118869219D01*
X144268477Y-118674534D01*
X144300500Y-118472352D01*
X144300500Y-118267648D01*
X144268477Y-118065466D01*
X144205220Y-117870781D01*
X144205218Y-117870778D01*
X144205218Y-117870776D01*
X144150297Y-117762989D01*
X144112287Y-117688390D01*
X144063066Y-117620642D01*
X143991971Y-117522786D01*
X143847213Y-117378028D01*
X143681614Y-117257715D01*
X143669524Y-117251555D01*
X143588917Y-117210483D01*
X143538123Y-117162511D01*
X143521328Y-117094690D01*
X143543865Y-117028555D01*
X143588917Y-116989516D01*
X143681610Y-116942287D01*
X143706045Y-116924534D01*
X143847213Y-116821971D01*
X143847215Y-116821968D01*
X143847219Y-116821966D01*
X143991966Y-116677219D01*
X143991968Y-116677215D01*
X143991971Y-116677213D01*
X144080424Y-116555466D01*
X144112287Y-116511610D01*
X144205220Y-116329219D01*
X144268477Y-116134534D01*
X144300500Y-115932352D01*
X144300500Y-115893713D01*
X148859500Y-115893713D01*
X148859500Y-116106286D01*
X148892630Y-116315465D01*
X148892754Y-116316243D01*
X148921034Y-116403281D01*
X148958444Y-116518414D01*
X149054951Y-116707820D01*
X149179890Y-116879786D01*
X149330213Y-117030109D01*
X149502179Y-117155048D01*
X149502181Y-117155049D01*
X149502184Y-117155051D01*
X149691588Y-117251557D01*
X149893757Y-117317246D01*
X150103713Y-117350500D01*
X150103714Y-117350500D01*
X150316286Y-117350500D01*
X150316287Y-117350500D01*
X150526243Y-117317246D01*
X150728412Y-117251557D01*
X150917816Y-117155051D01*
X150939789Y-117139086D01*
X151089786Y-117030109D01*
X151089788Y-117030106D01*
X151089792Y-117030104D01*
X151240104Y-116879792D01*
X151240106Y-116879788D01*
X151240109Y-116879786D01*
X151365048Y-116707820D01*
X151365047Y-116707820D01*
X151365051Y-116707816D01*
X151461557Y-116518412D01*
X151527246Y-116316243D01*
X151560500Y-116106287D01*
X151560500Y-115893713D01*
X151527246Y-115683757D01*
X151461557Y-115481588D01*
X151365051Y-115292184D01*
X151240104Y-115120208D01*
X151222031Y-115102135D01*
X153939500Y-115102135D01*
X153939500Y-116897870D01*
X153939501Y-116897876D01*
X153945908Y-116957483D01*
X153996202Y-117092328D01*
X153996206Y-117092335D01*
X154082452Y-117207544D01*
X154082455Y-117207547D01*
X154197664Y-117293793D01*
X154197671Y-117293797D01*
X154332517Y-117344091D01*
X154332516Y-117344091D01*
X154339444Y-117344835D01*
X154392127Y-117350500D01*
X156187872Y-117350499D01*
X156247483Y-117344091D01*
X156382331Y-117293796D01*
X156497546Y-117207546D01*
X156583796Y-117092331D01*
X156634091Y-116957483D01*
X156640500Y-116897873D01*
X156640499Y-115102128D01*
X156634091Y-115042517D01*
X156583796Y-114907669D01*
X156583795Y-114907668D01*
X156583793Y-114907664D01*
X156497547Y-114792455D01*
X156497544Y-114792452D01*
X156382335Y-114706206D01*
X156382328Y-114706202D01*
X156247482Y-114655908D01*
X156247483Y-114655908D01*
X156187883Y-114649501D01*
X156187881Y-114649500D01*
X156187873Y-114649500D01*
X156187864Y-114649500D01*
X154392129Y-114649500D01*
X154392123Y-114649501D01*
X154332516Y-114655908D01*
X154197671Y-114706202D01*
X154197664Y-114706206D01*
X154082455Y-114792452D01*
X154082452Y-114792455D01*
X153996206Y-114907664D01*
X153996202Y-114907671D01*
X153945908Y-115042517D01*
X153939501Y-115102116D01*
X153939501Y-115102123D01*
X153939500Y-115102135D01*
X151222031Y-115102135D01*
X151089792Y-114969896D01*
X151089786Y-114969890D01*
X150917820Y-114844951D01*
X150728414Y-114748444D01*
X150728413Y-114748443D01*
X150728412Y-114748443D01*
X150526243Y-114682754D01*
X150526241Y-114682753D01*
X150526240Y-114682753D01*
X150364957Y-114657208D01*
X150316287Y-114649500D01*
X150103713Y-114649500D01*
X150055042Y-114657208D01*
X149893760Y-114682753D01*
X149691585Y-114748444D01*
X149502179Y-114844951D01*
X149330213Y-114969890D01*
X149179890Y-115120213D01*
X149054951Y-115292179D01*
X148958444Y-115481585D01*
X148892753Y-115683760D01*
X148859500Y-115893713D01*
X144300500Y-115893713D01*
X144300500Y-115727648D01*
X144288959Y-115654780D01*
X144268477Y-115525465D01*
X144205218Y-115330776D01*
X144171503Y-115264607D01*
X144112287Y-115148390D01*
X144104556Y-115137749D01*
X143991971Y-114982786D01*
X143847213Y-114838028D01*
X143681614Y-114717715D01*
X143612997Y-114682753D01*
X143588917Y-114670483D01*
X143538123Y-114622511D01*
X143521328Y-114554690D01*
X143543865Y-114488555D01*
X143588917Y-114449516D01*
X143681610Y-114402287D01*
X143702770Y-114386913D01*
X143847213Y-114281971D01*
X143847215Y-114281968D01*
X143847219Y-114281966D01*
X143991966Y-114137219D01*
X143991968Y-114137215D01*
X143991971Y-114137213D01*
X144044732Y-114064590D01*
X144112287Y-113971610D01*
X144205220Y-113789219D01*
X144268477Y-113594534D01*
X144300500Y-113392352D01*
X144300500Y-113187648D01*
X144268477Y-112985466D01*
X144247787Y-112921790D01*
X144205218Y-112790776D01*
X144171503Y-112724607D01*
X144112287Y-112608390D01*
X144104556Y-112597749D01*
X143991971Y-112442786D01*
X143847213Y-112298028D01*
X143681614Y-112177715D01*
X143675006Y-112174348D01*
X143588917Y-112130483D01*
X143538123Y-112082511D01*
X143521328Y-112014690D01*
X143543865Y-111948555D01*
X143588917Y-111909516D01*
X143681610Y-111862287D01*
X143702770Y-111846913D01*
X143847213Y-111741971D01*
X143847215Y-111741968D01*
X143847219Y-111741966D01*
X143991966Y-111597219D01*
X143991968Y-111597215D01*
X143991971Y-111597213D01*
X144044732Y-111524590D01*
X144112287Y-111431610D01*
X144205220Y-111249219D01*
X144268477Y-111054534D01*
X144300500Y-110852352D01*
X144300500Y-110647648D01*
X144268477Y-110445466D01*
X144253735Y-110400096D01*
X144205218Y-110250776D01*
X144156443Y-110155051D01*
X144112287Y-110068390D01*
X144104556Y-110057749D01*
X143991971Y-109902786D01*
X143847213Y-109758028D01*
X143681614Y-109637715D01*
X143675006Y-109634348D01*
X143588917Y-109590483D01*
X143538123Y-109542511D01*
X143521328Y-109474690D01*
X143543865Y-109408555D01*
X143588917Y-109369516D01*
X143681610Y-109322287D01*
X143702770Y-109306913D01*
X143847213Y-109201971D01*
X143847215Y-109201968D01*
X143847219Y-109201966D01*
X143991966Y-109057219D01*
X143991968Y-109057215D01*
X143991971Y-109057213D01*
X144110759Y-108893713D01*
X148859500Y-108893713D01*
X148859500Y-109106287D01*
X148892754Y-109316243D01*
X148945467Y-109478477D01*
X148958444Y-109518414D01*
X149054951Y-109707820D01*
X149179890Y-109879786D01*
X149330213Y-110030109D01*
X149502179Y-110155048D01*
X149502181Y-110155049D01*
X149502184Y-110155051D01*
X149691588Y-110251557D01*
X149893757Y-110317246D01*
X150103713Y-110350500D01*
X150103714Y-110350500D01*
X150316286Y-110350500D01*
X150316287Y-110350500D01*
X150526243Y-110317246D01*
X150728412Y-110251557D01*
X150917816Y-110155051D01*
X151004138Y-110092335D01*
X151089786Y-110030109D01*
X151089788Y-110030106D01*
X151089792Y-110030104D01*
X151240104Y-109879792D01*
X151240106Y-109879788D01*
X151240109Y-109879786D01*
X151365048Y-109707820D01*
X151365047Y-109707820D01*
X151365051Y-109707816D01*
X151461557Y-109518412D01*
X151527246Y-109316243D01*
X151560500Y-109106287D01*
X151560500Y-108893713D01*
X151527246Y-108683757D01*
X151461557Y-108481588D01*
X151365051Y-108292184D01*
X151240104Y-108120208D01*
X151222031Y-108102135D01*
X153939500Y-108102135D01*
X153939500Y-109897870D01*
X153939501Y-109897876D01*
X153945908Y-109957483D01*
X153996202Y-110092328D01*
X153996206Y-110092335D01*
X154082452Y-110207544D01*
X154082455Y-110207547D01*
X154197664Y-110293793D01*
X154197671Y-110293797D01*
X154332517Y-110344091D01*
X154332516Y-110344091D01*
X154339444Y-110344835D01*
X154392127Y-110350500D01*
X156187872Y-110350499D01*
X156247483Y-110344091D01*
X156382331Y-110293796D01*
X156497546Y-110207546D01*
X156583796Y-110092331D01*
X156634091Y-109957483D01*
X156640500Y-109897873D01*
X156640499Y-108102128D01*
X156634091Y-108042517D01*
X156583796Y-107907669D01*
X156583795Y-107907668D01*
X156583793Y-107907664D01*
X156497547Y-107792455D01*
X156497544Y-107792452D01*
X156382335Y-107706206D01*
X156382328Y-107706202D01*
X156247482Y-107655908D01*
X156247483Y-107655908D01*
X156187883Y-107649501D01*
X156187881Y-107649500D01*
X156187873Y-107649500D01*
X156187864Y-107649500D01*
X154392129Y-107649500D01*
X154392123Y-107649501D01*
X154332516Y-107655908D01*
X154197671Y-107706202D01*
X154197664Y-107706206D01*
X154082455Y-107792452D01*
X154082452Y-107792455D01*
X153996206Y-107907664D01*
X153996202Y-107907671D01*
X153945908Y-108042517D01*
X153939501Y-108102116D01*
X153939501Y-108102123D01*
X153939500Y-108102135D01*
X151222031Y-108102135D01*
X151089792Y-107969896D01*
X151089786Y-107969890D01*
X150917820Y-107844951D01*
X150728414Y-107748444D01*
X150728413Y-107748443D01*
X150728412Y-107748443D01*
X150526243Y-107682754D01*
X150526241Y-107682753D01*
X150526240Y-107682753D01*
X150364957Y-107657208D01*
X150316287Y-107649500D01*
X150103713Y-107649500D01*
X150055042Y-107657208D01*
X149893760Y-107682753D01*
X149691585Y-107748444D01*
X149502179Y-107844951D01*
X149330213Y-107969890D01*
X149179890Y-108120213D01*
X149054951Y-108292179D01*
X148958444Y-108481585D01*
X148892753Y-108683760D01*
X148869188Y-108832545D01*
X148859500Y-108893713D01*
X144110759Y-108893713D01*
X144112286Y-108891611D01*
X144142383Y-108832545D01*
X144205218Y-108709223D01*
X144205218Y-108709222D01*
X144205220Y-108709219D01*
X144268477Y-108514534D01*
X144300500Y-108312352D01*
X144300500Y-108107648D01*
X144268477Y-107905466D01*
X144248814Y-107844951D01*
X144231757Y-107792454D01*
X144205220Y-107710781D01*
X144205218Y-107710778D01*
X144205218Y-107710776D01*
X144171503Y-107644607D01*
X144112287Y-107528390D01*
X144104556Y-107517749D01*
X143991971Y-107362786D01*
X143847213Y-107218028D01*
X143681614Y-107097715D01*
X143675006Y-107094348D01*
X143588917Y-107050483D01*
X143538123Y-107002511D01*
X143521328Y-106934690D01*
X143543865Y-106868555D01*
X143588917Y-106829516D01*
X143681610Y-106782287D01*
X143702770Y-106766913D01*
X143847213Y-106661971D01*
X143847215Y-106661968D01*
X143847219Y-106661966D01*
X143991966Y-106517219D01*
X143991968Y-106517215D01*
X143991971Y-106517213D01*
X144044732Y-106444590D01*
X144112287Y-106351610D01*
X144205220Y-106169219D01*
X144268477Y-105974534D01*
X144300500Y-105772352D01*
X144300500Y-105567648D01*
X144268477Y-105365466D01*
X144205220Y-105170781D01*
X144205218Y-105170778D01*
X144205218Y-105170776D01*
X144171503Y-105104607D01*
X144112287Y-104988390D01*
X144104556Y-104977749D01*
X143991971Y-104822786D01*
X143847213Y-104678028D01*
X143681614Y-104557715D01*
X143675006Y-104554348D01*
X143588917Y-104510483D01*
X143538123Y-104462511D01*
X143521328Y-104394690D01*
X143543865Y-104328555D01*
X143588917Y-104289516D01*
X143681610Y-104242287D01*
X143702770Y-104226913D01*
X143847213Y-104121971D01*
X143847215Y-104121968D01*
X143847219Y-104121966D01*
X143991966Y-103977219D01*
X143991968Y-103977215D01*
X143991971Y-103977213D01*
X144044732Y-103904590D01*
X144112287Y-103811610D01*
X144205220Y-103629219D01*
X144268477Y-103434534D01*
X144300500Y-103232352D01*
X144300500Y-103027648D01*
X144268477Y-102825465D01*
X144230250Y-102707816D01*
X144205220Y-102630781D01*
X144205218Y-102630778D01*
X144205218Y-102630776D01*
X144147965Y-102518412D01*
X144112287Y-102448390D01*
X144056766Y-102371971D01*
X143991971Y-102282786D01*
X143847213Y-102138028D01*
X143681614Y-102017715D01*
X143677198Y-102015465D01*
X143588917Y-101970483D01*
X143538123Y-101922511D01*
X143530992Y-101893713D01*
X148859500Y-101893713D01*
X148859500Y-102106286D01*
X148890436Y-102301613D01*
X148892754Y-102316243D01*
X148949954Y-102492287D01*
X148958444Y-102518414D01*
X149054951Y-102707820D01*
X149179890Y-102879786D01*
X149330213Y-103030109D01*
X149502179Y-103155048D01*
X149502181Y-103155049D01*
X149502184Y-103155051D01*
X149691588Y-103251557D01*
X149893757Y-103317246D01*
X150103713Y-103350500D01*
X150103714Y-103350500D01*
X150316286Y-103350500D01*
X150316287Y-103350500D01*
X150526243Y-103317246D01*
X150728412Y-103251557D01*
X150917816Y-103155051D01*
X151004138Y-103092335D01*
X151089786Y-103030109D01*
X151089788Y-103030106D01*
X151089792Y-103030104D01*
X151240104Y-102879792D01*
X151240106Y-102879788D01*
X151240109Y-102879786D01*
X151365048Y-102707820D01*
X151365047Y-102707820D01*
X151365051Y-102707816D01*
X151461557Y-102518412D01*
X151527246Y-102316243D01*
X151560500Y-102106287D01*
X151560500Y-101893713D01*
X151527246Y-101683757D01*
X151461557Y-101481588D01*
X151365051Y-101292184D01*
X151240104Y-101120208D01*
X151222031Y-101102135D01*
X153939500Y-101102135D01*
X153939500Y-102897870D01*
X153939501Y-102897876D01*
X153945908Y-102957483D01*
X153996202Y-103092328D01*
X153996206Y-103092335D01*
X154082452Y-103207544D01*
X154082455Y-103207547D01*
X154197664Y-103293793D01*
X154197671Y-103293797D01*
X154332517Y-103344091D01*
X154332516Y-103344091D01*
X154339444Y-103344835D01*
X154392127Y-103350500D01*
X156187872Y-103350499D01*
X156247483Y-103344091D01*
X156382331Y-103293796D01*
X156497546Y-103207546D01*
X156583796Y-103092331D01*
X156634091Y-102957483D01*
X156640500Y-102897873D01*
X156640499Y-101102128D01*
X156634091Y-101042517D01*
X156631228Y-101034842D01*
X156583797Y-100907671D01*
X156583793Y-100907664D01*
X156497547Y-100792455D01*
X156497544Y-100792452D01*
X156382335Y-100706206D01*
X156382328Y-100706202D01*
X156247482Y-100655908D01*
X156247483Y-100655908D01*
X156187883Y-100649501D01*
X156187881Y-100649500D01*
X156187873Y-100649500D01*
X156187864Y-100649500D01*
X154392129Y-100649500D01*
X154392123Y-100649501D01*
X154332516Y-100655908D01*
X154197671Y-100706202D01*
X154197664Y-100706206D01*
X154082455Y-100792452D01*
X154082452Y-100792455D01*
X153996206Y-100907664D01*
X153996202Y-100907671D01*
X153945908Y-101042517D01*
X153940887Y-101089223D01*
X153939501Y-101102123D01*
X153939500Y-101102135D01*
X151222031Y-101102135D01*
X151089792Y-100969896D01*
X151089786Y-100969890D01*
X150917820Y-100844951D01*
X150728414Y-100748444D01*
X150728413Y-100748443D01*
X150728412Y-100748443D01*
X150526243Y-100682754D01*
X150526241Y-100682753D01*
X150526240Y-100682753D01*
X150364957Y-100657208D01*
X150316287Y-100649500D01*
X150103713Y-100649500D01*
X150055042Y-100657208D01*
X149893760Y-100682753D01*
X149691585Y-100748444D01*
X149502179Y-100844951D01*
X149330213Y-100969890D01*
X149179890Y-101120213D01*
X149054951Y-101292179D01*
X148958444Y-101481585D01*
X148892753Y-101683760D01*
X148859500Y-101893713D01*
X143530992Y-101893713D01*
X143521328Y-101854690D01*
X143543865Y-101788555D01*
X143588917Y-101749516D01*
X143681610Y-101702287D01*
X143707115Y-101683757D01*
X143847213Y-101581971D01*
X143847215Y-101581968D01*
X143847219Y-101581966D01*
X143991966Y-101437219D01*
X143991968Y-101437215D01*
X143991971Y-101437213D01*
X144080424Y-101315466D01*
X144112287Y-101271610D01*
X144205220Y-101089219D01*
X144268477Y-100894534D01*
X144300500Y-100692352D01*
X144300500Y-100487648D01*
X144285097Y-100390397D01*
X144268477Y-100285465D01*
X144205218Y-100090776D01*
X144171503Y-100024607D01*
X144112287Y-99908390D01*
X144104556Y-99897749D01*
X143991971Y-99742786D01*
X143847213Y-99598028D01*
X143681614Y-99477715D01*
X143675006Y-99474348D01*
X143588917Y-99430483D01*
X143538123Y-99382511D01*
X143521328Y-99314690D01*
X143543865Y-99248555D01*
X143588917Y-99209516D01*
X143681610Y-99162287D01*
X143702770Y-99146913D01*
X143847213Y-99041971D01*
X143847215Y-99041968D01*
X143847219Y-99041966D01*
X143991966Y-98897219D01*
X143991968Y-98897215D01*
X143991971Y-98897213D01*
X144044732Y-98824590D01*
X144112287Y-98731610D01*
X144205220Y-98549219D01*
X144268477Y-98354534D01*
X144300500Y-98152352D01*
X144300500Y-97947648D01*
X144268477Y-97745466D01*
X144205220Y-97550781D01*
X144205218Y-97550778D01*
X144205218Y-97550776D01*
X144171503Y-97484607D01*
X144112287Y-97368390D01*
X144104556Y-97357749D01*
X143991971Y-97202786D01*
X143847213Y-97058028D01*
X143681614Y-96937715D01*
X143631463Y-96912162D01*
X143588917Y-96890483D01*
X143538123Y-96842511D01*
X143521328Y-96774690D01*
X143543865Y-96708555D01*
X143588917Y-96669516D01*
X143681610Y-96622287D01*
X143824246Y-96518657D01*
X143847213Y-96501971D01*
X143847215Y-96501968D01*
X143847219Y-96501966D01*
X143991966Y-96357219D01*
X143991968Y-96357215D01*
X143991971Y-96357213D01*
X144068733Y-96251557D01*
X144112287Y-96191610D01*
X144205220Y-96009219D01*
X144268477Y-95814534D01*
X144300500Y-95612352D01*
X144300500Y-95407648D01*
X144268477Y-95205466D01*
X144205220Y-95010781D01*
X144205218Y-95010778D01*
X144205218Y-95010776D01*
X144171772Y-94945136D01*
X144148770Y-94899992D01*
X144145571Y-94893713D01*
X148859500Y-94893713D01*
X148859500Y-95106286D01*
X148875208Y-95205466D01*
X148892754Y-95316243D01*
X148922453Y-95407648D01*
X148958444Y-95518414D01*
X149054951Y-95707820D01*
X149179890Y-95879786D01*
X149330213Y-96030109D01*
X149502179Y-96155048D01*
X149502181Y-96155049D01*
X149502184Y-96155051D01*
X149691588Y-96251557D01*
X149893757Y-96317246D01*
X150103713Y-96350500D01*
X150103714Y-96350500D01*
X150316286Y-96350500D01*
X150316287Y-96350500D01*
X150526243Y-96317246D01*
X150728412Y-96251557D01*
X150917816Y-96155051D01*
X150993566Y-96100016D01*
X151089786Y-96030109D01*
X151089788Y-96030106D01*
X151089792Y-96030104D01*
X151240104Y-95879792D01*
X151240106Y-95879788D01*
X151240109Y-95879786D01*
X151365048Y-95707820D01*
X151365047Y-95707820D01*
X151365051Y-95707816D01*
X151461557Y-95518412D01*
X151527246Y-95316243D01*
X151560500Y-95106287D01*
X151560500Y-94893713D01*
X151527246Y-94683757D01*
X151461557Y-94481588D01*
X151365051Y-94292184D01*
X151328244Y-94241523D01*
X151277511Y-94171694D01*
X151277508Y-94171691D01*
X151267193Y-94157494D01*
X151240104Y-94120208D01*
X151222031Y-94102135D01*
X153939500Y-94102135D01*
X153939500Y-95897870D01*
X153939501Y-95897876D01*
X153945908Y-95957483D01*
X153996202Y-96092328D01*
X153996206Y-96092335D01*
X154082452Y-96207544D01*
X154082455Y-96207547D01*
X154197664Y-96293793D01*
X154197671Y-96293797D01*
X154332517Y-96344091D01*
X154332516Y-96344091D01*
X154339444Y-96344835D01*
X154392127Y-96350500D01*
X156187872Y-96350499D01*
X156247483Y-96344091D01*
X156382331Y-96293796D01*
X156497546Y-96207546D01*
X156583796Y-96092331D01*
X156634091Y-95957483D01*
X156640500Y-95897873D01*
X156640499Y-94102128D01*
X156634091Y-94042517D01*
X156615236Y-93991965D01*
X156583797Y-93907671D01*
X156583793Y-93907664D01*
X156497547Y-93792455D01*
X156497544Y-93792452D01*
X156382335Y-93706206D01*
X156382328Y-93706202D01*
X156247482Y-93655908D01*
X156247483Y-93655908D01*
X156187883Y-93649501D01*
X156187881Y-93649500D01*
X156187873Y-93649500D01*
X156187864Y-93649500D01*
X154392129Y-93649500D01*
X154392123Y-93649501D01*
X154332516Y-93655908D01*
X154197671Y-93706202D01*
X154197664Y-93706206D01*
X154082455Y-93792452D01*
X154082452Y-93792455D01*
X153996206Y-93907664D01*
X153996202Y-93907671D01*
X153945908Y-94042517D01*
X153939501Y-94102116D01*
X153939501Y-94102123D01*
X153939500Y-94102135D01*
X151222031Y-94102135D01*
X151089792Y-93969896D01*
X151089786Y-93969890D01*
X150917820Y-93844951D01*
X150728414Y-93748444D01*
X150728413Y-93748443D01*
X150728412Y-93748443D01*
X150526243Y-93682754D01*
X150526241Y-93682753D01*
X150526240Y-93682753D01*
X150364957Y-93657208D01*
X150316287Y-93649500D01*
X150103713Y-93649500D01*
X150055042Y-93657208D01*
X149893760Y-93682753D01*
X149691585Y-93748444D01*
X149502179Y-93844951D01*
X149330213Y-93969890D01*
X149179890Y-94120213D01*
X149054951Y-94292179D01*
X148958444Y-94481585D01*
X148892753Y-94683760D01*
X148859500Y-94893713D01*
X144145571Y-94893713D01*
X144112287Y-94828390D01*
X144112285Y-94828387D01*
X144112284Y-94828385D01*
X143991971Y-94662786D01*
X143847213Y-94518028D01*
X143681614Y-94397715D01*
X143675006Y-94394348D01*
X143588917Y-94350483D01*
X143538123Y-94302511D01*
X143521328Y-94234690D01*
X143543865Y-94168555D01*
X143588917Y-94129516D01*
X143681610Y-94082287D01*
X143736351Y-94042516D01*
X143847213Y-93961971D01*
X143847215Y-93961968D01*
X143847219Y-93961966D01*
X143991966Y-93817219D01*
X143991968Y-93817215D01*
X143991971Y-93817213D01*
X144072624Y-93706202D01*
X144112287Y-93651610D01*
X144205220Y-93469219D01*
X144268477Y-93274534D01*
X144300500Y-93072352D01*
X144300500Y-92867648D01*
X144273229Y-92695466D01*
X144268477Y-92665465D01*
X144239127Y-92575137D01*
X144205220Y-92470781D01*
X144205218Y-92470778D01*
X144205218Y-92470776D01*
X144171503Y-92404607D01*
X144112287Y-92288390D01*
X144104556Y-92277749D01*
X143991971Y-92122786D01*
X143847213Y-91978028D01*
X143681613Y-91857715D01*
X143681612Y-91857714D01*
X143681610Y-91857713D01*
X143624653Y-91828691D01*
X143499223Y-91764781D01*
X143304534Y-91701522D01*
X143129995Y-91673878D01*
X143102352Y-91669500D01*
X142897648Y-91669500D01*
X142873329Y-91673351D01*
X142695465Y-91701522D01*
X142500776Y-91764781D01*
X142318386Y-91857715D01*
X142152786Y-91978028D01*
X142008028Y-92122786D01*
X141887715Y-92288386D01*
X141794781Y-92470776D01*
X141731522Y-92665465D01*
X141699500Y-92867648D01*
X141699500Y-93072351D01*
X141731522Y-93274534D01*
X141794781Y-93469223D01*
X141858691Y-93594653D01*
X141886638Y-93649501D01*
X141887715Y-93651613D01*
X142008028Y-93817213D01*
X142152786Y-93961971D01*
X142307749Y-94074556D01*
X142318390Y-94082287D01*
X142392812Y-94120207D01*
X142411080Y-94129515D01*
X142461876Y-94177490D01*
X142478671Y-94245311D01*
X142456134Y-94311446D01*
X142411080Y-94350485D01*
X142318386Y-94397715D01*
X142152786Y-94518028D01*
X142008028Y-94662786D01*
X141887715Y-94828386D01*
X141794781Y-95010776D01*
X141731522Y-95205465D01*
X141699500Y-95407648D01*
X141699500Y-95612351D01*
X141731522Y-95814534D01*
X141794781Y-96009223D01*
X141887715Y-96191613D01*
X142008028Y-96357213D01*
X142152786Y-96501971D01*
X142307749Y-96614556D01*
X142318390Y-96622287D01*
X142409840Y-96668883D01*
X142411080Y-96669515D01*
X142461876Y-96717490D01*
X142478671Y-96785311D01*
X142456134Y-96851446D01*
X142411080Y-96890485D01*
X142318386Y-96937715D01*
X142152786Y-97058028D01*
X142008028Y-97202786D01*
X141887715Y-97368386D01*
X141794781Y-97550776D01*
X141731522Y-97745465D01*
X141699500Y-97947648D01*
X141699500Y-98152351D01*
X141731522Y-98354534D01*
X141794781Y-98549223D01*
X141887715Y-98731613D01*
X142008028Y-98897213D01*
X142152786Y-99041971D01*
X142307749Y-99154556D01*
X142318390Y-99162287D01*
X142409840Y-99208883D01*
X142411080Y-99209515D01*
X142461876Y-99257490D01*
X142478671Y-99325311D01*
X142456134Y-99391446D01*
X142411080Y-99430485D01*
X142318386Y-99477715D01*
X142152786Y-99598028D01*
X142008028Y-99742786D01*
X141887715Y-99908386D01*
X141794781Y-100090776D01*
X141731522Y-100285465D01*
X141699500Y-100487648D01*
X141699500Y-100692351D01*
X141731522Y-100894534D01*
X141736173Y-100908848D01*
X141738165Y-100978690D01*
X141705921Y-101034842D01*
X133121286Y-109619478D01*
X133009481Y-109731282D01*
X133009479Y-109731284D01*
X132994036Y-109758034D01*
X132983006Y-109777139D01*
X132930423Y-109868215D01*
X132889499Y-110020943D01*
X132889499Y-110020945D01*
X132889499Y-110189046D01*
X132889500Y-110189059D01*
X132889500Y-112389901D01*
X132869815Y-112456940D01*
X132853181Y-112477582D01*
X129266762Y-116064000D01*
X129205439Y-116097485D01*
X129135747Y-116092501D01*
X129079814Y-116050629D01*
X129055397Y-115985165D01*
X129056607Y-115956926D01*
X129060500Y-115932352D01*
X129060500Y-115727648D01*
X129048959Y-115654780D01*
X129028477Y-115525465D01*
X128965218Y-115330776D01*
X128931503Y-115264607D01*
X128872287Y-115148390D01*
X128864556Y-115137749D01*
X128751971Y-114982786D01*
X128607213Y-114838028D01*
X128441614Y-114717715D01*
X128372997Y-114682753D01*
X128348917Y-114670483D01*
X128298123Y-114622511D01*
X128281328Y-114554690D01*
X128303865Y-114488555D01*
X128348917Y-114449516D01*
X128441610Y-114402287D01*
X128462770Y-114386913D01*
X128607213Y-114281971D01*
X128607215Y-114281968D01*
X128607219Y-114281966D01*
X128751966Y-114137219D01*
X128751968Y-114137215D01*
X128751971Y-114137213D01*
X128804732Y-114064590D01*
X128872287Y-113971610D01*
X128965220Y-113789219D01*
X129028477Y-113594534D01*
X129060500Y-113392352D01*
X129060500Y-113187648D01*
X129028477Y-112985466D01*
X129007787Y-112921790D01*
X128965218Y-112790776D01*
X128931503Y-112724607D01*
X128872287Y-112608390D01*
X128864556Y-112597749D01*
X128751971Y-112442786D01*
X128607213Y-112298028D01*
X128441614Y-112177715D01*
X128435006Y-112174348D01*
X128348917Y-112130483D01*
X128298123Y-112082511D01*
X128281328Y-112014690D01*
X128303865Y-111948555D01*
X128348917Y-111909516D01*
X128441610Y-111862287D01*
X128462770Y-111846913D01*
X128607213Y-111741971D01*
X128607215Y-111741968D01*
X128607219Y-111741966D01*
X128751966Y-111597219D01*
X128751968Y-111597215D01*
X128751971Y-111597213D01*
X128804732Y-111524590D01*
X128872287Y-111431610D01*
X128965220Y-111249219D01*
X129028477Y-111054534D01*
X129060500Y-110852352D01*
X129060500Y-110647648D01*
X129028477Y-110445466D01*
X129013735Y-110400096D01*
X128965218Y-110250776D01*
X128916443Y-110155051D01*
X128872287Y-110068390D01*
X128864556Y-110057749D01*
X128751971Y-109902786D01*
X128607213Y-109758028D01*
X128441614Y-109637715D01*
X128435006Y-109634348D01*
X128348917Y-109590483D01*
X128298123Y-109542511D01*
X128281328Y-109474690D01*
X128303865Y-109408555D01*
X128348917Y-109369516D01*
X128441610Y-109322287D01*
X128462770Y-109306913D01*
X128607213Y-109201971D01*
X128607215Y-109201968D01*
X128607219Y-109201966D01*
X128751966Y-109057219D01*
X128751968Y-109057215D01*
X128751971Y-109057213D01*
X128804732Y-108984590D01*
X128872287Y-108891610D01*
X128965220Y-108709219D01*
X129028477Y-108514534D01*
X129060500Y-108312352D01*
X129060500Y-108107648D01*
X129028477Y-107905466D01*
X129008814Y-107844951D01*
X128991757Y-107792454D01*
X128965220Y-107710781D01*
X128965218Y-107710778D01*
X128965218Y-107710776D01*
X128931503Y-107644607D01*
X128872287Y-107528390D01*
X128864556Y-107517749D01*
X128751971Y-107362786D01*
X128607213Y-107218028D01*
X128441614Y-107097715D01*
X128435006Y-107094348D01*
X128348917Y-107050483D01*
X128298123Y-107002511D01*
X128281328Y-106934690D01*
X128303865Y-106868555D01*
X128348917Y-106829516D01*
X128441610Y-106782287D01*
X128462770Y-106766913D01*
X128607213Y-106661971D01*
X128607215Y-106661968D01*
X128607219Y-106661966D01*
X128751966Y-106517219D01*
X128751968Y-106517215D01*
X128751971Y-106517213D01*
X128804732Y-106444590D01*
X128872287Y-106351610D01*
X128965220Y-106169219D01*
X129028477Y-105974534D01*
X129060500Y-105772352D01*
X129060500Y-105567648D01*
X129028477Y-105365466D01*
X128965220Y-105170781D01*
X128965218Y-105170778D01*
X128965218Y-105170776D01*
X128931503Y-105104607D01*
X128872287Y-104988390D01*
X128864556Y-104977749D01*
X128751971Y-104822786D01*
X128607213Y-104678028D01*
X128441614Y-104557715D01*
X128435006Y-104554348D01*
X128348917Y-104510483D01*
X128298123Y-104462511D01*
X128281328Y-104394690D01*
X128303865Y-104328555D01*
X128348917Y-104289516D01*
X128441610Y-104242287D01*
X128462770Y-104226913D01*
X128607213Y-104121971D01*
X128607215Y-104121968D01*
X128607219Y-104121966D01*
X128751966Y-103977219D01*
X128751968Y-103977215D01*
X128751971Y-103977213D01*
X128804732Y-103904590D01*
X128872287Y-103811610D01*
X128965220Y-103629219D01*
X129028477Y-103434534D01*
X129060500Y-103232352D01*
X129060500Y-103027648D01*
X129028477Y-102825465D01*
X128990250Y-102707816D01*
X128965220Y-102630781D01*
X128965218Y-102630778D01*
X128965218Y-102630776D01*
X128907965Y-102518412D01*
X128872287Y-102448390D01*
X128816766Y-102371971D01*
X128751971Y-102282786D01*
X128607213Y-102138028D01*
X128441614Y-102017715D01*
X128435006Y-102014348D01*
X128348917Y-101970483D01*
X128298123Y-101922511D01*
X128281328Y-101854690D01*
X128303865Y-101788555D01*
X128348917Y-101749516D01*
X128441610Y-101702287D01*
X128467115Y-101683757D01*
X128607213Y-101581971D01*
X128607215Y-101581968D01*
X128607219Y-101581966D01*
X128751966Y-101437219D01*
X128751968Y-101437215D01*
X128751971Y-101437213D01*
X128840424Y-101315466D01*
X128872287Y-101271610D01*
X128965220Y-101089219D01*
X129028477Y-100894534D01*
X129060500Y-100692352D01*
X129060500Y-100487648D01*
X129045097Y-100390397D01*
X129028477Y-100285465D01*
X128965218Y-100090776D01*
X128931503Y-100024607D01*
X128872287Y-99908390D01*
X128864556Y-99897749D01*
X128751971Y-99742786D01*
X128607213Y-99598028D01*
X128441614Y-99477715D01*
X128435006Y-99474348D01*
X128348917Y-99430483D01*
X128298123Y-99382511D01*
X128281328Y-99314690D01*
X128303865Y-99248555D01*
X128348917Y-99209516D01*
X128441610Y-99162287D01*
X128462770Y-99146913D01*
X128607213Y-99041971D01*
X128607215Y-99041968D01*
X128607219Y-99041966D01*
X128751966Y-98897219D01*
X128751968Y-98897215D01*
X128751971Y-98897213D01*
X128804732Y-98824590D01*
X128872287Y-98731610D01*
X128965220Y-98549219D01*
X129028477Y-98354534D01*
X129060500Y-98152352D01*
X129060500Y-97947648D01*
X129028477Y-97745466D01*
X128965220Y-97550781D01*
X128965218Y-97550778D01*
X128965218Y-97550776D01*
X128931503Y-97484607D01*
X128872287Y-97368390D01*
X128864556Y-97357749D01*
X128751971Y-97202786D01*
X128607213Y-97058028D01*
X128441614Y-96937715D01*
X128391463Y-96912162D01*
X128348917Y-96890483D01*
X128298123Y-96842511D01*
X128281328Y-96774690D01*
X128303865Y-96708555D01*
X128348917Y-96669516D01*
X128441610Y-96622287D01*
X128584246Y-96518657D01*
X128607213Y-96501971D01*
X128607215Y-96501968D01*
X128607219Y-96501966D01*
X128751966Y-96357219D01*
X128751968Y-96357215D01*
X128751971Y-96357213D01*
X128828733Y-96251557D01*
X128872287Y-96191610D01*
X128965220Y-96009219D01*
X129028477Y-95814534D01*
X129060500Y-95612352D01*
X129060500Y-95407648D01*
X129028477Y-95205466D01*
X128965220Y-95010781D01*
X128965218Y-95010778D01*
X128965218Y-95010776D01*
X128908770Y-94899992D01*
X128872287Y-94828390D01*
X128849629Y-94797203D01*
X128751971Y-94662786D01*
X128607213Y-94518028D01*
X128441614Y-94397715D01*
X128435006Y-94394348D01*
X128348917Y-94350483D01*
X128298123Y-94302511D01*
X128281328Y-94234690D01*
X128303865Y-94168555D01*
X128348917Y-94129516D01*
X128441610Y-94082287D01*
X128496351Y-94042516D01*
X128607213Y-93961971D01*
X128607215Y-93961968D01*
X128607219Y-93961966D01*
X128751966Y-93817219D01*
X128751968Y-93817215D01*
X128751971Y-93817213D01*
X128832624Y-93706202D01*
X128872287Y-93651610D01*
X128965220Y-93469219D01*
X129028477Y-93274534D01*
X129060500Y-93072352D01*
X129060500Y-92867648D01*
X129033229Y-92695466D01*
X129028477Y-92665465D01*
X128999127Y-92575137D01*
X128965220Y-92470781D01*
X128965218Y-92470778D01*
X128965218Y-92470776D01*
X128931503Y-92404607D01*
X128872287Y-92288390D01*
X128864556Y-92277749D01*
X128751971Y-92122786D01*
X128607213Y-91978028D01*
X128441614Y-91857715D01*
X128435006Y-91854348D01*
X128348917Y-91810483D01*
X128298123Y-91762511D01*
X128281328Y-91694690D01*
X128303865Y-91628555D01*
X128348917Y-91589516D01*
X128441610Y-91542287D01*
X128462770Y-91526913D01*
X128607213Y-91421971D01*
X128607215Y-91421968D01*
X128607219Y-91421966D01*
X128751966Y-91277219D01*
X128751968Y-91277215D01*
X128751971Y-91277213D01*
X128804732Y-91204590D01*
X128872287Y-91111610D01*
X128965220Y-90929219D01*
X129028477Y-90734534D01*
X129060500Y-90532352D01*
X129060500Y-90327648D01*
X129028477Y-90125466D01*
X128965220Y-89930781D01*
X128965218Y-89930778D01*
X128965218Y-89930776D01*
X128931503Y-89864607D01*
X128872287Y-89748390D01*
X128831816Y-89692686D01*
X128751971Y-89582786D01*
X128607213Y-89438028D01*
X128441614Y-89317715D01*
X128435006Y-89314348D01*
X128348917Y-89270483D01*
X128298123Y-89222511D01*
X128281328Y-89154690D01*
X128303865Y-89088555D01*
X128348917Y-89049516D01*
X128441610Y-89002287D01*
X128462770Y-88986913D01*
X128607213Y-88881971D01*
X128607215Y-88881968D01*
X128607219Y-88881966D01*
X128751966Y-88737219D01*
X128751968Y-88737215D01*
X128751971Y-88737213D01*
X128804732Y-88664590D01*
X128872287Y-88571610D01*
X128965220Y-88389219D01*
X129028477Y-88194534D01*
X129060500Y-87992352D01*
X129060500Y-87787648D01*
X129028477Y-87585466D01*
X128965220Y-87390781D01*
X128965218Y-87390778D01*
X128965218Y-87390776D01*
X128931503Y-87324607D01*
X128872287Y-87208390D01*
X128864556Y-87197749D01*
X128751971Y-87042786D01*
X128607213Y-86898028D01*
X128441614Y-86777715D01*
X128435006Y-86774348D01*
X128348917Y-86730483D01*
X128298123Y-86682511D01*
X128281328Y-86614690D01*
X128303865Y-86548555D01*
X128348917Y-86509516D01*
X128441610Y-86462287D01*
X128462770Y-86446913D01*
X128607213Y-86341971D01*
X128607215Y-86341968D01*
X128607219Y-86341966D01*
X128751966Y-86197219D01*
X128751968Y-86197215D01*
X128751971Y-86197213D01*
X128804732Y-86124590D01*
X128872287Y-86031610D01*
X128965220Y-85849219D01*
X129028477Y-85654534D01*
X129060500Y-85452352D01*
X129060500Y-85247648D01*
X129028477Y-85045466D01*
X129023548Y-85030297D01*
X128965218Y-84850776D01*
X128931503Y-84784607D01*
X128872287Y-84668390D01*
X128864556Y-84657749D01*
X128751971Y-84502786D01*
X128607219Y-84358034D01*
X128570930Y-84331669D01*
X128528264Y-84276339D01*
X128522285Y-84206726D01*
X128554890Y-84144931D01*
X128615728Y-84110573D01*
X128630562Y-84108060D01*
X128667483Y-84104091D01*
X128802328Y-84053797D01*
X128802327Y-84053797D01*
X128802331Y-84053796D01*
X128917546Y-83967546D01*
X129003796Y-83852331D01*
X129054091Y-83717483D01*
X129060500Y-83657873D01*
X129060499Y-82707648D01*
X141699500Y-82707648D01*
X141699500Y-82912351D01*
X141731522Y-83114534D01*
X141794781Y-83309223D01*
X141887715Y-83491613D01*
X142008028Y-83657213D01*
X142152786Y-83801971D01*
X142307749Y-83914556D01*
X142318390Y-83922287D01*
X142405471Y-83966657D01*
X142411080Y-83969515D01*
X142461876Y-84017490D01*
X142478671Y-84085311D01*
X142456134Y-84151446D01*
X142411080Y-84190485D01*
X142318386Y-84237715D01*
X142152786Y-84358028D01*
X142008028Y-84502786D01*
X141887715Y-84668386D01*
X141794781Y-84850776D01*
X141731522Y-85045465D01*
X141707548Y-85196834D01*
X141699500Y-85247648D01*
X141699500Y-85452352D01*
X141702329Y-85470212D01*
X141731522Y-85654534D01*
X141794781Y-85849223D01*
X141887715Y-86031613D01*
X142008028Y-86197213D01*
X142152786Y-86341971D01*
X142307749Y-86454556D01*
X142318390Y-86462287D01*
X142409840Y-86508883D01*
X142411080Y-86509515D01*
X142461876Y-86557490D01*
X142478671Y-86625311D01*
X142456134Y-86691446D01*
X142411080Y-86730485D01*
X142318386Y-86777715D01*
X142152786Y-86898028D01*
X142008028Y-87042786D01*
X141887715Y-87208386D01*
X141794781Y-87390776D01*
X141731522Y-87585465D01*
X141699500Y-87787648D01*
X141699500Y-87992351D01*
X141731522Y-88194534D01*
X141794781Y-88389223D01*
X141887715Y-88571613D01*
X142008028Y-88737213D01*
X142152786Y-88881971D01*
X142307749Y-88994556D01*
X142318390Y-89002287D01*
X142411080Y-89049515D01*
X142500776Y-89095218D01*
X142500778Y-89095218D01*
X142500781Y-89095220D01*
X142605137Y-89129127D01*
X142695465Y-89158477D01*
X142714697Y-89161523D01*
X142897648Y-89190500D01*
X142897649Y-89190500D01*
X143102351Y-89190500D01*
X143102352Y-89190500D01*
X143304534Y-89158477D01*
X143499219Y-89095220D01*
X143681610Y-89002287D01*
X143774590Y-88934732D01*
X143847213Y-88881971D01*
X143847215Y-88881968D01*
X143847219Y-88881966D01*
X143991966Y-88737219D01*
X143991968Y-88737215D01*
X143991971Y-88737213D01*
X144044732Y-88664590D01*
X144112287Y-88571610D01*
X144205220Y-88389219D01*
X144268477Y-88194534D01*
X144300500Y-87992352D01*
X144300500Y-87787648D01*
X144268477Y-87585466D01*
X144205220Y-87390781D01*
X144205218Y-87390778D01*
X144205218Y-87390776D01*
X144171503Y-87324607D01*
X144112287Y-87208390D01*
X144104556Y-87197749D01*
X143991971Y-87042786D01*
X143847213Y-86898028D01*
X143681614Y-86777715D01*
X143675006Y-86774348D01*
X143588917Y-86730483D01*
X143538123Y-86682511D01*
X143521328Y-86614690D01*
X143543865Y-86548555D01*
X143588917Y-86509516D01*
X143681610Y-86462287D01*
X143702770Y-86446913D01*
X143847213Y-86341971D01*
X143847215Y-86341968D01*
X143847219Y-86341966D01*
X143991966Y-86197219D01*
X143991968Y-86197215D01*
X143991971Y-86197213D01*
X144044732Y-86124590D01*
X144112287Y-86031610D01*
X144205220Y-85849219D01*
X144268477Y-85654534D01*
X144300500Y-85452352D01*
X144300500Y-85247648D01*
X144282167Y-85131902D01*
X153749500Y-85131902D01*
X153749500Y-85368097D01*
X153786446Y-85601368D01*
X153859433Y-85825996D01*
X153964200Y-86031610D01*
X153966657Y-86036433D01*
X154105483Y-86227510D01*
X154272490Y-86394517D01*
X154463567Y-86533343D01*
X154562991Y-86584002D01*
X154674003Y-86640566D01*
X154674005Y-86640566D01*
X154674008Y-86640568D01*
X154794412Y-86679689D01*
X154898631Y-86713553D01*
X155131903Y-86750500D01*
X155131908Y-86750500D01*
X155368097Y-86750500D01*
X155601368Y-86713553D01*
X155825992Y-86640568D01*
X156036433Y-86533343D01*
X156227510Y-86394517D01*
X156394517Y-86227510D01*
X156533343Y-86036433D01*
X156640568Y-85825992D01*
X156713553Y-85601368D01*
X156750500Y-85368097D01*
X156750500Y-85131902D01*
X156713553Y-84898631D01*
X156640566Y-84674003D01*
X156553326Y-84502786D01*
X156533343Y-84463567D01*
X156394517Y-84272490D01*
X156227510Y-84105483D01*
X156036433Y-83966657D01*
X155825996Y-83859433D01*
X155601368Y-83786446D01*
X155368097Y-83749500D01*
X155368092Y-83749500D01*
X155131908Y-83749500D01*
X155131903Y-83749500D01*
X154898631Y-83786446D01*
X154674003Y-83859433D01*
X154463566Y-83966657D01*
X154354550Y-84045862D01*
X154272490Y-84105483D01*
X154272488Y-84105485D01*
X154272487Y-84105485D01*
X154105485Y-84272487D01*
X154105485Y-84272488D01*
X154105483Y-84272490D01*
X154102687Y-84276339D01*
X153966657Y-84463566D01*
X153859433Y-84674003D01*
X153786446Y-84898631D01*
X153749500Y-85131902D01*
X144282167Y-85131902D01*
X144268477Y-85045466D01*
X144263548Y-85030297D01*
X144205218Y-84850776D01*
X144171503Y-84784607D01*
X144112287Y-84668390D01*
X144104556Y-84657749D01*
X143991971Y-84502786D01*
X143847213Y-84358028D01*
X143681614Y-84237715D01*
X143675006Y-84234348D01*
X143588917Y-84190483D01*
X143538123Y-84142511D01*
X143521328Y-84074690D01*
X143543865Y-84008555D01*
X143588917Y-83969516D01*
X143681610Y-83922287D01*
X143768122Y-83859433D01*
X143847213Y-83801971D01*
X143847215Y-83801968D01*
X143847219Y-83801966D01*
X143991966Y-83657219D01*
X143991968Y-83657215D01*
X143991971Y-83657213D01*
X144044732Y-83584590D01*
X144112287Y-83491610D01*
X144205220Y-83309219D01*
X144268477Y-83114534D01*
X144300500Y-82912352D01*
X144300500Y-82707648D01*
X144268477Y-82505466D01*
X144205220Y-82310781D01*
X144205218Y-82310778D01*
X144205218Y-82310776D01*
X144171503Y-82244607D01*
X144112287Y-82128390D01*
X144104556Y-82117749D01*
X143991971Y-81962786D01*
X143847213Y-81818028D01*
X143681613Y-81697715D01*
X143681612Y-81697714D01*
X143681610Y-81697713D01*
X143624653Y-81668691D01*
X143499223Y-81604781D01*
X143304534Y-81541522D01*
X143129995Y-81513878D01*
X143102352Y-81509500D01*
X142897648Y-81509500D01*
X142873329Y-81513351D01*
X142695465Y-81541522D01*
X142500776Y-81604781D01*
X142318386Y-81697715D01*
X142152786Y-81818028D01*
X142008028Y-81962786D01*
X141887715Y-82128386D01*
X141794781Y-82310776D01*
X141731522Y-82505465D01*
X141699500Y-82707648D01*
X129060499Y-82707648D01*
X129060499Y-81962128D01*
X129054091Y-81902517D01*
X129003796Y-81767669D01*
X129003795Y-81767668D01*
X129003793Y-81767664D01*
X128917547Y-81652455D01*
X128917544Y-81652452D01*
X128802335Y-81566206D01*
X128802328Y-81566202D01*
X128667482Y-81515908D01*
X128667483Y-81515908D01*
X128607883Y-81509501D01*
X128607881Y-81509500D01*
X128607873Y-81509500D01*
X128607864Y-81509500D01*
X126912129Y-81509500D01*
X126912123Y-81509501D01*
X126852516Y-81515908D01*
X126717671Y-81566202D01*
X126717664Y-81566206D01*
X126602455Y-81652452D01*
X126602452Y-81652455D01*
X126516206Y-81767664D01*
X126516202Y-81767671D01*
X126465908Y-81902517D01*
X126459501Y-81962116D01*
X126459501Y-81962123D01*
X126459500Y-81962135D01*
X126459500Y-83657870D01*
X126459501Y-83657876D01*
X126465908Y-83717483D01*
X126516202Y-83852328D01*
X126516206Y-83852335D01*
X126602452Y-83967544D01*
X126602455Y-83967547D01*
X126717664Y-84053793D01*
X126717671Y-84053797D01*
X126762618Y-84070561D01*
X126852517Y-84104091D01*
X126889441Y-84108060D01*
X126953989Y-84134796D01*
X126993838Y-84192188D01*
X126996333Y-84262013D01*
X126960681Y-84322102D01*
X126949071Y-84331666D01*
X126912784Y-84358030D01*
X126768028Y-84502786D01*
X126647715Y-84668386D01*
X126554781Y-84850776D01*
X126491522Y-85045465D01*
X126467548Y-85196834D01*
X126459500Y-85247648D01*
X126459500Y-85452352D01*
X126462329Y-85470212D01*
X126491522Y-85654534D01*
X126554781Y-85849223D01*
X126647715Y-86031613D01*
X126768028Y-86197213D01*
X126912786Y-86341971D01*
X127067749Y-86454556D01*
X127078390Y-86462287D01*
X127169840Y-86508883D01*
X127171080Y-86509515D01*
X127221876Y-86557490D01*
X127238671Y-86625311D01*
X127216134Y-86691446D01*
X127171080Y-86730485D01*
X127078386Y-86777715D01*
X126912786Y-86898028D01*
X126768028Y-87042786D01*
X126647715Y-87208386D01*
X126554781Y-87390776D01*
X126491522Y-87585465D01*
X126459500Y-87787648D01*
X126459500Y-87992351D01*
X126491522Y-88194534D01*
X126554781Y-88389223D01*
X126647715Y-88571613D01*
X126768028Y-88737213D01*
X126912786Y-88881971D01*
X127067749Y-88994556D01*
X127078390Y-89002287D01*
X127169840Y-89048883D01*
X127171080Y-89049515D01*
X127221876Y-89097490D01*
X127238671Y-89165311D01*
X127216134Y-89231446D01*
X127171080Y-89270485D01*
X127078386Y-89317715D01*
X126912786Y-89438028D01*
X126768028Y-89582786D01*
X126647715Y-89748386D01*
X126554781Y-89930776D01*
X126491522Y-90125465D01*
X126459500Y-90327648D01*
X126459500Y-90532351D01*
X126491522Y-90734534D01*
X126554781Y-90929223D01*
X126647715Y-91111613D01*
X126768028Y-91277213D01*
X126912786Y-91421971D01*
X127067749Y-91534556D01*
X127078390Y-91542287D01*
X127169840Y-91588883D01*
X127171080Y-91589515D01*
X127221876Y-91637490D01*
X127238671Y-91705311D01*
X127216134Y-91771446D01*
X127171080Y-91810485D01*
X127078386Y-91857715D01*
X126912786Y-91978028D01*
X126768028Y-92122786D01*
X126647715Y-92288386D01*
X126554781Y-92470776D01*
X126491522Y-92665465D01*
X126459500Y-92867648D01*
X126459500Y-93072351D01*
X126491522Y-93274534D01*
X126554781Y-93469223D01*
X126618691Y-93594653D01*
X126646638Y-93649501D01*
X126647715Y-93651613D01*
X126768028Y-93817213D01*
X126912786Y-93961971D01*
X127067749Y-94074556D01*
X127078390Y-94082287D01*
X127152812Y-94120207D01*
X127171080Y-94129515D01*
X127221876Y-94177490D01*
X127238671Y-94245311D01*
X127216134Y-94311446D01*
X127171080Y-94350485D01*
X127078386Y-94397715D01*
X126912786Y-94518028D01*
X126768028Y-94662786D01*
X126647715Y-94828386D01*
X126554781Y-95010776D01*
X126491522Y-95205465D01*
X126459500Y-95407648D01*
X126459500Y-95612351D01*
X126491522Y-95814534D01*
X126554781Y-96009223D01*
X126647715Y-96191613D01*
X126768028Y-96357213D01*
X126912786Y-96501971D01*
X127067749Y-96614556D01*
X127078390Y-96622287D01*
X127169840Y-96668883D01*
X127171080Y-96669515D01*
X127221876Y-96717490D01*
X127238671Y-96785311D01*
X127216134Y-96851446D01*
X127171080Y-96890485D01*
X127078386Y-96937715D01*
X126912786Y-97058028D01*
X126768028Y-97202786D01*
X126647715Y-97368386D01*
X126554781Y-97550776D01*
X126491522Y-97745465D01*
X126459500Y-97947648D01*
X126459500Y-98152351D01*
X126491522Y-98354534D01*
X126554781Y-98549223D01*
X126647715Y-98731613D01*
X126768028Y-98897213D01*
X126912786Y-99041971D01*
X127067749Y-99154556D01*
X127078390Y-99162287D01*
X127169840Y-99208883D01*
X127171080Y-99209515D01*
X127221876Y-99257490D01*
X127238671Y-99325311D01*
X127216134Y-99391446D01*
X127171080Y-99430485D01*
X127078386Y-99477715D01*
X126912786Y-99598028D01*
X126768028Y-99742786D01*
X126647715Y-99908386D01*
X126554781Y-100090776D01*
X126491522Y-100285465D01*
X126459500Y-100487648D01*
X126459500Y-100692351D01*
X126491522Y-100894534D01*
X126554781Y-101089223D01*
X126647715Y-101271613D01*
X126768028Y-101437213D01*
X126912786Y-101581971D01*
X127053955Y-101684534D01*
X127078390Y-101702287D01*
X127169840Y-101748883D01*
X127171080Y-101749515D01*
X127221876Y-101797490D01*
X127238671Y-101865311D01*
X127216134Y-101931446D01*
X127171080Y-101970485D01*
X127078386Y-102017715D01*
X126912786Y-102138028D01*
X126768028Y-102282786D01*
X126647715Y-102448386D01*
X126554781Y-102630776D01*
X126491522Y-102825465D01*
X126459500Y-103027648D01*
X126459500Y-103232351D01*
X126491522Y-103434534D01*
X126554781Y-103629223D01*
X126647715Y-103811613D01*
X126768028Y-103977213D01*
X126912786Y-104121971D01*
X127067749Y-104234556D01*
X127078390Y-104242287D01*
X127169840Y-104288883D01*
X127171080Y-104289515D01*
X127221876Y-104337490D01*
X127238671Y-104405311D01*
X127216134Y-104471446D01*
X127171080Y-104510485D01*
X127078386Y-104557715D01*
X126912786Y-104678028D01*
X126768028Y-104822786D01*
X126647715Y-104988386D01*
X126554781Y-105170776D01*
X126491522Y-105365465D01*
X126459500Y-105567648D01*
X126459500Y-105772351D01*
X126491522Y-105974534D01*
X126554781Y-106169223D01*
X126647715Y-106351613D01*
X126768028Y-106517213D01*
X126912786Y-106661971D01*
X127067749Y-106774556D01*
X127078390Y-106782287D01*
X127169840Y-106828883D01*
X127171080Y-106829515D01*
X127221876Y-106877490D01*
X127238671Y-106945311D01*
X127216134Y-107011446D01*
X127171080Y-107050485D01*
X127078386Y-107097715D01*
X126912786Y-107218028D01*
X126768028Y-107362786D01*
X126647715Y-107528386D01*
X126554781Y-107710776D01*
X126491522Y-107905465D01*
X126459500Y-108107648D01*
X126459500Y-108312351D01*
X126491522Y-108514534D01*
X126554781Y-108709223D01*
X126647715Y-108891613D01*
X126768028Y-109057213D01*
X126912786Y-109201971D01*
X127067749Y-109314556D01*
X127078390Y-109322287D01*
X127169840Y-109368883D01*
X127171080Y-109369515D01*
X127221876Y-109417490D01*
X127238671Y-109485311D01*
X127216134Y-109551446D01*
X127171080Y-109590485D01*
X127078386Y-109637715D01*
X126912786Y-109758028D01*
X126768028Y-109902786D01*
X126647715Y-110068386D01*
X126554781Y-110250776D01*
X126491522Y-110445465D01*
X126459500Y-110647648D01*
X126459500Y-110852351D01*
X126491522Y-111054534D01*
X126554781Y-111249223D01*
X126647715Y-111431613D01*
X126768028Y-111597213D01*
X126912786Y-111741971D01*
X127067749Y-111854556D01*
X127078390Y-111862287D01*
X127169840Y-111908883D01*
X127171080Y-111909515D01*
X127221876Y-111957490D01*
X127238671Y-112025311D01*
X127216134Y-112091446D01*
X127171080Y-112130485D01*
X127078386Y-112177715D01*
X126912786Y-112298028D01*
X126768028Y-112442786D01*
X126647715Y-112608386D01*
X126554781Y-112790776D01*
X126491522Y-112985465D01*
X126459500Y-113187648D01*
X126459500Y-113392351D01*
X126491522Y-113594534D01*
X126554781Y-113789223D01*
X126647715Y-113971613D01*
X126768028Y-114137213D01*
X126912786Y-114281971D01*
X127067749Y-114394556D01*
X127078390Y-114402287D01*
X127169840Y-114448883D01*
X127171080Y-114449515D01*
X127221876Y-114497490D01*
X127238671Y-114565311D01*
X127216134Y-114631446D01*
X127171080Y-114670485D01*
X127078386Y-114717715D01*
X126912786Y-114838028D01*
X126768028Y-114982786D01*
X126647715Y-115148386D01*
X126554781Y-115330776D01*
X126491522Y-115525465D01*
X126459500Y-115727648D01*
X126459500Y-115932351D01*
X126491523Y-116134535D01*
X126491523Y-116134538D01*
X126554118Y-116327182D01*
X126556113Y-116397023D01*
X126520033Y-116456856D01*
X126457332Y-116487684D01*
X126436187Y-116489500D01*
X124450943Y-116489500D01*
X124298213Y-116530423D01*
X124254840Y-116555466D01*
X124254839Y-116555466D01*
X124161287Y-116609477D01*
X124161282Y-116609481D01*
X124049478Y-116721286D01*
X119104522Y-121666241D01*
X119043199Y-121699726D01*
X118978523Y-121696491D01*
X118936245Y-121682754D01*
X118796272Y-121660584D01*
X118726287Y-121649500D01*
X118513713Y-121649500D01*
X118465042Y-121657208D01*
X118303760Y-121682753D01*
X118101582Y-121748445D01*
X117950794Y-121825275D01*
X117882125Y-121838171D01*
X117817385Y-121811894D01*
X117777128Y-121754788D01*
X117770500Y-121714790D01*
X117770500Y-117849601D01*
X117790185Y-117782562D01*
X117838206Y-117739116D01*
X117851610Y-117732287D01*
X118017219Y-117611966D01*
X118161966Y-117467219D01*
X118161968Y-117467215D01*
X118161971Y-117467213D01*
X118226762Y-117378034D01*
X118282287Y-117301610D01*
X118375220Y-117119219D01*
X118438477Y-116924534D01*
X118470500Y-116722352D01*
X118470500Y-116517648D01*
X118438600Y-116316243D01*
X118438477Y-116315465D01*
X118379689Y-116134535D01*
X118375220Y-116120781D01*
X118375218Y-116120778D01*
X118375218Y-116120776D01*
X118339476Y-116050629D01*
X118282287Y-115938390D01*
X118231171Y-115868034D01*
X118161971Y-115772786D01*
X118017213Y-115628028D01*
X117851613Y-115507715D01*
X117851612Y-115507714D01*
X117851610Y-115507713D01*
X117794653Y-115478691D01*
X117669223Y-115414781D01*
X117474534Y-115351522D01*
X117299995Y-115323878D01*
X117272352Y-115319500D01*
X117067648Y-115319500D01*
X117043329Y-115323351D01*
X116865465Y-115351522D01*
X116670776Y-115414781D01*
X116488386Y-115507715D01*
X116322786Y-115628028D01*
X116178028Y-115772786D01*
X116057715Y-115938386D01*
X115964781Y-116120776D01*
X115901522Y-116315465D01*
X115869500Y-116517648D01*
X115869500Y-116722351D01*
X115901522Y-116924534D01*
X115964781Y-117119223D01*
X116057715Y-117301613D01*
X116178028Y-117467213D01*
X116178034Y-117467219D01*
X116322781Y-117611966D01*
X116488390Y-117732287D01*
X116501793Y-117739116D01*
X116552589Y-117787088D01*
X116569500Y-117849601D01*
X116569500Y-121568376D01*
X116549815Y-121635415D01*
X116497011Y-121681170D01*
X116427853Y-121691114D01*
X116407186Y-121686308D01*
X116396253Y-121682756D01*
X116396244Y-121682754D01*
X116260561Y-121661264D01*
X116186287Y-121649500D01*
X115973713Y-121649500D01*
X115925042Y-121657208D01*
X115763760Y-121682753D01*
X115561585Y-121748444D01*
X115372179Y-121844951D01*
X115200213Y-121969890D01*
X115049890Y-122120213D01*
X114924949Y-122292182D01*
X114920484Y-122300946D01*
X114872509Y-122351742D01*
X114804688Y-122368536D01*
X114738553Y-122345998D01*
X114699516Y-122300946D01*
X114695050Y-122292182D01*
X114570109Y-122120213D01*
X114419786Y-121969890D01*
X114247820Y-121844951D01*
X114058414Y-121748444D01*
X114058413Y-121748443D01*
X114058412Y-121748443D01*
X113856243Y-121682754D01*
X113856241Y-121682753D01*
X113856240Y-121682753D01*
X113694957Y-121657208D01*
X113646287Y-121649500D01*
X113433713Y-121649500D01*
X113405006Y-121654046D01*
X113223757Y-121682753D01*
X113181473Y-121696492D01*
X113111632Y-121698486D01*
X113055476Y-121666241D01*
X109806819Y-118417584D01*
X109773334Y-118356261D01*
X109770500Y-118329903D01*
X109770500Y-117849601D01*
X109790185Y-117782562D01*
X109838206Y-117739116D01*
X109851610Y-117732287D01*
X110017219Y-117611966D01*
X110161966Y-117467219D01*
X110161968Y-117467215D01*
X110161971Y-117467213D01*
X110226762Y-117378034D01*
X110282287Y-117301610D01*
X110375220Y-117119219D01*
X110438477Y-116924534D01*
X110470500Y-116722352D01*
X110470500Y-116517648D01*
X110438600Y-116316243D01*
X110438477Y-116315465D01*
X110379689Y-116134535D01*
X110375220Y-116120781D01*
X110375218Y-116120778D01*
X110375218Y-116120776D01*
X110339476Y-116050629D01*
X110282287Y-115938390D01*
X110231171Y-115868034D01*
X110161971Y-115772786D01*
X110017213Y-115628028D01*
X109851613Y-115507715D01*
X109851612Y-115507714D01*
X109851610Y-115507713D01*
X109794653Y-115478691D01*
X109669223Y-115414781D01*
X109474534Y-115351522D01*
X109299995Y-115323878D01*
X109272352Y-115319500D01*
X109067648Y-115319500D01*
X109043329Y-115323351D01*
X108865465Y-115351522D01*
X108670776Y-115414781D01*
X108488386Y-115507715D01*
X108322786Y-115628028D01*
X108178028Y-115772786D01*
X108057715Y-115938386D01*
X107964781Y-116120776D01*
X107901522Y-116315465D01*
X107869500Y-116517648D01*
X103256189Y-116517648D01*
X103219029Y-116403281D01*
X103205220Y-116360781D01*
X103205218Y-116360778D01*
X103205218Y-116360776D01*
X103171503Y-116294607D01*
X103112287Y-116178390D01*
X103070432Y-116120781D01*
X102991971Y-116012786D01*
X102847213Y-115868028D01*
X102681613Y-115747715D01*
X102681612Y-115747714D01*
X102681610Y-115747713D01*
X102624653Y-115718691D01*
X102499223Y-115654781D01*
X102304534Y-115591522D01*
X102129995Y-115563878D01*
X102102352Y-115559500D01*
X101897648Y-115559500D01*
X101873329Y-115563351D01*
X101695465Y-115591522D01*
X101500776Y-115654781D01*
X101318386Y-115747715D01*
X101152786Y-115868028D01*
X101008028Y-116012786D01*
X100887715Y-116178386D01*
X100794781Y-116360776D01*
X100731522Y-116555465D01*
X100699500Y-116757648D01*
X100699500Y-116962351D01*
X100731522Y-117164534D01*
X100794781Y-117359223D01*
X100887715Y-117541613D01*
X101008028Y-117707213D01*
X101008034Y-117707219D01*
X101152781Y-117851966D01*
X101318390Y-117972287D01*
X101331793Y-117979116D01*
X101382589Y-118027088D01*
X101399500Y-118089601D01*
X101399500Y-120239902D01*
X101379815Y-120306941D01*
X101363181Y-120327583D01*
X100024522Y-121666241D01*
X99963199Y-121699726D01*
X99898523Y-121696491D01*
X99856245Y-121682754D01*
X99716272Y-121660584D01*
X99646287Y-121649500D01*
X99433713Y-121649500D01*
X99385042Y-121657208D01*
X99223760Y-121682753D01*
X99021585Y-121748444D01*
X98832179Y-121844951D01*
X98660213Y-121969890D01*
X98509890Y-122120213D01*
X98384949Y-122292182D01*
X98380484Y-122300946D01*
X98332509Y-122351742D01*
X98264688Y-122368536D01*
X98198553Y-122345998D01*
X98159516Y-122300946D01*
X98155050Y-122292182D01*
X98030109Y-122120213D01*
X97879786Y-121969890D01*
X97707820Y-121844951D01*
X97518414Y-121748444D01*
X97518413Y-121748443D01*
X97518412Y-121748443D01*
X97316243Y-121682754D01*
X97316241Y-121682753D01*
X97316240Y-121682753D01*
X97154957Y-121657208D01*
X97106287Y-121649500D01*
X96893713Y-121649500D01*
X96865006Y-121654046D01*
X96683757Y-121682753D01*
X96641473Y-121696492D01*
X96571632Y-121698486D01*
X96515476Y-121666241D01*
X94806819Y-119957584D01*
X94773334Y-119896261D01*
X94770500Y-119869903D01*
X94770500Y-117849601D01*
X94790185Y-117782562D01*
X94838206Y-117739116D01*
X94851610Y-117732287D01*
X95017219Y-117611966D01*
X95161966Y-117467219D01*
X95161968Y-117467215D01*
X95161971Y-117467213D01*
X95226762Y-117378034D01*
X95282287Y-117301610D01*
X95375220Y-117119219D01*
X95438477Y-116924534D01*
X95470500Y-116722352D01*
X95470500Y-116517648D01*
X95438600Y-116316243D01*
X95438477Y-116315465D01*
X95379689Y-116134535D01*
X95375220Y-116120781D01*
X95375218Y-116120778D01*
X95375218Y-116120776D01*
X95339476Y-116050629D01*
X95282287Y-115938390D01*
X95231171Y-115868034D01*
X95161971Y-115772786D01*
X95017213Y-115628028D01*
X94851613Y-115507715D01*
X94851612Y-115507714D01*
X94851610Y-115507713D01*
X94794653Y-115478691D01*
X94669223Y-115414781D01*
X94474534Y-115351522D01*
X94299995Y-115323878D01*
X94272352Y-115319500D01*
X94067648Y-115319500D01*
X94043329Y-115323351D01*
X93865465Y-115351522D01*
X93670776Y-115414781D01*
X93488386Y-115507715D01*
X93322786Y-115628028D01*
X93178028Y-115772786D01*
X93057715Y-115938386D01*
X92964781Y-116120776D01*
X92901522Y-116315465D01*
X92869500Y-116517648D01*
X89500500Y-116517648D01*
X89500500Y-92897648D01*
X92869500Y-92897648D01*
X92869500Y-93102351D01*
X92901522Y-93304534D01*
X92964781Y-93499223D01*
X93057715Y-93681613D01*
X93178028Y-93847213D01*
X93322782Y-93991967D01*
X93322787Y-93991971D01*
X93378640Y-94032551D01*
X93421306Y-94087881D01*
X93427285Y-94157494D01*
X93394679Y-94219289D01*
X93344761Y-94250574D01*
X93300669Y-94265185D01*
X93300666Y-94265186D01*
X93300663Y-94265187D01*
X93151342Y-94357289D01*
X93027289Y-94481342D01*
X92935187Y-94630663D01*
X92935186Y-94630666D01*
X92880001Y-94797203D01*
X92880001Y-94797204D01*
X92880000Y-94797204D01*
X92869500Y-94899983D01*
X92869500Y-96100001D01*
X92869501Y-96100018D01*
X92880000Y-96202796D01*
X92880001Y-96202799D01*
X92896158Y-96251557D01*
X92935186Y-96369334D01*
X93027288Y-96518656D01*
X93151344Y-96642712D01*
X93300666Y-96734814D01*
X93467203Y-96789999D01*
X93467209Y-96789999D01*
X93471448Y-96790907D01*
X93532884Y-96824185D01*
X93566576Y-96885394D01*
X93569500Y-96912162D01*
X93569500Y-100150397D01*
X93549815Y-100217436D01*
X93501800Y-100260879D01*
X93488389Y-100267712D01*
X93322786Y-100388028D01*
X93178028Y-100532786D01*
X93057715Y-100698386D01*
X92964781Y-100880776D01*
X92901522Y-101075465D01*
X92869500Y-101277648D01*
X92869500Y-101482351D01*
X92901522Y-101684534D01*
X92964781Y-101879223D01*
X93057715Y-102061613D01*
X93178028Y-102227213D01*
X93322786Y-102371971D01*
X93477749Y-102484556D01*
X93488390Y-102492287D01*
X93604607Y-102551503D01*
X93670776Y-102585218D01*
X93670778Y-102585218D01*
X93670781Y-102585220D01*
X93753097Y-102611966D01*
X93865465Y-102648477D01*
X93966557Y-102664488D01*
X94067648Y-102680500D01*
X94067649Y-102680500D01*
X94272351Y-102680500D01*
X94272352Y-102680500D01*
X94474534Y-102648477D01*
X94669219Y-102585220D01*
X94851610Y-102492287D01*
X94944590Y-102424732D01*
X95017213Y-102371971D01*
X95017215Y-102371968D01*
X95017219Y-102371966D01*
X95161966Y-102227219D01*
X95161968Y-102227215D01*
X95161971Y-102227213D01*
X95226762Y-102138034D01*
X95282287Y-102061610D01*
X95375220Y-101879219D01*
X95438477Y-101684534D01*
X95470500Y-101482352D01*
X95470500Y-101277648D01*
X95445564Y-101120208D01*
X95438477Y-101075465D01*
X95393937Y-100938386D01*
X95375220Y-100880781D01*
X95375218Y-100880778D01*
X95375218Y-100880776D01*
X95341503Y-100814607D01*
X95282287Y-100698390D01*
X95251423Y-100655909D01*
X95161971Y-100532786D01*
X95017213Y-100388028D01*
X94851610Y-100267712D01*
X94838200Y-100260879D01*
X94787406Y-100212903D01*
X94770500Y-100150397D01*
X94770500Y-96912162D01*
X94790185Y-96845123D01*
X94842989Y-96799368D01*
X94868552Y-96790907D01*
X94872788Y-96789999D01*
X94872797Y-96789999D01*
X95039334Y-96734814D01*
X95188656Y-96642712D01*
X95312712Y-96518656D01*
X95404814Y-96369334D01*
X95459999Y-96202797D01*
X95470500Y-96100009D01*
X95470499Y-94899992D01*
X95459999Y-94797203D01*
X95404814Y-94630666D01*
X95312712Y-94481344D01*
X95188656Y-94357288D01*
X95039334Y-94265186D01*
X94995239Y-94250574D01*
X94937795Y-94210802D01*
X94910972Y-94146286D01*
X94923287Y-94077510D01*
X94961359Y-94032550D01*
X95017219Y-93991966D01*
X95161966Y-93847219D01*
X95161968Y-93847215D01*
X95161971Y-93847213D01*
X95214732Y-93774590D01*
X95282287Y-93681610D01*
X95375220Y-93499219D01*
X95438477Y-93304534D01*
X95470500Y-93102352D01*
X95470500Y-92897648D01*
X100699500Y-92897648D01*
X100699500Y-93102351D01*
X100731522Y-93304534D01*
X100794781Y-93499223D01*
X100887715Y-93681613D01*
X101008028Y-93847213D01*
X101152782Y-93991967D01*
X101152787Y-93991971D01*
X101208640Y-94032551D01*
X101251306Y-94087881D01*
X101257285Y-94157494D01*
X101224679Y-94219289D01*
X101174761Y-94250574D01*
X101130669Y-94265185D01*
X101130666Y-94265186D01*
X101130663Y-94265187D01*
X100981342Y-94357289D01*
X100857289Y-94481342D01*
X100765187Y-94630663D01*
X100765186Y-94630666D01*
X100710001Y-94797203D01*
X100710001Y-94797204D01*
X100710000Y-94797204D01*
X100699500Y-94899983D01*
X100699500Y-96100001D01*
X100699501Y-96100018D01*
X100710000Y-96202796D01*
X100710001Y-96202799D01*
X100726158Y-96251557D01*
X100765186Y-96369334D01*
X100857288Y-96518656D01*
X100981344Y-96642712D01*
X101130666Y-96734814D01*
X101297203Y-96789999D01*
X101297209Y-96789999D01*
X101301448Y-96790907D01*
X101362884Y-96824185D01*
X101396576Y-96885394D01*
X101399500Y-96912162D01*
X101399500Y-100390397D01*
X101379815Y-100457436D01*
X101331800Y-100500879D01*
X101318389Y-100507712D01*
X101152786Y-100628028D01*
X101008028Y-100772786D01*
X100887715Y-100938386D01*
X100794781Y-101120776D01*
X100731522Y-101315465D01*
X100699500Y-101517648D01*
X100699500Y-101722351D01*
X100731522Y-101924534D01*
X100794781Y-102119223D01*
X100887715Y-102301613D01*
X101008028Y-102467213D01*
X101152786Y-102611971D01*
X101284708Y-102707816D01*
X101318390Y-102732287D01*
X101434607Y-102791503D01*
X101500776Y-102825218D01*
X101500778Y-102825218D01*
X101500781Y-102825220D01*
X101605137Y-102859127D01*
X101695465Y-102888477D01*
X101754789Y-102897873D01*
X101897648Y-102920500D01*
X101897649Y-102920500D01*
X102102351Y-102920500D01*
X102102352Y-102920500D01*
X102304534Y-102888477D01*
X102499219Y-102825220D01*
X102681610Y-102732287D01*
X102774590Y-102664732D01*
X102847213Y-102611971D01*
X102847215Y-102611968D01*
X102847219Y-102611966D01*
X102991966Y-102467219D01*
X102991968Y-102467215D01*
X102991971Y-102467213D01*
X103061171Y-102371966D01*
X103112287Y-102301610D01*
X103205220Y-102119219D01*
X103268477Y-101924534D01*
X103300500Y-101722352D01*
X103300500Y-101517648D01*
X103268477Y-101315466D01*
X103205220Y-101120781D01*
X103205218Y-101120778D01*
X103205218Y-101120776D01*
X103134054Y-100981111D01*
X103112287Y-100938390D01*
X103089967Y-100907669D01*
X102991971Y-100772786D01*
X102847213Y-100628028D01*
X102681610Y-100507712D01*
X102668200Y-100500879D01*
X102617406Y-100452903D01*
X102600500Y-100390397D01*
X102600500Y-96912162D01*
X102620185Y-96845123D01*
X102672989Y-96799368D01*
X102698552Y-96790907D01*
X102702788Y-96789999D01*
X102702797Y-96789999D01*
X102869334Y-96734814D01*
X103018656Y-96642712D01*
X103142712Y-96518656D01*
X103234814Y-96369334D01*
X103289999Y-96202797D01*
X103300500Y-96100009D01*
X103300499Y-94899992D01*
X103289999Y-94797203D01*
X103234814Y-94630666D01*
X103142712Y-94481344D01*
X103018656Y-94357288D01*
X102869334Y-94265186D01*
X102825239Y-94250574D01*
X102767795Y-94210802D01*
X102740972Y-94146286D01*
X102753287Y-94077510D01*
X102791359Y-94032550D01*
X102847219Y-93991966D01*
X102991966Y-93847219D01*
X102991968Y-93847215D01*
X102991971Y-93847213D01*
X103044732Y-93774590D01*
X103112287Y-93681610D01*
X103205220Y-93499219D01*
X103268477Y-93304534D01*
X103300500Y-93102352D01*
X103300500Y-92897648D01*
X107869500Y-92897648D01*
X107869500Y-93102351D01*
X107901522Y-93304534D01*
X107964781Y-93499223D01*
X108057715Y-93681613D01*
X108178028Y-93847213D01*
X108322782Y-93991967D01*
X108322787Y-93991971D01*
X108378640Y-94032551D01*
X108421306Y-94087881D01*
X108427285Y-94157494D01*
X108394679Y-94219289D01*
X108344761Y-94250574D01*
X108300669Y-94265185D01*
X108300666Y-94265186D01*
X108300663Y-94265187D01*
X108151342Y-94357289D01*
X108027289Y-94481342D01*
X107935187Y-94630663D01*
X107935186Y-94630666D01*
X107880001Y-94797203D01*
X107880001Y-94797204D01*
X107880000Y-94797204D01*
X107869500Y-94899983D01*
X107869500Y-96100001D01*
X107869501Y-96100018D01*
X107880000Y-96202796D01*
X107880001Y-96202799D01*
X107896158Y-96251557D01*
X107935186Y-96369334D01*
X108027288Y-96518656D01*
X108151344Y-96642712D01*
X108300666Y-96734814D01*
X108467203Y-96789999D01*
X108467209Y-96789999D01*
X108471448Y-96790907D01*
X108532884Y-96824185D01*
X108566576Y-96885394D01*
X108569500Y-96912162D01*
X108569500Y-100150397D01*
X108549815Y-100217436D01*
X108501800Y-100260879D01*
X108488389Y-100267712D01*
X108322786Y-100388028D01*
X108178028Y-100532786D01*
X108057715Y-100698386D01*
X107964781Y-100880776D01*
X107901522Y-101075465D01*
X107869500Y-101277648D01*
X107869500Y-101482351D01*
X107901522Y-101684534D01*
X107964781Y-101879223D01*
X108057715Y-102061613D01*
X108178028Y-102227213D01*
X108322786Y-102371971D01*
X108477749Y-102484556D01*
X108488390Y-102492287D01*
X108604607Y-102551503D01*
X108670776Y-102585218D01*
X108670778Y-102585218D01*
X108670781Y-102585220D01*
X108753097Y-102611966D01*
X108865465Y-102648477D01*
X108966557Y-102664488D01*
X109067648Y-102680500D01*
X109067649Y-102680500D01*
X109272351Y-102680500D01*
X109272352Y-102680500D01*
X109474534Y-102648477D01*
X109669219Y-102585220D01*
X109851610Y-102492287D01*
X109944590Y-102424732D01*
X110017213Y-102371971D01*
X110017215Y-102371968D01*
X110017219Y-102371966D01*
X110161966Y-102227219D01*
X110161968Y-102227215D01*
X110161971Y-102227213D01*
X110226762Y-102138034D01*
X110282287Y-102061610D01*
X110375220Y-101879219D01*
X110438477Y-101684534D01*
X110470500Y-101482352D01*
X110470500Y-101277648D01*
X110445564Y-101120208D01*
X110438477Y-101075465D01*
X110393937Y-100938386D01*
X110375220Y-100880781D01*
X110375218Y-100880778D01*
X110375218Y-100880776D01*
X110341503Y-100814607D01*
X110282287Y-100698390D01*
X110251423Y-100655909D01*
X110161971Y-100532786D01*
X110017213Y-100388028D01*
X109851610Y-100267712D01*
X109838200Y-100260879D01*
X109787406Y-100212903D01*
X109770500Y-100150397D01*
X109770500Y-96912162D01*
X109790185Y-96845123D01*
X109842989Y-96799368D01*
X109868552Y-96790907D01*
X109872788Y-96789999D01*
X109872797Y-96789999D01*
X110039334Y-96734814D01*
X110188656Y-96642712D01*
X110312712Y-96518656D01*
X110404814Y-96369334D01*
X110459999Y-96202797D01*
X110470500Y-96100009D01*
X110470499Y-94899992D01*
X110459999Y-94797203D01*
X110404814Y-94630666D01*
X110312712Y-94481344D01*
X110188656Y-94357288D01*
X110039334Y-94265186D01*
X109995239Y-94250574D01*
X109937795Y-94210802D01*
X109910972Y-94146286D01*
X109923287Y-94077510D01*
X109961359Y-94032550D01*
X110017219Y-93991966D01*
X110161966Y-93847219D01*
X110161968Y-93847215D01*
X110161971Y-93847213D01*
X110214732Y-93774590D01*
X110282287Y-93681610D01*
X110375220Y-93499219D01*
X110438477Y-93304534D01*
X110470500Y-93102352D01*
X110470500Y-92897648D01*
X115869500Y-92897648D01*
X115869500Y-93102351D01*
X115901522Y-93304534D01*
X115964781Y-93499223D01*
X116057715Y-93681613D01*
X116178028Y-93847213D01*
X116322782Y-93991967D01*
X116322787Y-93991971D01*
X116378640Y-94032551D01*
X116421306Y-94087881D01*
X116427285Y-94157494D01*
X116394679Y-94219289D01*
X116344761Y-94250574D01*
X116300669Y-94265185D01*
X116300666Y-94265186D01*
X116300663Y-94265187D01*
X116151342Y-94357289D01*
X116027289Y-94481342D01*
X115935187Y-94630663D01*
X115935186Y-94630666D01*
X115880001Y-94797203D01*
X115880001Y-94797204D01*
X115880000Y-94797204D01*
X115869500Y-94899983D01*
X115869500Y-96100001D01*
X115869501Y-96100018D01*
X115880000Y-96202796D01*
X115880001Y-96202799D01*
X115896158Y-96251557D01*
X115935186Y-96369334D01*
X116027288Y-96518656D01*
X116151344Y-96642712D01*
X116300666Y-96734814D01*
X116467203Y-96789999D01*
X116467209Y-96789999D01*
X116471448Y-96790907D01*
X116532884Y-96824185D01*
X116566576Y-96885394D01*
X116569500Y-96912162D01*
X116569500Y-100150397D01*
X116549815Y-100217436D01*
X116501800Y-100260879D01*
X116488389Y-100267712D01*
X116322786Y-100388028D01*
X116178028Y-100532786D01*
X116057715Y-100698386D01*
X115964781Y-100880776D01*
X115901522Y-101075465D01*
X115869500Y-101277648D01*
X115869500Y-101482351D01*
X115901522Y-101684534D01*
X115964781Y-101879223D01*
X116057715Y-102061613D01*
X116178028Y-102227213D01*
X116322786Y-102371971D01*
X116477749Y-102484556D01*
X116488390Y-102492287D01*
X116604607Y-102551503D01*
X116670776Y-102585218D01*
X116670778Y-102585218D01*
X116670781Y-102585220D01*
X116753097Y-102611966D01*
X116865465Y-102648477D01*
X116966557Y-102664488D01*
X117067648Y-102680500D01*
X117067649Y-102680500D01*
X117272351Y-102680500D01*
X117272352Y-102680500D01*
X117474534Y-102648477D01*
X117669219Y-102585220D01*
X117851610Y-102492287D01*
X117944590Y-102424732D01*
X118017213Y-102371971D01*
X118017215Y-102371968D01*
X118017219Y-102371966D01*
X118161966Y-102227219D01*
X118161968Y-102227215D01*
X118161971Y-102227213D01*
X118226762Y-102138034D01*
X118282287Y-102061610D01*
X118375220Y-101879219D01*
X118438477Y-101684534D01*
X118470500Y-101482352D01*
X118470500Y-101277648D01*
X118445564Y-101120208D01*
X118438477Y-101075465D01*
X118393937Y-100938386D01*
X118375220Y-100880781D01*
X118375218Y-100880778D01*
X118375218Y-100880776D01*
X118341503Y-100814607D01*
X118282287Y-100698390D01*
X118251423Y-100655909D01*
X118161971Y-100532786D01*
X118017213Y-100388028D01*
X117851610Y-100267712D01*
X117838200Y-100260879D01*
X117787406Y-100212903D01*
X117770500Y-100150397D01*
X117770500Y-96912162D01*
X117790185Y-96845123D01*
X117842989Y-96799368D01*
X117868552Y-96790907D01*
X117872788Y-96789999D01*
X117872797Y-96789999D01*
X118039334Y-96734814D01*
X118188656Y-96642712D01*
X118312712Y-96518656D01*
X118404814Y-96369334D01*
X118459999Y-96202797D01*
X118470500Y-96100009D01*
X118470499Y-94899992D01*
X118459999Y-94797203D01*
X118404814Y-94630666D01*
X118312712Y-94481344D01*
X118188656Y-94357288D01*
X118039334Y-94265186D01*
X117995239Y-94250574D01*
X117937795Y-94210802D01*
X117910972Y-94146286D01*
X117923287Y-94077510D01*
X117961359Y-94032550D01*
X118017219Y-93991966D01*
X118161966Y-93847219D01*
X118161968Y-93847215D01*
X118161971Y-93847213D01*
X118214732Y-93774590D01*
X118282287Y-93681610D01*
X118375220Y-93499219D01*
X118438477Y-93304534D01*
X118470500Y-93102352D01*
X118470500Y-92897648D01*
X118438477Y-92695466D01*
X118428729Y-92665466D01*
X118375218Y-92500776D01*
X118341503Y-92434607D01*
X118282287Y-92318390D01*
X118260488Y-92288386D01*
X118161971Y-92152786D01*
X118017213Y-92008028D01*
X117851613Y-91887715D01*
X117851612Y-91887714D01*
X117851610Y-91887713D01*
X117792732Y-91857713D01*
X117669223Y-91794781D01*
X117474534Y-91731522D01*
X117299995Y-91703878D01*
X117272352Y-91699500D01*
X117067648Y-91699500D01*
X117043329Y-91703351D01*
X116865465Y-91731522D01*
X116670776Y-91794781D01*
X116488386Y-91887715D01*
X116322786Y-92008028D01*
X116178028Y-92152786D01*
X116057715Y-92318386D01*
X115964781Y-92500776D01*
X115901522Y-92695465D01*
X115869500Y-92897648D01*
X110470500Y-92897648D01*
X110438477Y-92695466D01*
X110428729Y-92665466D01*
X110375218Y-92500776D01*
X110341503Y-92434607D01*
X110282287Y-92318390D01*
X110260488Y-92288386D01*
X110161971Y-92152786D01*
X110017213Y-92008028D01*
X109851613Y-91887715D01*
X109851612Y-91887714D01*
X109851610Y-91887713D01*
X109792732Y-91857713D01*
X109669223Y-91794781D01*
X109474534Y-91731522D01*
X109299995Y-91703878D01*
X109272352Y-91699500D01*
X109067648Y-91699500D01*
X109043329Y-91703351D01*
X108865465Y-91731522D01*
X108670776Y-91794781D01*
X108488386Y-91887715D01*
X108322786Y-92008028D01*
X108178028Y-92152786D01*
X108057715Y-92318386D01*
X107964781Y-92500776D01*
X107901522Y-92695465D01*
X107869500Y-92897648D01*
X103300500Y-92897648D01*
X103268477Y-92695466D01*
X103258729Y-92665466D01*
X103205218Y-92500776D01*
X103171503Y-92434607D01*
X103112287Y-92318390D01*
X103090488Y-92288386D01*
X102991971Y-92152786D01*
X102847213Y-92008028D01*
X102681613Y-91887715D01*
X102681612Y-91887714D01*
X102681610Y-91887713D01*
X102622732Y-91857713D01*
X102499223Y-91794781D01*
X102304534Y-91731522D01*
X102129995Y-91703878D01*
X102102352Y-91699500D01*
X101897648Y-91699500D01*
X101873329Y-91703351D01*
X101695465Y-91731522D01*
X101500776Y-91794781D01*
X101318386Y-91887715D01*
X101152786Y-92008028D01*
X101008028Y-92152786D01*
X100887715Y-92318386D01*
X100794781Y-92500776D01*
X100731522Y-92695465D01*
X100699500Y-92897648D01*
X95470500Y-92897648D01*
X95438477Y-92695466D01*
X95428729Y-92665466D01*
X95375218Y-92500776D01*
X95341503Y-92434607D01*
X95282287Y-92318390D01*
X95260488Y-92288386D01*
X95161971Y-92152786D01*
X95017213Y-92008028D01*
X94851613Y-91887715D01*
X94851612Y-91887714D01*
X94851610Y-91887713D01*
X94792732Y-91857713D01*
X94669223Y-91794781D01*
X94474534Y-91731522D01*
X94299995Y-91703878D01*
X94272352Y-91699500D01*
X94067648Y-91699500D01*
X94043329Y-91703351D01*
X93865465Y-91731522D01*
X93670776Y-91794781D01*
X93488386Y-91887715D01*
X93322786Y-92008028D01*
X93178028Y-92152786D01*
X93057715Y-92318386D01*
X92964781Y-92500776D01*
X92901522Y-92695465D01*
X92869500Y-92897648D01*
X89500500Y-92897648D01*
X89500500Y-90624500D01*
X89520185Y-90557461D01*
X89572989Y-90511706D01*
X89624500Y-90500500D01*
X108065890Y-90500500D01*
X108065892Y-90500500D01*
X108193186Y-90466392D01*
X108307314Y-90400500D01*
X108400500Y-90307314D01*
X108466392Y-90193186D01*
X108500500Y-90065892D01*
X108500500Y-82727483D01*
X115744500Y-82727483D01*
X115744500Y-84927501D01*
X115744501Y-84927518D01*
X115755000Y-85030296D01*
X115755001Y-85030299D01*
X115793485Y-85146434D01*
X115810186Y-85196834D01*
X115902288Y-85346156D01*
X116026344Y-85470212D01*
X116175666Y-85562314D01*
X116342203Y-85617499D01*
X116444991Y-85628000D01*
X118645008Y-85627999D01*
X118747797Y-85617499D01*
X118914334Y-85562314D01*
X119063656Y-85470212D01*
X119187712Y-85346156D01*
X119279814Y-85196834D01*
X119334999Y-85030297D01*
X119345500Y-84927509D01*
X119345499Y-82727492D01*
X119334999Y-82624703D01*
X119279814Y-82458166D01*
X119187712Y-82308844D01*
X119063656Y-82184788D01*
X118914334Y-82092686D01*
X118747797Y-82037501D01*
X118747795Y-82037500D01*
X118645010Y-82027000D01*
X116444998Y-82027000D01*
X116444981Y-82027001D01*
X116342203Y-82037500D01*
X116342200Y-82037501D01*
X116175668Y-82092685D01*
X116175663Y-82092687D01*
X116026342Y-82184789D01*
X115902289Y-82308842D01*
X115810187Y-82458163D01*
X115810185Y-82458168D01*
X115794512Y-82505466D01*
X115755001Y-82624703D01*
X115755001Y-82624704D01*
X115755000Y-82624704D01*
X115744500Y-82727483D01*
X108500500Y-82727483D01*
X108500500Y-77624500D01*
X108520185Y-77557461D01*
X108572989Y-77511706D01*
X108624500Y-77500500D01*
X158125500Y-77500500D01*
X158192539Y-77520185D01*
G37*
%TD.AperFunction*%
%TD*%
M02*
