%TF.GenerationSoftware,KiCad,Pcbnew,10.0.6*%
%TF.CreationDate,2026-09-06T22:11:13-04:00*%
%TF.ProjectId,ArmPCB_v1,41726d50-4342-45f7-9631-2e6b69636164,rev?*%
%TF.SameCoordinates,Original*%
%TF.FileFunction,Legend,Top*%
%TF.FilePolarity,Positive*%
%FSLAX46Y46*%
G04 Gerber Fmt 4.6, Leading zero omitted, Abs format (unit mm)*
G04 Created by KiCad (PCBNEW 10.0.6) date 2026-09-06 22:11:13*
%MOMM*%
%LPD*%
G01*
G04 APERTURE LIST*
%ADD10C,0.150000*%
%ADD11C,0.120000*%
G04 APERTURE END LIST*
D10*
X152376666Y-119744819D02*
X152376666Y-120459104D01*
X152376666Y-120459104D02*
X152329047Y-120601961D01*
X152329047Y-120601961D02*
X152233809Y-120697200D01*
X152233809Y-120697200D02*
X152090952Y-120744819D01*
X152090952Y-120744819D02*
X151995714Y-120744819D01*
X152757619Y-119744819D02*
X153424285Y-119744819D01*
X153424285Y-119744819D02*
X152995714Y-120744819D01*
X105144819Y-123333333D02*
X105859104Y-123333333D01*
X105859104Y-123333333D02*
X106001961Y-123380952D01*
X106001961Y-123380952D02*
X106097200Y-123476190D01*
X106097200Y-123476190D02*
X106144819Y-123619047D01*
X106144819Y-123619047D02*
X106144819Y-123714285D01*
X105144819Y-122380952D02*
X105144819Y-122857142D01*
X105144819Y-122857142D02*
X105621009Y-122904761D01*
X105621009Y-122904761D02*
X105573390Y-122857142D01*
X105573390Y-122857142D02*
X105525771Y-122761904D01*
X105525771Y-122761904D02*
X105525771Y-122523809D01*
X105525771Y-122523809D02*
X105573390Y-122428571D01*
X105573390Y-122428571D02*
X105621009Y-122380952D01*
X105621009Y-122380952D02*
X105716247Y-122333333D01*
X105716247Y-122333333D02*
X105954342Y-122333333D01*
X105954342Y-122333333D02*
X106049580Y-122380952D01*
X106049580Y-122380952D02*
X106097200Y-122428571D01*
X106097200Y-122428571D02*
X106144819Y-122523809D01*
X106144819Y-122523809D02*
X106144819Y-122761904D01*
X106144819Y-122761904D02*
X106097200Y-122857142D01*
X106097200Y-122857142D02*
X106049580Y-122904761D01*
X106904819Y-109166666D02*
X106428628Y-109499999D01*
X106904819Y-109738094D02*
X105904819Y-109738094D01*
X105904819Y-109738094D02*
X105904819Y-109357142D01*
X105904819Y-109357142D02*
X105952438Y-109261904D01*
X105952438Y-109261904D02*
X106000057Y-109214285D01*
X106000057Y-109214285D02*
X106095295Y-109166666D01*
X106095295Y-109166666D02*
X106238152Y-109166666D01*
X106238152Y-109166666D02*
X106333390Y-109214285D01*
X106333390Y-109214285D02*
X106381009Y-109261904D01*
X106381009Y-109261904D02*
X106428628Y-109357142D01*
X106428628Y-109357142D02*
X106428628Y-109738094D01*
X105904819Y-108833332D02*
X105904819Y-108214285D01*
X105904819Y-108214285D02*
X106285771Y-108547618D01*
X106285771Y-108547618D02*
X106285771Y-108404761D01*
X106285771Y-108404761D02*
X106333390Y-108309523D01*
X106333390Y-108309523D02*
X106381009Y-108261904D01*
X106381009Y-108261904D02*
X106476247Y-108214285D01*
X106476247Y-108214285D02*
X106714342Y-108214285D01*
X106714342Y-108214285D02*
X106809580Y-108261904D01*
X106809580Y-108261904D02*
X106857200Y-108309523D01*
X106857200Y-108309523D02*
X106904819Y-108404761D01*
X106904819Y-108404761D02*
X106904819Y-108690475D01*
X106904819Y-108690475D02*
X106857200Y-108785713D01*
X106857200Y-108785713D02*
X106809580Y-108833332D01*
X152583333Y-79359580D02*
X152535714Y-79407200D01*
X152535714Y-79407200D02*
X152392857Y-79454819D01*
X152392857Y-79454819D02*
X152297619Y-79454819D01*
X152297619Y-79454819D02*
X152154762Y-79407200D01*
X152154762Y-79407200D02*
X152059524Y-79311961D01*
X152059524Y-79311961D02*
X152011905Y-79216723D01*
X152011905Y-79216723D02*
X151964286Y-79026247D01*
X151964286Y-79026247D02*
X151964286Y-78883390D01*
X151964286Y-78883390D02*
X152011905Y-78692914D01*
X152011905Y-78692914D02*
X152059524Y-78597676D01*
X152059524Y-78597676D02*
X152154762Y-78502438D01*
X152154762Y-78502438D02*
X152297619Y-78454819D01*
X152297619Y-78454819D02*
X152392857Y-78454819D01*
X152392857Y-78454819D02*
X152535714Y-78502438D01*
X152535714Y-78502438D02*
X152583333Y-78550057D01*
X152916667Y-78454819D02*
X153535714Y-78454819D01*
X153535714Y-78454819D02*
X153202381Y-78835771D01*
X153202381Y-78835771D02*
X153345238Y-78835771D01*
X153345238Y-78835771D02*
X153440476Y-78883390D01*
X153440476Y-78883390D02*
X153488095Y-78931009D01*
X153488095Y-78931009D02*
X153535714Y-79026247D01*
X153535714Y-79026247D02*
X153535714Y-79264342D01*
X153535714Y-79264342D02*
X153488095Y-79359580D01*
X153488095Y-79359580D02*
X153440476Y-79407200D01*
X153440476Y-79407200D02*
X153345238Y-79454819D01*
X153345238Y-79454819D02*
X153059524Y-79454819D01*
X153059524Y-79454819D02*
X152964286Y-79407200D01*
X152964286Y-79407200D02*
X152916667Y-79359580D01*
X152416666Y-91954819D02*
X152416666Y-92669104D01*
X152416666Y-92669104D02*
X152369047Y-92811961D01*
X152369047Y-92811961D02*
X152273809Y-92907200D01*
X152273809Y-92907200D02*
X152130952Y-92954819D01*
X152130952Y-92954819D02*
X152035714Y-92954819D01*
X153416666Y-92954819D02*
X152845238Y-92954819D01*
X153130952Y-92954819D02*
X153130952Y-91954819D01*
X153130952Y-91954819D02*
X153035714Y-92097676D01*
X153035714Y-92097676D02*
X152940476Y-92192914D01*
X152940476Y-92192914D02*
X152845238Y-92240533D01*
X152166666Y-112954819D02*
X152166666Y-113669104D01*
X152166666Y-113669104D02*
X152119047Y-113811961D01*
X152119047Y-113811961D02*
X152023809Y-113907200D01*
X152023809Y-113907200D02*
X151880952Y-113954819D01*
X151880952Y-113954819D02*
X151785714Y-113954819D01*
X153071428Y-112954819D02*
X152880952Y-112954819D01*
X152880952Y-112954819D02*
X152785714Y-113002438D01*
X152785714Y-113002438D02*
X152738095Y-113050057D01*
X152738095Y-113050057D02*
X152642857Y-113192914D01*
X152642857Y-113192914D02*
X152595238Y-113383390D01*
X152595238Y-113383390D02*
X152595238Y-113764342D01*
X152595238Y-113764342D02*
X152642857Y-113859580D01*
X152642857Y-113859580D02*
X152690476Y-113907200D01*
X152690476Y-113907200D02*
X152785714Y-113954819D01*
X152785714Y-113954819D02*
X152976190Y-113954819D01*
X152976190Y-113954819D02*
X153071428Y-113907200D01*
X153071428Y-113907200D02*
X153119047Y-113859580D01*
X153119047Y-113859580D02*
X153166666Y-113764342D01*
X153166666Y-113764342D02*
X153166666Y-113526247D01*
X153166666Y-113526247D02*
X153119047Y-113431009D01*
X153119047Y-113431009D02*
X153071428Y-113383390D01*
X153071428Y-113383390D02*
X152976190Y-113335771D01*
X152976190Y-113335771D02*
X152785714Y-113335771D01*
X152785714Y-113335771D02*
X152690476Y-113383390D01*
X152690476Y-113383390D02*
X152642857Y-113431009D01*
X152642857Y-113431009D02*
X152595238Y-113526247D01*
X113779580Y-94416666D02*
X113827200Y-94464285D01*
X113827200Y-94464285D02*
X113874819Y-94607142D01*
X113874819Y-94607142D02*
X113874819Y-94702380D01*
X113874819Y-94702380D02*
X113827200Y-94845237D01*
X113827200Y-94845237D02*
X113731961Y-94940475D01*
X113731961Y-94940475D02*
X113636723Y-94988094D01*
X113636723Y-94988094D02*
X113446247Y-95035713D01*
X113446247Y-95035713D02*
X113303390Y-95035713D01*
X113303390Y-95035713D02*
X113112914Y-94988094D01*
X113112914Y-94988094D02*
X113017676Y-94940475D01*
X113017676Y-94940475D02*
X112922438Y-94845237D01*
X112922438Y-94845237D02*
X112874819Y-94702380D01*
X112874819Y-94702380D02*
X112874819Y-94607142D01*
X112874819Y-94607142D02*
X112922438Y-94464285D01*
X112922438Y-94464285D02*
X112970057Y-94416666D01*
X112874819Y-93511904D02*
X112874819Y-93988094D01*
X112874819Y-93988094D02*
X113351009Y-94035713D01*
X113351009Y-94035713D02*
X113303390Y-93988094D01*
X113303390Y-93988094D02*
X113255771Y-93892856D01*
X113255771Y-93892856D02*
X113255771Y-93654761D01*
X113255771Y-93654761D02*
X113303390Y-93559523D01*
X113303390Y-93559523D02*
X113351009Y-93511904D01*
X113351009Y-93511904D02*
X113446247Y-93464285D01*
X113446247Y-93464285D02*
X113684342Y-93464285D01*
X113684342Y-93464285D02*
X113779580Y-93511904D01*
X113779580Y-93511904D02*
X113827200Y-93559523D01*
X113827200Y-93559523D02*
X113874819Y-93654761D01*
X113874819Y-93654761D02*
X113874819Y-93892856D01*
X113874819Y-93892856D02*
X113827200Y-93988094D01*
X113827200Y-93988094D02*
X113779580Y-94035713D01*
X90779580Y-94416666D02*
X90827200Y-94464285D01*
X90827200Y-94464285D02*
X90874819Y-94607142D01*
X90874819Y-94607142D02*
X90874819Y-94702380D01*
X90874819Y-94702380D02*
X90827200Y-94845237D01*
X90827200Y-94845237D02*
X90731961Y-94940475D01*
X90731961Y-94940475D02*
X90636723Y-94988094D01*
X90636723Y-94988094D02*
X90446247Y-95035713D01*
X90446247Y-95035713D02*
X90303390Y-95035713D01*
X90303390Y-95035713D02*
X90112914Y-94988094D01*
X90112914Y-94988094D02*
X90017676Y-94940475D01*
X90017676Y-94940475D02*
X89922438Y-94845237D01*
X89922438Y-94845237D02*
X89874819Y-94702380D01*
X89874819Y-94702380D02*
X89874819Y-94607142D01*
X89874819Y-94607142D02*
X89922438Y-94464285D01*
X89922438Y-94464285D02*
X89970057Y-94416666D01*
X90874819Y-93464285D02*
X90874819Y-94035713D01*
X90874819Y-93749999D02*
X89874819Y-93749999D01*
X89874819Y-93749999D02*
X90017676Y-93845237D01*
X90017676Y-93845237D02*
X90112914Y-93940475D01*
X90112914Y-93940475D02*
X90160533Y-94035713D01*
X98609580Y-94416666D02*
X98657200Y-94464285D01*
X98657200Y-94464285D02*
X98704819Y-94607142D01*
X98704819Y-94607142D02*
X98704819Y-94702380D01*
X98704819Y-94702380D02*
X98657200Y-94845237D01*
X98657200Y-94845237D02*
X98561961Y-94940475D01*
X98561961Y-94940475D02*
X98466723Y-94988094D01*
X98466723Y-94988094D02*
X98276247Y-95035713D01*
X98276247Y-95035713D02*
X98133390Y-95035713D01*
X98133390Y-95035713D02*
X97942914Y-94988094D01*
X97942914Y-94988094D02*
X97847676Y-94940475D01*
X97847676Y-94940475D02*
X97752438Y-94845237D01*
X97752438Y-94845237D02*
X97704819Y-94702380D01*
X97704819Y-94702380D02*
X97704819Y-94607142D01*
X97704819Y-94607142D02*
X97752438Y-94464285D01*
X97752438Y-94464285D02*
X97800057Y-94416666D01*
X97800057Y-94035713D02*
X97752438Y-93988094D01*
X97752438Y-93988094D02*
X97704819Y-93892856D01*
X97704819Y-93892856D02*
X97704819Y-93654761D01*
X97704819Y-93654761D02*
X97752438Y-93559523D01*
X97752438Y-93559523D02*
X97800057Y-93511904D01*
X97800057Y-93511904D02*
X97895295Y-93464285D01*
X97895295Y-93464285D02*
X97990533Y-93464285D01*
X97990533Y-93464285D02*
X98133390Y-93511904D01*
X98133390Y-93511904D02*
X98704819Y-94083332D01*
X98704819Y-94083332D02*
X98704819Y-93464285D01*
X106059580Y-94416666D02*
X106107200Y-94464285D01*
X106107200Y-94464285D02*
X106154819Y-94607142D01*
X106154819Y-94607142D02*
X106154819Y-94702380D01*
X106154819Y-94702380D02*
X106107200Y-94845237D01*
X106107200Y-94845237D02*
X106011961Y-94940475D01*
X106011961Y-94940475D02*
X105916723Y-94988094D01*
X105916723Y-94988094D02*
X105726247Y-95035713D01*
X105726247Y-95035713D02*
X105583390Y-95035713D01*
X105583390Y-95035713D02*
X105392914Y-94988094D01*
X105392914Y-94988094D02*
X105297676Y-94940475D01*
X105297676Y-94940475D02*
X105202438Y-94845237D01*
X105202438Y-94845237D02*
X105154819Y-94702380D01*
X105154819Y-94702380D02*
X105154819Y-94607142D01*
X105154819Y-94607142D02*
X105202438Y-94464285D01*
X105202438Y-94464285D02*
X105250057Y-94416666D01*
X105488152Y-93559523D02*
X106154819Y-93559523D01*
X105107200Y-93797618D02*
X105821485Y-94035713D01*
X105821485Y-94035713D02*
X105821485Y-93416666D01*
X91904819Y-109166666D02*
X91428628Y-109499999D01*
X91904819Y-109738094D02*
X90904819Y-109738094D01*
X90904819Y-109738094D02*
X90904819Y-109357142D01*
X90904819Y-109357142D02*
X90952438Y-109261904D01*
X90952438Y-109261904D02*
X91000057Y-109214285D01*
X91000057Y-109214285D02*
X91095295Y-109166666D01*
X91095295Y-109166666D02*
X91238152Y-109166666D01*
X91238152Y-109166666D02*
X91333390Y-109214285D01*
X91333390Y-109214285D02*
X91381009Y-109261904D01*
X91381009Y-109261904D02*
X91428628Y-109357142D01*
X91428628Y-109357142D02*
X91428628Y-109738094D01*
X91904819Y-108214285D02*
X91904819Y-108785713D01*
X91904819Y-108499999D02*
X90904819Y-108499999D01*
X90904819Y-108499999D02*
X91047676Y-108595237D01*
X91047676Y-108595237D02*
X91142914Y-108690475D01*
X91142914Y-108690475D02*
X91190533Y-108785713D01*
X152416666Y-98954819D02*
X152416666Y-99669104D01*
X152416666Y-99669104D02*
X152369047Y-99811961D01*
X152369047Y-99811961D02*
X152273809Y-99907200D01*
X152273809Y-99907200D02*
X152130952Y-99954819D01*
X152130952Y-99954819D02*
X152035714Y-99954819D01*
X152845238Y-99050057D02*
X152892857Y-99002438D01*
X152892857Y-99002438D02*
X152988095Y-98954819D01*
X152988095Y-98954819D02*
X153226190Y-98954819D01*
X153226190Y-98954819D02*
X153321428Y-99002438D01*
X153321428Y-99002438D02*
X153369047Y-99050057D01*
X153369047Y-99050057D02*
X153416666Y-99145295D01*
X153416666Y-99145295D02*
X153416666Y-99240533D01*
X153416666Y-99240533D02*
X153369047Y-99383390D01*
X153369047Y-99383390D02*
X152797619Y-99954819D01*
X152797619Y-99954819D02*
X153416666Y-99954819D01*
X114904819Y-109166666D02*
X114428628Y-109499999D01*
X114904819Y-109738094D02*
X113904819Y-109738094D01*
X113904819Y-109738094D02*
X113904819Y-109357142D01*
X113904819Y-109357142D02*
X113952438Y-109261904D01*
X113952438Y-109261904D02*
X114000057Y-109214285D01*
X114000057Y-109214285D02*
X114095295Y-109166666D01*
X114095295Y-109166666D02*
X114238152Y-109166666D01*
X114238152Y-109166666D02*
X114333390Y-109214285D01*
X114333390Y-109214285D02*
X114381009Y-109261904D01*
X114381009Y-109261904D02*
X114428628Y-109357142D01*
X114428628Y-109357142D02*
X114428628Y-109738094D01*
X114238152Y-108309523D02*
X114904819Y-108309523D01*
X113857200Y-108547618D02*
X114571485Y-108785713D01*
X114571485Y-108785713D02*
X114571485Y-108166666D01*
X97916666Y-120454819D02*
X97916666Y-121169104D01*
X97916666Y-121169104D02*
X97869047Y-121311961D01*
X97869047Y-121311961D02*
X97773809Y-121407200D01*
X97773809Y-121407200D02*
X97630952Y-121454819D01*
X97630952Y-121454819D02*
X97535714Y-121454819D01*
X98297619Y-120454819D02*
X98916666Y-120454819D01*
X98916666Y-120454819D02*
X98583333Y-120835771D01*
X98583333Y-120835771D02*
X98726190Y-120835771D01*
X98726190Y-120835771D02*
X98821428Y-120883390D01*
X98821428Y-120883390D02*
X98869047Y-120931009D01*
X98869047Y-120931009D02*
X98916666Y-121026247D01*
X98916666Y-121026247D02*
X98916666Y-121264342D01*
X98916666Y-121264342D02*
X98869047Y-121359580D01*
X98869047Y-121359580D02*
X98821428Y-121407200D01*
X98821428Y-121407200D02*
X98726190Y-121454819D01*
X98726190Y-121454819D02*
X98440476Y-121454819D01*
X98440476Y-121454819D02*
X98345238Y-121407200D01*
X98345238Y-121407200D02*
X98297619Y-121359580D01*
X99734819Y-109406666D02*
X99258628Y-109739999D01*
X99734819Y-109978094D02*
X98734819Y-109978094D01*
X98734819Y-109978094D02*
X98734819Y-109597142D01*
X98734819Y-109597142D02*
X98782438Y-109501904D01*
X98782438Y-109501904D02*
X98830057Y-109454285D01*
X98830057Y-109454285D02*
X98925295Y-109406666D01*
X98925295Y-109406666D02*
X99068152Y-109406666D01*
X99068152Y-109406666D02*
X99163390Y-109454285D01*
X99163390Y-109454285D02*
X99211009Y-109501904D01*
X99211009Y-109501904D02*
X99258628Y-109597142D01*
X99258628Y-109597142D02*
X99258628Y-109978094D01*
X98830057Y-109025713D02*
X98782438Y-108978094D01*
X98782438Y-108978094D02*
X98734819Y-108882856D01*
X98734819Y-108882856D02*
X98734819Y-108644761D01*
X98734819Y-108644761D02*
X98782438Y-108549523D01*
X98782438Y-108549523D02*
X98830057Y-108501904D01*
X98830057Y-108501904D02*
X98925295Y-108454285D01*
X98925295Y-108454285D02*
X99020533Y-108454285D01*
X99020533Y-108454285D02*
X99163390Y-108501904D01*
X99163390Y-108501904D02*
X99734819Y-109073332D01*
X99734819Y-109073332D02*
X99734819Y-108454285D01*
X134665714Y-77899104D02*
X135141904Y-77899104D01*
X134570476Y-78184819D02*
X134903809Y-77184819D01*
X134903809Y-77184819D02*
X135237142Y-78184819D01*
X136094285Y-78184819D02*
X135522857Y-78184819D01*
X135808571Y-78184819D02*
X135808571Y-77184819D01*
X135808571Y-77184819D02*
X135713333Y-77327676D01*
X135713333Y-77327676D02*
X135618095Y-77422914D01*
X135618095Y-77422914D02*
X135522857Y-77470533D01*
X134118095Y-117824819D02*
X134118095Y-118634342D01*
X134118095Y-118634342D02*
X134165714Y-118729580D01*
X134165714Y-118729580D02*
X134213333Y-118777200D01*
X134213333Y-118777200D02*
X134308571Y-118824819D01*
X134308571Y-118824819D02*
X134499047Y-118824819D01*
X134499047Y-118824819D02*
X134594285Y-118777200D01*
X134594285Y-118777200D02*
X134641904Y-118729580D01*
X134641904Y-118729580D02*
X134689523Y-118634342D01*
X134689523Y-118634342D02*
X134689523Y-117824819D01*
X135118095Y-118777200D02*
X135260952Y-118824819D01*
X135260952Y-118824819D02*
X135499047Y-118824819D01*
X135499047Y-118824819D02*
X135594285Y-118777200D01*
X135594285Y-118777200D02*
X135641904Y-118729580D01*
X135641904Y-118729580D02*
X135689523Y-118634342D01*
X135689523Y-118634342D02*
X135689523Y-118539104D01*
X135689523Y-118539104D02*
X135641904Y-118443866D01*
X135641904Y-118443866D02*
X135594285Y-118396247D01*
X135594285Y-118396247D02*
X135499047Y-118348628D01*
X135499047Y-118348628D02*
X135308571Y-118301009D01*
X135308571Y-118301009D02*
X135213333Y-118253390D01*
X135213333Y-118253390D02*
X135165714Y-118205771D01*
X135165714Y-118205771D02*
X135118095Y-118110533D01*
X135118095Y-118110533D02*
X135118095Y-118015295D01*
X135118095Y-118015295D02*
X135165714Y-117920057D01*
X135165714Y-117920057D02*
X135213333Y-117872438D01*
X135213333Y-117872438D02*
X135308571Y-117824819D01*
X135308571Y-117824819D02*
X135546666Y-117824819D01*
X135546666Y-117824819D02*
X135689523Y-117872438D01*
X136451428Y-118301009D02*
X136594285Y-118348628D01*
X136594285Y-118348628D02*
X136641904Y-118396247D01*
X136641904Y-118396247D02*
X136689523Y-118491485D01*
X136689523Y-118491485D02*
X136689523Y-118634342D01*
X136689523Y-118634342D02*
X136641904Y-118729580D01*
X136641904Y-118729580D02*
X136594285Y-118777200D01*
X136594285Y-118777200D02*
X136499047Y-118824819D01*
X136499047Y-118824819D02*
X136118095Y-118824819D01*
X136118095Y-118824819D02*
X136118095Y-117824819D01*
X136118095Y-117824819D02*
X136451428Y-117824819D01*
X136451428Y-117824819D02*
X136546666Y-117872438D01*
X136546666Y-117872438D02*
X136594285Y-117920057D01*
X136594285Y-117920057D02*
X136641904Y-118015295D01*
X136641904Y-118015295D02*
X136641904Y-118110533D01*
X136641904Y-118110533D02*
X136594285Y-118205771D01*
X136594285Y-118205771D02*
X136546666Y-118253390D01*
X136546666Y-118253390D02*
X136451428Y-118301009D01*
X136451428Y-118301009D02*
X136118095Y-118301009D01*
X114671666Y-89602319D02*
X114671666Y-90316604D01*
X114671666Y-90316604D02*
X114624047Y-90459461D01*
X114624047Y-90459461D02*
X114528809Y-90554700D01*
X114528809Y-90554700D02*
X114385952Y-90602319D01*
X114385952Y-90602319D02*
X114290714Y-90602319D01*
X115290714Y-90030890D02*
X115195476Y-89983271D01*
X115195476Y-89983271D02*
X115147857Y-89935652D01*
X115147857Y-89935652D02*
X115100238Y-89840414D01*
X115100238Y-89840414D02*
X115100238Y-89792795D01*
X115100238Y-89792795D02*
X115147857Y-89697557D01*
X115147857Y-89697557D02*
X115195476Y-89649938D01*
X115195476Y-89649938D02*
X115290714Y-89602319D01*
X115290714Y-89602319D02*
X115481190Y-89602319D01*
X115481190Y-89602319D02*
X115576428Y-89649938D01*
X115576428Y-89649938D02*
X115624047Y-89697557D01*
X115624047Y-89697557D02*
X115671666Y-89792795D01*
X115671666Y-89792795D02*
X115671666Y-89840414D01*
X115671666Y-89840414D02*
X115624047Y-89935652D01*
X115624047Y-89935652D02*
X115576428Y-89983271D01*
X115576428Y-89983271D02*
X115481190Y-90030890D01*
X115481190Y-90030890D02*
X115290714Y-90030890D01*
X115290714Y-90030890D02*
X115195476Y-90078509D01*
X115195476Y-90078509D02*
X115147857Y-90126128D01*
X115147857Y-90126128D02*
X115100238Y-90221366D01*
X115100238Y-90221366D02*
X115100238Y-90411842D01*
X115100238Y-90411842D02*
X115147857Y-90507080D01*
X115147857Y-90507080D02*
X115195476Y-90554700D01*
X115195476Y-90554700D02*
X115290714Y-90602319D01*
X115290714Y-90602319D02*
X115481190Y-90602319D01*
X115481190Y-90602319D02*
X115576428Y-90554700D01*
X115576428Y-90554700D02*
X115624047Y-90507080D01*
X115624047Y-90507080D02*
X115671666Y-90411842D01*
X115671666Y-90411842D02*
X115671666Y-90221366D01*
X115671666Y-90221366D02*
X115624047Y-90126128D01*
X115624047Y-90126128D02*
X115576428Y-90078509D01*
X115576428Y-90078509D02*
X115481190Y-90030890D01*
X152416666Y-105954819D02*
X152416666Y-106669104D01*
X152416666Y-106669104D02*
X152369047Y-106811961D01*
X152369047Y-106811961D02*
X152273809Y-106907200D01*
X152273809Y-106907200D02*
X152130952Y-106954819D01*
X152130952Y-106954819D02*
X152035714Y-106954819D01*
X153321428Y-106288152D02*
X153321428Y-106954819D01*
X153083333Y-105907200D02*
X152845238Y-106621485D01*
X152845238Y-106621485D02*
X153464285Y-106621485D01*
%TO.C,J5*%
D11*
X107130000Y-121670000D02*
X108460000Y-121670000D01*
X107130000Y-123000000D02*
X107130000Y-121670000D01*
X109730000Y-121670000D02*
X119950000Y-121670000D01*
X109730000Y-124330000D02*
X109730000Y-121670000D01*
X109730000Y-124330000D02*
X119950000Y-124330000D01*
X119950000Y-124330000D02*
X119950000Y-121670000D01*
%TO.C,R3*%
X109170000Y-102420000D02*
X109170000Y-104380000D01*
X109170000Y-115580000D02*
X109170000Y-113620000D01*
X107450000Y-104380000D02*
X110890000Y-104380000D01*
X110890000Y-113620000D01*
X107450000Y-113620000D01*
X107450000Y-104380000D01*
%TO.C,C3*%
X147270354Y-82375000D02*
X148270354Y-82375000D01*
X147770354Y-81875000D02*
X147770354Y-82875000D01*
X152750000Y-80170000D02*
X152750000Y-90330000D01*
X152790000Y-80170000D02*
X152790000Y-90330000D01*
X152830000Y-80171000D02*
X152830000Y-90329000D01*
X152870000Y-80171000D02*
X152870000Y-90329000D01*
X152910000Y-80173000D02*
X152910000Y-90327000D01*
X152950000Y-80174000D02*
X152950000Y-90326000D01*
X152990000Y-80176000D02*
X152990000Y-90324000D01*
X153030000Y-80178000D02*
X153030000Y-90322000D01*
X153070000Y-80180000D02*
X153070000Y-90320000D01*
X153110000Y-80183000D02*
X153110000Y-90317000D01*
X153150000Y-80186000D02*
X153150000Y-90314000D01*
X153190000Y-80189000D02*
X153190000Y-90311000D01*
X153230000Y-80193000D02*
X153230000Y-90307000D01*
X153270000Y-80196000D02*
X153270000Y-90304000D01*
X153310000Y-80201000D02*
X153310000Y-90299000D01*
X153350000Y-80205000D02*
X153350000Y-90295000D01*
X153390000Y-80210000D02*
X153390000Y-90290000D01*
X153430000Y-80215000D02*
X153430000Y-90285000D01*
X153470000Y-80221000D02*
X153470000Y-90279000D01*
X153510000Y-80227000D02*
X153510000Y-90273000D01*
X153550000Y-80233000D02*
X153550000Y-90267000D01*
X153590000Y-80239000D02*
X153590000Y-90261000D01*
X153630000Y-80246000D02*
X153630000Y-90254000D01*
X153670000Y-80253000D02*
X153670000Y-90247000D01*
X153710000Y-80261000D02*
X153710000Y-90239000D01*
X153750000Y-80269000D02*
X153750000Y-90231000D01*
X153790000Y-80277000D02*
X153790000Y-90223000D01*
X153830000Y-80285000D02*
X153830000Y-90215000D01*
X153870000Y-80294000D02*
X153870000Y-90206000D01*
X153910000Y-80303000D02*
X153910000Y-90197000D01*
X153950000Y-80313000D02*
X153950000Y-90187000D01*
X153990000Y-80322000D02*
X153990000Y-90178000D01*
X154030000Y-80333000D02*
X154030000Y-84010000D01*
X154030000Y-86490000D02*
X154030000Y-90167000D01*
X154070000Y-80343000D02*
X154070000Y-84010000D01*
X154070000Y-86490000D02*
X154070000Y-90157000D01*
X154110000Y-80354000D02*
X154110000Y-84010000D01*
X154110000Y-86490000D02*
X154110000Y-90146000D01*
X154150000Y-80365000D02*
X154150000Y-84010000D01*
X154150000Y-86490000D02*
X154150000Y-90135000D01*
X154190000Y-80377000D02*
X154190000Y-84010000D01*
X154190000Y-86490000D02*
X154190000Y-90123000D01*
X154230000Y-80389000D02*
X154230000Y-84010000D01*
X154230000Y-86490000D02*
X154230000Y-90111000D01*
X154270000Y-80401000D02*
X154270000Y-84010000D01*
X154270000Y-86490000D02*
X154270000Y-90099000D01*
X154310000Y-80413000D02*
X154310000Y-84010000D01*
X154310000Y-86490000D02*
X154310000Y-90087000D01*
X154350000Y-80426000D02*
X154350000Y-84010000D01*
X154350000Y-86490000D02*
X154350000Y-90074000D01*
X154390000Y-80440000D02*
X154390000Y-84010000D01*
X154390000Y-86490000D02*
X154390000Y-90060000D01*
X154430000Y-80453000D02*
X154430000Y-84010000D01*
X154430000Y-86490000D02*
X154430000Y-90047000D01*
X154470000Y-80468000D02*
X154470000Y-84010000D01*
X154470000Y-86490000D02*
X154470000Y-90032000D01*
X154510000Y-80482000D02*
X154510000Y-84010000D01*
X154510000Y-86490000D02*
X154510000Y-90018000D01*
X154550000Y-80497000D02*
X154550000Y-84010000D01*
X154550000Y-86490000D02*
X154550000Y-90003000D01*
X154590000Y-80512000D02*
X154590000Y-84010000D01*
X154590000Y-86490000D02*
X154590000Y-89988000D01*
X154630000Y-80528000D02*
X154630000Y-84010000D01*
X154630000Y-86490000D02*
X154630000Y-89972000D01*
X154670000Y-80544000D02*
X154670000Y-84010000D01*
X154670000Y-86490000D02*
X154670000Y-89956000D01*
X154710000Y-80560000D02*
X154710000Y-84010000D01*
X154710000Y-86490000D02*
X154710000Y-89940000D01*
X154750000Y-80577000D02*
X154750000Y-84010000D01*
X154750000Y-86490000D02*
X154750000Y-89923000D01*
X154790000Y-80594000D02*
X154790000Y-84010000D01*
X154790000Y-86490000D02*
X154790000Y-89906000D01*
X154830000Y-80612000D02*
X154830000Y-84010000D01*
X154830000Y-86490000D02*
X154830000Y-89888000D01*
X154870000Y-80630000D02*
X154870000Y-84010000D01*
X154870000Y-86490000D02*
X154870000Y-89870000D01*
X154910000Y-80648000D02*
X154910000Y-84010000D01*
X154910000Y-86490000D02*
X154910000Y-89852000D01*
X154950000Y-80667000D02*
X154950000Y-84010000D01*
X154950000Y-86490000D02*
X154950000Y-89833000D01*
X154990000Y-80686000D02*
X154990000Y-84010000D01*
X154990000Y-86490000D02*
X154990000Y-89814000D01*
X155030000Y-80706000D02*
X155030000Y-84010000D01*
X155030000Y-86490000D02*
X155030000Y-89794000D01*
X155070000Y-80726000D02*
X155070000Y-84010000D01*
X155070000Y-86490000D02*
X155070000Y-89774000D01*
X155110000Y-80746000D02*
X155110000Y-84010000D01*
X155110000Y-86490000D02*
X155110000Y-89754000D01*
X155150000Y-80767000D02*
X155150000Y-84010000D01*
X155150000Y-86490000D02*
X155150000Y-89733000D01*
X155190000Y-80789000D02*
X155190000Y-84010000D01*
X155190000Y-86490000D02*
X155190000Y-89711000D01*
X155230000Y-80811000D02*
X155230000Y-84010000D01*
X155230000Y-86490000D02*
X155230000Y-89689000D01*
X155270000Y-80833000D02*
X155270000Y-84010000D01*
X155270000Y-86490000D02*
X155270000Y-89667000D01*
X155310000Y-80856000D02*
X155310000Y-84010000D01*
X155310000Y-86490000D02*
X155310000Y-89644000D01*
X155350000Y-80879000D02*
X155350000Y-84010000D01*
X155350000Y-86490000D02*
X155350000Y-89621000D01*
X155390000Y-80903000D02*
X155390000Y-84010000D01*
X155390000Y-86490000D02*
X155390000Y-89597000D01*
X155430000Y-80927000D02*
X155430000Y-84010000D01*
X155430000Y-86490000D02*
X155430000Y-89573000D01*
X155470000Y-80952000D02*
X155470000Y-84010000D01*
X155470000Y-86490000D02*
X155470000Y-89548000D01*
X155510000Y-80978000D02*
X155510000Y-84010000D01*
X155510000Y-86490000D02*
X155510000Y-89522000D01*
X155550000Y-81003000D02*
X155550000Y-84010000D01*
X155550000Y-86490000D02*
X155550000Y-89497000D01*
X155590000Y-81030000D02*
X155590000Y-84010000D01*
X155590000Y-86490000D02*
X155590000Y-89470000D01*
X155630000Y-81057000D02*
X155630000Y-84010000D01*
X155630000Y-86490000D02*
X155630000Y-89443000D01*
X155670000Y-81084000D02*
X155670000Y-84010000D01*
X155670000Y-86490000D02*
X155670000Y-89416000D01*
X155710000Y-81112000D02*
X155710000Y-84010000D01*
X155710000Y-86490000D02*
X155710000Y-89388000D01*
X155750000Y-81141000D02*
X155750000Y-84010000D01*
X155750000Y-86490000D02*
X155750000Y-89359000D01*
X155790000Y-81170000D02*
X155790000Y-84010000D01*
X155790000Y-86490000D02*
X155790000Y-89330000D01*
X155830000Y-81200000D02*
X155830000Y-84010000D01*
X155830000Y-86490000D02*
X155830000Y-89300000D01*
X155870000Y-81230000D02*
X155870000Y-84010000D01*
X155870000Y-86490000D02*
X155870000Y-89270000D01*
X155910000Y-81262000D02*
X155910000Y-84010000D01*
X155910000Y-86490000D02*
X155910000Y-89238000D01*
X155950000Y-81293000D02*
X155950000Y-84010000D01*
X155950000Y-86490000D02*
X155950000Y-89207000D01*
X155990000Y-81326000D02*
X155990000Y-84010000D01*
X155990000Y-86490000D02*
X155990000Y-89174000D01*
X156030000Y-81359000D02*
X156030000Y-84010000D01*
X156030000Y-86490000D02*
X156030000Y-89141000D01*
X156070000Y-81392000D02*
X156070000Y-84010000D01*
X156070000Y-86490000D02*
X156070000Y-89108000D01*
X156110000Y-81427000D02*
X156110000Y-84010000D01*
X156110000Y-86490000D02*
X156110000Y-89073000D01*
X156150000Y-81462000D02*
X156150000Y-84010000D01*
X156150000Y-86490000D02*
X156150000Y-89038000D01*
X156190000Y-81498000D02*
X156190000Y-84010000D01*
X156190000Y-86490000D02*
X156190000Y-89002000D01*
X156230000Y-81534000D02*
X156230000Y-84010000D01*
X156230000Y-86490000D02*
X156230000Y-88966000D01*
X156270000Y-81572000D02*
X156270000Y-84010000D01*
X156270000Y-86490000D02*
X156270000Y-88928000D01*
X156310000Y-81610000D02*
X156310000Y-84010000D01*
X156310000Y-86490000D02*
X156310000Y-88890000D01*
X156350000Y-81649000D02*
X156350000Y-84010000D01*
X156350000Y-86490000D02*
X156350000Y-88851000D01*
X156390000Y-81689000D02*
X156390000Y-84010000D01*
X156390000Y-86490000D02*
X156390000Y-88811000D01*
X156430000Y-81730000D02*
X156430000Y-84010000D01*
X156430000Y-86490000D02*
X156430000Y-88770000D01*
X156470000Y-81772000D02*
X156470000Y-84010000D01*
X156470000Y-86490000D02*
X156470000Y-88728000D01*
X156510000Y-81815000D02*
X156510000Y-88685000D01*
X156550000Y-81859000D02*
X156550000Y-88641000D01*
X156590000Y-81903000D02*
X156590000Y-88597000D01*
X156630000Y-81949000D02*
X156630000Y-88551000D01*
X156670000Y-81996000D02*
X156670000Y-88504000D01*
X156710000Y-82045000D02*
X156710000Y-88455000D01*
X156750000Y-82094000D02*
X156750000Y-88406000D01*
X156790000Y-82145000D02*
X156790000Y-88355000D01*
X156830000Y-82197000D02*
X156830000Y-88303000D01*
X156870000Y-82250000D02*
X156870000Y-88250000D01*
X156910000Y-82305000D02*
X156910000Y-88195000D01*
X156950000Y-82362000D02*
X156950000Y-88138000D01*
X156990000Y-82420000D02*
X156990000Y-88080000D01*
X157030000Y-82480000D02*
X157030000Y-88020000D01*
X157070000Y-82542000D02*
X157070000Y-87958000D01*
X157110000Y-82606000D02*
X157110000Y-87894000D01*
X157150000Y-82672000D02*
X157150000Y-87828000D01*
X157190000Y-82740000D02*
X157190000Y-87760000D01*
X157230000Y-82811000D02*
X157230000Y-87689000D01*
X157270000Y-82885000D02*
X157270000Y-87615000D01*
X157310000Y-82962000D02*
X157310000Y-87538000D01*
X157350000Y-83042000D02*
X157350000Y-87458000D01*
X157390000Y-83126000D02*
X157390000Y-87374000D01*
X157430000Y-83213000D02*
X157430000Y-87287000D01*
X157470000Y-83306000D02*
X157470000Y-87194000D01*
X157510000Y-83404000D02*
X157510000Y-87096000D01*
X157550000Y-83508000D02*
X157550000Y-86992000D01*
X157590000Y-83620000D02*
X157590000Y-86880000D01*
X157630000Y-83741000D02*
X157630000Y-86759000D01*
X157670000Y-83873000D02*
X157670000Y-86627000D01*
X157710000Y-84020000D02*
X157710000Y-86480000D01*
X157750000Y-84188000D02*
X157750000Y-86312000D01*
X157790000Y-84388000D02*
X157790000Y-86112000D01*
X157830000Y-84651000D02*
X157830000Y-85849000D01*
X157870000Y-85250000D02*
G75*
G02*
X147630000Y-85250000I-5120000J0D01*
G01*
X147630000Y-85250000D02*
G75*
G02*
X157870000Y-85250000I5120000J0D01*
G01*
%TO.C,J1*%
X148880000Y-93670000D02*
X148880000Y-96330000D01*
X154020000Y-93670000D02*
X148880000Y-93670000D01*
X154020000Y-93670000D02*
X154020000Y-96330000D01*
X154020000Y-96330000D02*
X148880000Y-96330000D01*
X156620000Y-95000000D02*
X156620000Y-96330000D01*
X156620000Y-96330000D02*
X155290000Y-96330000D01*
%TO.C,J6*%
X148880000Y-114670000D02*
X148880000Y-117330000D01*
X154020000Y-114670000D02*
X148880000Y-114670000D01*
X154020000Y-114670000D02*
X154020000Y-117330000D01*
X154020000Y-117330000D02*
X148880000Y-117330000D01*
X156620000Y-116000000D02*
X156620000Y-117330000D01*
X156620000Y-117330000D02*
X155290000Y-117330000D01*
%TO.C,C5*%
X114590000Y-94210000D02*
X119750000Y-94210000D01*
X114590000Y-94250000D02*
X119750000Y-94250000D01*
X114591000Y-94170000D02*
X119749000Y-94170000D01*
X114593000Y-94130000D02*
X119747000Y-94130000D01*
X114595000Y-94090000D02*
X119745000Y-94090000D01*
X114598000Y-94050000D02*
X119742000Y-94050000D01*
X114601000Y-94010000D02*
X116130000Y-94010000D01*
X114605000Y-93970000D02*
X116130000Y-93970000D01*
X114610000Y-93930000D02*
X116130000Y-93930000D01*
X114615000Y-93890000D02*
X116130000Y-93890000D01*
X114621000Y-93850000D02*
X116130000Y-93850000D01*
X114627000Y-93810000D02*
X116130000Y-93810000D01*
X114634000Y-93770000D02*
X116130000Y-93770000D01*
X114642000Y-93730000D02*
X116130000Y-93730000D01*
X114651000Y-93690000D02*
X116130000Y-93690000D01*
X114660000Y-93650000D02*
X116130000Y-93650000D01*
X114669000Y-93610000D02*
X116130000Y-93610000D01*
X114680000Y-93570000D02*
X116130000Y-93570000D01*
X114691000Y-93530000D02*
X116130000Y-93530000D01*
X114703000Y-93490000D02*
X116130000Y-93490000D01*
X114715000Y-93450000D02*
X116130000Y-93450000D01*
X114728000Y-93410000D02*
X116130000Y-93410000D01*
X114742000Y-93370000D02*
X116130000Y-93370000D01*
X114757000Y-93330000D02*
X116130000Y-93330000D01*
X114772000Y-93290000D02*
X116130000Y-93290000D01*
X114788000Y-93250000D02*
X116130000Y-93250000D01*
X114805000Y-93210000D02*
X116130000Y-93210000D01*
X114823000Y-93170000D02*
X116130000Y-93170000D01*
X114841000Y-93130000D02*
X116130000Y-93130000D01*
X114861000Y-93090000D02*
X116130000Y-93090000D01*
X114881000Y-93050000D02*
X116130000Y-93050000D01*
X114902000Y-93010000D02*
X116130000Y-93010000D01*
X114924000Y-92970000D02*
X116130000Y-92970000D01*
X114947000Y-92930000D02*
X116130000Y-92930000D01*
X114971000Y-92890000D02*
X116130000Y-92890000D01*
X114995000Y-92850000D02*
X116130000Y-92850000D01*
X115021000Y-92810000D02*
X116130000Y-92810000D01*
X115048000Y-92770000D02*
X116130000Y-92770000D01*
X115076000Y-92730000D02*
X116130000Y-92730000D01*
X115105000Y-92690000D02*
X116130000Y-92690000D01*
X115135000Y-92650000D02*
X116130000Y-92650000D01*
X115167000Y-92610000D02*
X116130000Y-92610000D01*
X115200000Y-92570000D02*
X116130000Y-92570000D01*
X115234000Y-92530000D02*
X116130000Y-92530000D01*
X115269000Y-92490000D02*
X116130000Y-92490000D01*
X115306000Y-92450000D02*
X116130000Y-92450000D01*
X115345000Y-92410000D02*
X116130000Y-92410000D01*
X115385000Y-92370000D02*
X116130000Y-92370000D01*
X115427000Y-92330000D02*
X116130000Y-92330000D01*
X115445000Y-96804775D02*
X115945000Y-96804775D01*
X115471000Y-92290000D02*
X116130000Y-92290000D01*
X115518000Y-92250000D02*
X116130000Y-92250000D01*
X115566000Y-92210000D02*
X116130000Y-92210000D01*
X115617000Y-92170000D02*
X116130000Y-92170000D01*
X115671000Y-92130000D02*
X116130000Y-92130000D01*
X115695000Y-97054775D02*
X115695000Y-96554775D01*
X115727000Y-92090000D02*
X116130000Y-92090000D01*
X115787000Y-92050000D02*
X116130000Y-92050000D01*
X115851000Y-92010000D02*
X116130000Y-92010000D01*
X115919000Y-91970000D02*
X116130000Y-91970000D01*
X115993000Y-91930000D02*
X118347000Y-91930000D01*
X116072000Y-91890000D02*
X118268000Y-91890000D01*
X116159000Y-91850000D02*
X118181000Y-91850000D01*
X116256000Y-91810000D02*
X118084000Y-91810000D01*
X116365000Y-91770000D02*
X117975000Y-91770000D01*
X116493000Y-91730000D02*
X117847000Y-91730000D01*
X116653000Y-91690000D02*
X117687000Y-91690000D01*
X116887000Y-91650000D02*
X117453000Y-91650000D01*
X118210000Y-91970000D02*
X118421000Y-91970000D01*
X118210000Y-92010000D02*
X118489000Y-92010000D01*
X118210000Y-92050000D02*
X118553000Y-92050000D01*
X118210000Y-92090000D02*
X118613000Y-92090000D01*
X118210000Y-92130000D02*
X118669000Y-92130000D01*
X118210000Y-92170000D02*
X118723000Y-92170000D01*
X118210000Y-92210000D02*
X118774000Y-92210000D01*
X118210000Y-92250000D02*
X118822000Y-92250000D01*
X118210000Y-92290000D02*
X118869000Y-92290000D01*
X118210000Y-92330000D02*
X118913000Y-92330000D01*
X118210000Y-92370000D02*
X118955000Y-92370000D01*
X118210000Y-92410000D02*
X118995000Y-92410000D01*
X118210000Y-92450000D02*
X119034000Y-92450000D01*
X118210000Y-92490000D02*
X119071000Y-92490000D01*
X118210000Y-92530000D02*
X119106000Y-92530000D01*
X118210000Y-92570000D02*
X119140000Y-92570000D01*
X118210000Y-92610000D02*
X119173000Y-92610000D01*
X118210000Y-92650000D02*
X119205000Y-92650000D01*
X118210000Y-92690000D02*
X119235000Y-92690000D01*
X118210000Y-92730000D02*
X119264000Y-92730000D01*
X118210000Y-92770000D02*
X119292000Y-92770000D01*
X118210000Y-92810000D02*
X119319000Y-92810000D01*
X118210000Y-92850000D02*
X119345000Y-92850000D01*
X118210000Y-92890000D02*
X119369000Y-92890000D01*
X118210000Y-92930000D02*
X119393000Y-92930000D01*
X118210000Y-92970000D02*
X119416000Y-92970000D01*
X118210000Y-93010000D02*
X119438000Y-93010000D01*
X118210000Y-93050000D02*
X119459000Y-93050000D01*
X118210000Y-93090000D02*
X119479000Y-93090000D01*
X118210000Y-93130000D02*
X119499000Y-93130000D01*
X118210000Y-93170000D02*
X119517000Y-93170000D01*
X118210000Y-93210000D02*
X119535000Y-93210000D01*
X118210000Y-93250000D02*
X119552000Y-93250000D01*
X118210000Y-93290000D02*
X119568000Y-93290000D01*
X118210000Y-93330000D02*
X119583000Y-93330000D01*
X118210000Y-93370000D02*
X119598000Y-93370000D01*
X118210000Y-93410000D02*
X119612000Y-93410000D01*
X118210000Y-93450000D02*
X119625000Y-93450000D01*
X118210000Y-93490000D02*
X119637000Y-93490000D01*
X118210000Y-93530000D02*
X119649000Y-93530000D01*
X118210000Y-93570000D02*
X119660000Y-93570000D01*
X118210000Y-93610000D02*
X119671000Y-93610000D01*
X118210000Y-93650000D02*
X119680000Y-93650000D01*
X118210000Y-93690000D02*
X119689000Y-93690000D01*
X118210000Y-93730000D02*
X119698000Y-93730000D01*
X118210000Y-93770000D02*
X119706000Y-93770000D01*
X118210000Y-93810000D02*
X119713000Y-93810000D01*
X118210000Y-93850000D02*
X119719000Y-93850000D01*
X118210000Y-93890000D02*
X119725000Y-93890000D01*
X118210000Y-93930000D02*
X119730000Y-93930000D01*
X118210000Y-93970000D02*
X119735000Y-93970000D01*
X118210000Y-94010000D02*
X119739000Y-94010000D01*
X119790000Y-94250000D02*
G75*
G02*
X114550000Y-94250000I-2620000J0D01*
G01*
X114550000Y-94250000D02*
G75*
G02*
X119790000Y-94250000I2620000J0D01*
G01*
%TO.C,C1*%
X91590000Y-94210000D02*
X96750000Y-94210000D01*
X91590000Y-94250000D02*
X96750000Y-94250000D01*
X91591000Y-94170000D02*
X96749000Y-94170000D01*
X91593000Y-94130000D02*
X96747000Y-94130000D01*
X91595000Y-94090000D02*
X96745000Y-94090000D01*
X91598000Y-94050000D02*
X96742000Y-94050000D01*
X91601000Y-94010000D02*
X93130000Y-94010000D01*
X91605000Y-93970000D02*
X93130000Y-93970000D01*
X91610000Y-93930000D02*
X93130000Y-93930000D01*
X91615000Y-93890000D02*
X93130000Y-93890000D01*
X91621000Y-93850000D02*
X93130000Y-93850000D01*
X91627000Y-93810000D02*
X93130000Y-93810000D01*
X91634000Y-93770000D02*
X93130000Y-93770000D01*
X91642000Y-93730000D02*
X93130000Y-93730000D01*
X91651000Y-93690000D02*
X93130000Y-93690000D01*
X91660000Y-93650000D02*
X93130000Y-93650000D01*
X91669000Y-93610000D02*
X93130000Y-93610000D01*
X91680000Y-93570000D02*
X93130000Y-93570000D01*
X91691000Y-93530000D02*
X93130000Y-93530000D01*
X91703000Y-93490000D02*
X93130000Y-93490000D01*
X91715000Y-93450000D02*
X93130000Y-93450000D01*
X91728000Y-93410000D02*
X93130000Y-93410000D01*
X91742000Y-93370000D02*
X93130000Y-93370000D01*
X91757000Y-93330000D02*
X93130000Y-93330000D01*
X91772000Y-93290000D02*
X93130000Y-93290000D01*
X91788000Y-93250000D02*
X93130000Y-93250000D01*
X91805000Y-93210000D02*
X93130000Y-93210000D01*
X91823000Y-93170000D02*
X93130000Y-93170000D01*
X91841000Y-93130000D02*
X93130000Y-93130000D01*
X91861000Y-93090000D02*
X93130000Y-93090000D01*
X91881000Y-93050000D02*
X93130000Y-93050000D01*
X91902000Y-93010000D02*
X93130000Y-93010000D01*
X91924000Y-92970000D02*
X93130000Y-92970000D01*
X91947000Y-92930000D02*
X93130000Y-92930000D01*
X91971000Y-92890000D02*
X93130000Y-92890000D01*
X91995000Y-92850000D02*
X93130000Y-92850000D01*
X92021000Y-92810000D02*
X93130000Y-92810000D01*
X92048000Y-92770000D02*
X93130000Y-92770000D01*
X92076000Y-92730000D02*
X93130000Y-92730000D01*
X92105000Y-92690000D02*
X93130000Y-92690000D01*
X92135000Y-92650000D02*
X93130000Y-92650000D01*
X92167000Y-92610000D02*
X93130000Y-92610000D01*
X92200000Y-92570000D02*
X93130000Y-92570000D01*
X92234000Y-92530000D02*
X93130000Y-92530000D01*
X92269000Y-92490000D02*
X93130000Y-92490000D01*
X92306000Y-92450000D02*
X93130000Y-92450000D01*
X92345000Y-92410000D02*
X93130000Y-92410000D01*
X92385000Y-92370000D02*
X93130000Y-92370000D01*
X92427000Y-92330000D02*
X93130000Y-92330000D01*
X92445000Y-96804775D02*
X92945000Y-96804775D01*
X92471000Y-92290000D02*
X93130000Y-92290000D01*
X92518000Y-92250000D02*
X93130000Y-92250000D01*
X92566000Y-92210000D02*
X93130000Y-92210000D01*
X92617000Y-92170000D02*
X93130000Y-92170000D01*
X92671000Y-92130000D02*
X93130000Y-92130000D01*
X92695000Y-97054775D02*
X92695000Y-96554775D01*
X92727000Y-92090000D02*
X93130000Y-92090000D01*
X92787000Y-92050000D02*
X93130000Y-92050000D01*
X92851000Y-92010000D02*
X93130000Y-92010000D01*
X92919000Y-91970000D02*
X93130000Y-91970000D01*
X92993000Y-91930000D02*
X95347000Y-91930000D01*
X93072000Y-91890000D02*
X95268000Y-91890000D01*
X93159000Y-91850000D02*
X95181000Y-91850000D01*
X93256000Y-91810000D02*
X95084000Y-91810000D01*
X93365000Y-91770000D02*
X94975000Y-91770000D01*
X93493000Y-91730000D02*
X94847000Y-91730000D01*
X93653000Y-91690000D02*
X94687000Y-91690000D01*
X93887000Y-91650000D02*
X94453000Y-91650000D01*
X95210000Y-91970000D02*
X95421000Y-91970000D01*
X95210000Y-92010000D02*
X95489000Y-92010000D01*
X95210000Y-92050000D02*
X95553000Y-92050000D01*
X95210000Y-92090000D02*
X95613000Y-92090000D01*
X95210000Y-92130000D02*
X95669000Y-92130000D01*
X95210000Y-92170000D02*
X95723000Y-92170000D01*
X95210000Y-92210000D02*
X95774000Y-92210000D01*
X95210000Y-92250000D02*
X95822000Y-92250000D01*
X95210000Y-92290000D02*
X95869000Y-92290000D01*
X95210000Y-92330000D02*
X95913000Y-92330000D01*
X95210000Y-92370000D02*
X95955000Y-92370000D01*
X95210000Y-92410000D02*
X95995000Y-92410000D01*
X95210000Y-92450000D02*
X96034000Y-92450000D01*
X95210000Y-92490000D02*
X96071000Y-92490000D01*
X95210000Y-92530000D02*
X96106000Y-92530000D01*
X95210000Y-92570000D02*
X96140000Y-92570000D01*
X95210000Y-92610000D02*
X96173000Y-92610000D01*
X95210000Y-92650000D02*
X96205000Y-92650000D01*
X95210000Y-92690000D02*
X96235000Y-92690000D01*
X95210000Y-92730000D02*
X96264000Y-92730000D01*
X95210000Y-92770000D02*
X96292000Y-92770000D01*
X95210000Y-92810000D02*
X96319000Y-92810000D01*
X95210000Y-92850000D02*
X96345000Y-92850000D01*
X95210000Y-92890000D02*
X96369000Y-92890000D01*
X95210000Y-92930000D02*
X96393000Y-92930000D01*
X95210000Y-92970000D02*
X96416000Y-92970000D01*
X95210000Y-93010000D02*
X96438000Y-93010000D01*
X95210000Y-93050000D02*
X96459000Y-93050000D01*
X95210000Y-93090000D02*
X96479000Y-93090000D01*
X95210000Y-93130000D02*
X96499000Y-93130000D01*
X95210000Y-93170000D02*
X96517000Y-93170000D01*
X95210000Y-93210000D02*
X96535000Y-93210000D01*
X95210000Y-93250000D02*
X96552000Y-93250000D01*
X95210000Y-93290000D02*
X96568000Y-93290000D01*
X95210000Y-93330000D02*
X96583000Y-93330000D01*
X95210000Y-93370000D02*
X96598000Y-93370000D01*
X95210000Y-93410000D02*
X96612000Y-93410000D01*
X95210000Y-93450000D02*
X96625000Y-93450000D01*
X95210000Y-93490000D02*
X96637000Y-93490000D01*
X95210000Y-93530000D02*
X96649000Y-93530000D01*
X95210000Y-93570000D02*
X96660000Y-93570000D01*
X95210000Y-93610000D02*
X96671000Y-93610000D01*
X95210000Y-93650000D02*
X96680000Y-93650000D01*
X95210000Y-93690000D02*
X96689000Y-93690000D01*
X95210000Y-93730000D02*
X96698000Y-93730000D01*
X95210000Y-93770000D02*
X96706000Y-93770000D01*
X95210000Y-93810000D02*
X96713000Y-93810000D01*
X95210000Y-93850000D02*
X96719000Y-93850000D01*
X95210000Y-93890000D02*
X96725000Y-93890000D01*
X95210000Y-93930000D02*
X96730000Y-93930000D01*
X95210000Y-93970000D02*
X96735000Y-93970000D01*
X95210000Y-94010000D02*
X96739000Y-94010000D01*
X96790000Y-94250000D02*
G75*
G02*
X91550000Y-94250000I-2620000J0D01*
G01*
X91550000Y-94250000D02*
G75*
G02*
X96790000Y-94250000I2620000J0D01*
G01*
%TO.C,C2*%
X99420000Y-94210000D02*
X104580000Y-94210000D01*
X99420000Y-94250000D02*
X104580000Y-94250000D01*
X99421000Y-94170000D02*
X104579000Y-94170000D01*
X99423000Y-94130000D02*
X104577000Y-94130000D01*
X99425000Y-94090000D02*
X104575000Y-94090000D01*
X99428000Y-94050000D02*
X104572000Y-94050000D01*
X99431000Y-94010000D02*
X100960000Y-94010000D01*
X99435000Y-93970000D02*
X100960000Y-93970000D01*
X99440000Y-93930000D02*
X100960000Y-93930000D01*
X99445000Y-93890000D02*
X100960000Y-93890000D01*
X99451000Y-93850000D02*
X100960000Y-93850000D01*
X99457000Y-93810000D02*
X100960000Y-93810000D01*
X99464000Y-93770000D02*
X100960000Y-93770000D01*
X99472000Y-93730000D02*
X100960000Y-93730000D01*
X99481000Y-93690000D02*
X100960000Y-93690000D01*
X99490000Y-93650000D02*
X100960000Y-93650000D01*
X99499000Y-93610000D02*
X100960000Y-93610000D01*
X99510000Y-93570000D02*
X100960000Y-93570000D01*
X99521000Y-93530000D02*
X100960000Y-93530000D01*
X99533000Y-93490000D02*
X100960000Y-93490000D01*
X99545000Y-93450000D02*
X100960000Y-93450000D01*
X99558000Y-93410000D02*
X100960000Y-93410000D01*
X99572000Y-93370000D02*
X100960000Y-93370000D01*
X99587000Y-93330000D02*
X100960000Y-93330000D01*
X99602000Y-93290000D02*
X100960000Y-93290000D01*
X99618000Y-93250000D02*
X100960000Y-93250000D01*
X99635000Y-93210000D02*
X100960000Y-93210000D01*
X99653000Y-93170000D02*
X100960000Y-93170000D01*
X99671000Y-93130000D02*
X100960000Y-93130000D01*
X99691000Y-93090000D02*
X100960000Y-93090000D01*
X99711000Y-93050000D02*
X100960000Y-93050000D01*
X99732000Y-93010000D02*
X100960000Y-93010000D01*
X99754000Y-92970000D02*
X100960000Y-92970000D01*
X99777000Y-92930000D02*
X100960000Y-92930000D01*
X99801000Y-92890000D02*
X100960000Y-92890000D01*
X99825000Y-92850000D02*
X100960000Y-92850000D01*
X99851000Y-92810000D02*
X100960000Y-92810000D01*
X99878000Y-92770000D02*
X100960000Y-92770000D01*
X99906000Y-92730000D02*
X100960000Y-92730000D01*
X99935000Y-92690000D02*
X100960000Y-92690000D01*
X99965000Y-92650000D02*
X100960000Y-92650000D01*
X99997000Y-92610000D02*
X100960000Y-92610000D01*
X100030000Y-92570000D02*
X100960000Y-92570000D01*
X100064000Y-92530000D02*
X100960000Y-92530000D01*
X100099000Y-92490000D02*
X100960000Y-92490000D01*
X100136000Y-92450000D02*
X100960000Y-92450000D01*
X100175000Y-92410000D02*
X100960000Y-92410000D01*
X100215000Y-92370000D02*
X100960000Y-92370000D01*
X100257000Y-92330000D02*
X100960000Y-92330000D01*
X100275000Y-96804775D02*
X100775000Y-96804775D01*
X100301000Y-92290000D02*
X100960000Y-92290000D01*
X100348000Y-92250000D02*
X100960000Y-92250000D01*
X100396000Y-92210000D02*
X100960000Y-92210000D01*
X100447000Y-92170000D02*
X100960000Y-92170000D01*
X100501000Y-92130000D02*
X100960000Y-92130000D01*
X100525000Y-97054775D02*
X100525000Y-96554775D01*
X100557000Y-92090000D02*
X100960000Y-92090000D01*
X100617000Y-92050000D02*
X100960000Y-92050000D01*
X100681000Y-92010000D02*
X100960000Y-92010000D01*
X100749000Y-91970000D02*
X100960000Y-91970000D01*
X100823000Y-91930000D02*
X103177000Y-91930000D01*
X100902000Y-91890000D02*
X103098000Y-91890000D01*
X100989000Y-91850000D02*
X103011000Y-91850000D01*
X101086000Y-91810000D02*
X102914000Y-91810000D01*
X101195000Y-91770000D02*
X102805000Y-91770000D01*
X101323000Y-91730000D02*
X102677000Y-91730000D01*
X101483000Y-91690000D02*
X102517000Y-91690000D01*
X101717000Y-91650000D02*
X102283000Y-91650000D01*
X103040000Y-91970000D02*
X103251000Y-91970000D01*
X103040000Y-92010000D02*
X103319000Y-92010000D01*
X103040000Y-92050000D02*
X103383000Y-92050000D01*
X103040000Y-92090000D02*
X103443000Y-92090000D01*
X103040000Y-92130000D02*
X103499000Y-92130000D01*
X103040000Y-92170000D02*
X103553000Y-92170000D01*
X103040000Y-92210000D02*
X103604000Y-92210000D01*
X103040000Y-92250000D02*
X103652000Y-92250000D01*
X103040000Y-92290000D02*
X103699000Y-92290000D01*
X103040000Y-92330000D02*
X103743000Y-92330000D01*
X103040000Y-92370000D02*
X103785000Y-92370000D01*
X103040000Y-92410000D02*
X103825000Y-92410000D01*
X103040000Y-92450000D02*
X103864000Y-92450000D01*
X103040000Y-92490000D02*
X103901000Y-92490000D01*
X103040000Y-92530000D02*
X103936000Y-92530000D01*
X103040000Y-92570000D02*
X103970000Y-92570000D01*
X103040000Y-92610000D02*
X104003000Y-92610000D01*
X103040000Y-92650000D02*
X104035000Y-92650000D01*
X103040000Y-92690000D02*
X104065000Y-92690000D01*
X103040000Y-92730000D02*
X104094000Y-92730000D01*
X103040000Y-92770000D02*
X104122000Y-92770000D01*
X103040000Y-92810000D02*
X104149000Y-92810000D01*
X103040000Y-92850000D02*
X104175000Y-92850000D01*
X103040000Y-92890000D02*
X104199000Y-92890000D01*
X103040000Y-92930000D02*
X104223000Y-92930000D01*
X103040000Y-92970000D02*
X104246000Y-92970000D01*
X103040000Y-93010000D02*
X104268000Y-93010000D01*
X103040000Y-93050000D02*
X104289000Y-93050000D01*
X103040000Y-93090000D02*
X104309000Y-93090000D01*
X103040000Y-93130000D02*
X104329000Y-93130000D01*
X103040000Y-93170000D02*
X104347000Y-93170000D01*
X103040000Y-93210000D02*
X104365000Y-93210000D01*
X103040000Y-93250000D02*
X104382000Y-93250000D01*
X103040000Y-93290000D02*
X104398000Y-93290000D01*
X103040000Y-93330000D02*
X104413000Y-93330000D01*
X103040000Y-93370000D02*
X104428000Y-93370000D01*
X103040000Y-93410000D02*
X104442000Y-93410000D01*
X103040000Y-93450000D02*
X104455000Y-93450000D01*
X103040000Y-93490000D02*
X104467000Y-93490000D01*
X103040000Y-93530000D02*
X104479000Y-93530000D01*
X103040000Y-93570000D02*
X104490000Y-93570000D01*
X103040000Y-93610000D02*
X104501000Y-93610000D01*
X103040000Y-93650000D02*
X104510000Y-93650000D01*
X103040000Y-93690000D02*
X104519000Y-93690000D01*
X103040000Y-93730000D02*
X104528000Y-93730000D01*
X103040000Y-93770000D02*
X104536000Y-93770000D01*
X103040000Y-93810000D02*
X104543000Y-93810000D01*
X103040000Y-93850000D02*
X104549000Y-93850000D01*
X103040000Y-93890000D02*
X104555000Y-93890000D01*
X103040000Y-93930000D02*
X104560000Y-93930000D01*
X103040000Y-93970000D02*
X104565000Y-93970000D01*
X103040000Y-94010000D02*
X104569000Y-94010000D01*
X104620000Y-94250000D02*
G75*
G02*
X99380000Y-94250000I-2620000J0D01*
G01*
X99380000Y-94250000D02*
G75*
G02*
X104620000Y-94250000I2620000J0D01*
G01*
%TO.C,C4*%
X106590000Y-94210000D02*
X111750000Y-94210000D01*
X106590000Y-94250000D02*
X111750000Y-94250000D01*
X106591000Y-94170000D02*
X111749000Y-94170000D01*
X106593000Y-94130000D02*
X111747000Y-94130000D01*
X106595000Y-94090000D02*
X111745000Y-94090000D01*
X106598000Y-94050000D02*
X111742000Y-94050000D01*
X106601000Y-94010000D02*
X108130000Y-94010000D01*
X106605000Y-93970000D02*
X108130000Y-93970000D01*
X106610000Y-93930000D02*
X108130000Y-93930000D01*
X106615000Y-93890000D02*
X108130000Y-93890000D01*
X106621000Y-93850000D02*
X108130000Y-93850000D01*
X106627000Y-93810000D02*
X108130000Y-93810000D01*
X106634000Y-93770000D02*
X108130000Y-93770000D01*
X106642000Y-93730000D02*
X108130000Y-93730000D01*
X106651000Y-93690000D02*
X108130000Y-93690000D01*
X106660000Y-93650000D02*
X108130000Y-93650000D01*
X106669000Y-93610000D02*
X108130000Y-93610000D01*
X106680000Y-93570000D02*
X108130000Y-93570000D01*
X106691000Y-93530000D02*
X108130000Y-93530000D01*
X106703000Y-93490000D02*
X108130000Y-93490000D01*
X106715000Y-93450000D02*
X108130000Y-93450000D01*
X106728000Y-93410000D02*
X108130000Y-93410000D01*
X106742000Y-93370000D02*
X108130000Y-93370000D01*
X106757000Y-93330000D02*
X108130000Y-93330000D01*
X106772000Y-93290000D02*
X108130000Y-93290000D01*
X106788000Y-93250000D02*
X108130000Y-93250000D01*
X106805000Y-93210000D02*
X108130000Y-93210000D01*
X106823000Y-93170000D02*
X108130000Y-93170000D01*
X106841000Y-93130000D02*
X108130000Y-93130000D01*
X106861000Y-93090000D02*
X108130000Y-93090000D01*
X106881000Y-93050000D02*
X108130000Y-93050000D01*
X106902000Y-93010000D02*
X108130000Y-93010000D01*
X106924000Y-92970000D02*
X108130000Y-92970000D01*
X106947000Y-92930000D02*
X108130000Y-92930000D01*
X106971000Y-92890000D02*
X108130000Y-92890000D01*
X106995000Y-92850000D02*
X108130000Y-92850000D01*
X107021000Y-92810000D02*
X108130000Y-92810000D01*
X107048000Y-92770000D02*
X108130000Y-92770000D01*
X107076000Y-92730000D02*
X108130000Y-92730000D01*
X107105000Y-92690000D02*
X108130000Y-92690000D01*
X107135000Y-92650000D02*
X108130000Y-92650000D01*
X107167000Y-92610000D02*
X108130000Y-92610000D01*
X107200000Y-92570000D02*
X108130000Y-92570000D01*
X107234000Y-92530000D02*
X108130000Y-92530000D01*
X107269000Y-92490000D02*
X108130000Y-92490000D01*
X107306000Y-92450000D02*
X108130000Y-92450000D01*
X107345000Y-92410000D02*
X108130000Y-92410000D01*
X107385000Y-92370000D02*
X108130000Y-92370000D01*
X107427000Y-92330000D02*
X108130000Y-92330000D01*
X107445000Y-96804775D02*
X107945000Y-96804775D01*
X107471000Y-92290000D02*
X108130000Y-92290000D01*
X107518000Y-92250000D02*
X108130000Y-92250000D01*
X107566000Y-92210000D02*
X108130000Y-92210000D01*
X107617000Y-92170000D02*
X108130000Y-92170000D01*
X107671000Y-92130000D02*
X108130000Y-92130000D01*
X107695000Y-97054775D02*
X107695000Y-96554775D01*
X107727000Y-92090000D02*
X108130000Y-92090000D01*
X107787000Y-92050000D02*
X108130000Y-92050000D01*
X107851000Y-92010000D02*
X108130000Y-92010000D01*
X107919000Y-91970000D02*
X108130000Y-91970000D01*
X107993000Y-91930000D02*
X110347000Y-91930000D01*
X108072000Y-91890000D02*
X110268000Y-91890000D01*
X108159000Y-91850000D02*
X110181000Y-91850000D01*
X108256000Y-91810000D02*
X110084000Y-91810000D01*
X108365000Y-91770000D02*
X109975000Y-91770000D01*
X108493000Y-91730000D02*
X109847000Y-91730000D01*
X108653000Y-91690000D02*
X109687000Y-91690000D01*
X108887000Y-91650000D02*
X109453000Y-91650000D01*
X110210000Y-91970000D02*
X110421000Y-91970000D01*
X110210000Y-92010000D02*
X110489000Y-92010000D01*
X110210000Y-92050000D02*
X110553000Y-92050000D01*
X110210000Y-92090000D02*
X110613000Y-92090000D01*
X110210000Y-92130000D02*
X110669000Y-92130000D01*
X110210000Y-92170000D02*
X110723000Y-92170000D01*
X110210000Y-92210000D02*
X110774000Y-92210000D01*
X110210000Y-92250000D02*
X110822000Y-92250000D01*
X110210000Y-92290000D02*
X110869000Y-92290000D01*
X110210000Y-92330000D02*
X110913000Y-92330000D01*
X110210000Y-92370000D02*
X110955000Y-92370000D01*
X110210000Y-92410000D02*
X110995000Y-92410000D01*
X110210000Y-92450000D02*
X111034000Y-92450000D01*
X110210000Y-92490000D02*
X111071000Y-92490000D01*
X110210000Y-92530000D02*
X111106000Y-92530000D01*
X110210000Y-92570000D02*
X111140000Y-92570000D01*
X110210000Y-92610000D02*
X111173000Y-92610000D01*
X110210000Y-92650000D02*
X111205000Y-92650000D01*
X110210000Y-92690000D02*
X111235000Y-92690000D01*
X110210000Y-92730000D02*
X111264000Y-92730000D01*
X110210000Y-92770000D02*
X111292000Y-92770000D01*
X110210000Y-92810000D02*
X111319000Y-92810000D01*
X110210000Y-92850000D02*
X111345000Y-92850000D01*
X110210000Y-92890000D02*
X111369000Y-92890000D01*
X110210000Y-92930000D02*
X111393000Y-92930000D01*
X110210000Y-92970000D02*
X111416000Y-92970000D01*
X110210000Y-93010000D02*
X111438000Y-93010000D01*
X110210000Y-93050000D02*
X111459000Y-93050000D01*
X110210000Y-93090000D02*
X111479000Y-93090000D01*
X110210000Y-93130000D02*
X111499000Y-93130000D01*
X110210000Y-93170000D02*
X111517000Y-93170000D01*
X110210000Y-93210000D02*
X111535000Y-93210000D01*
X110210000Y-93250000D02*
X111552000Y-93250000D01*
X110210000Y-93290000D02*
X111568000Y-93290000D01*
X110210000Y-93330000D02*
X111583000Y-93330000D01*
X110210000Y-93370000D02*
X111598000Y-93370000D01*
X110210000Y-93410000D02*
X111612000Y-93410000D01*
X110210000Y-93450000D02*
X111625000Y-93450000D01*
X110210000Y-93490000D02*
X111637000Y-93490000D01*
X110210000Y-93530000D02*
X111649000Y-93530000D01*
X110210000Y-93570000D02*
X111660000Y-93570000D01*
X110210000Y-93610000D02*
X111671000Y-93610000D01*
X110210000Y-93650000D02*
X111680000Y-93650000D01*
X110210000Y-93690000D02*
X111689000Y-93690000D01*
X110210000Y-93730000D02*
X111698000Y-93730000D01*
X110210000Y-93770000D02*
X111706000Y-93770000D01*
X110210000Y-93810000D02*
X111713000Y-93810000D01*
X110210000Y-93850000D02*
X111719000Y-93850000D01*
X110210000Y-93890000D02*
X111725000Y-93890000D01*
X110210000Y-93930000D02*
X111730000Y-93930000D01*
X110210000Y-93970000D02*
X111735000Y-93970000D01*
X110210000Y-94010000D02*
X111739000Y-94010000D01*
X111790000Y-94250000D02*
G75*
G02*
X106550000Y-94250000I-2620000J0D01*
G01*
X106550000Y-94250000D02*
G75*
G02*
X111790000Y-94250000I2620000J0D01*
G01*
%TO.C,R1*%
X94170000Y-102420000D02*
X94170000Y-104380000D01*
X94170000Y-115580000D02*
X94170000Y-113620000D01*
X92450000Y-104380000D02*
X95890000Y-104380000D01*
X95890000Y-113620000D01*
X92450000Y-113620000D01*
X92450000Y-104380000D01*
%TO.C,J2*%
X148880000Y-100670000D02*
X148880000Y-103330000D01*
X154020000Y-100670000D02*
X148880000Y-100670000D01*
X154020000Y-100670000D02*
X154020000Y-103330000D01*
X154020000Y-103330000D02*
X148880000Y-103330000D01*
X156620000Y-102000000D02*
X156620000Y-103330000D01*
X156620000Y-103330000D02*
X155290000Y-103330000D01*
%TO.C,R4*%
X117170000Y-102420000D02*
X117170000Y-104380000D01*
X117170000Y-115580000D02*
X117170000Y-113620000D01*
X115450000Y-104380000D02*
X118890000Y-104380000D01*
X118890000Y-113620000D01*
X115450000Y-113620000D01*
X115450000Y-104380000D01*
%TO.C,J3*%
X90590000Y-121670000D02*
X91920000Y-121670000D01*
X90590000Y-123000000D02*
X90590000Y-121670000D01*
X93190000Y-121670000D02*
X103410000Y-121670000D01*
X93190000Y-124330000D02*
X93190000Y-121670000D01*
X93190000Y-124330000D02*
X103410000Y-124330000D01*
X103410000Y-124330000D02*
X103410000Y-121670000D01*
%TO.C,R2*%
X102000000Y-102660000D02*
X102000000Y-104620000D01*
X102000000Y-115820000D02*
X102000000Y-113860000D01*
X100280000Y-104620000D02*
X103720000Y-104620000D01*
X103720000Y-113860000D01*
X100280000Y-113860000D01*
X100280000Y-104620000D01*
%TO.C,A1*%
X126360000Y-78870000D02*
X126360000Y-81540000D01*
X126360000Y-84080000D02*
X126360000Y-122310000D01*
X126360000Y-122310000D02*
X131440000Y-122310000D01*
X129030000Y-81540000D02*
X126360000Y-81540000D01*
X129030000Y-84080000D02*
X126360000Y-84080000D01*
X129030000Y-84080000D02*
X129030000Y-81540000D01*
X129030000Y-84080000D02*
X129030000Y-119640000D01*
X129030000Y-119640000D02*
X126360000Y-119640000D01*
X131440000Y-114430000D02*
X139320000Y-114430000D01*
X131440000Y-124850000D02*
X131440000Y-114430000D01*
X139320000Y-114430000D02*
X139320000Y-124850000D01*
X139320000Y-124850000D02*
X131440000Y-124850000D01*
X141730000Y-81540000D02*
X141730000Y-119640000D01*
X141730000Y-81540000D02*
X144400000Y-81540000D01*
X141730000Y-119640000D02*
X144400000Y-119640000D01*
X144400000Y-78870000D02*
X126360000Y-78870000D01*
X144400000Y-122310000D02*
X139320000Y-122310000D01*
X144400000Y-122310000D02*
X144400000Y-78870000D01*
%TO.C,J7*%
X148880000Y-121670000D02*
X148880000Y-124330000D01*
X154020000Y-121670000D02*
X148880000Y-121670000D01*
X154020000Y-121670000D02*
X154020000Y-124330000D01*
X154020000Y-124330000D02*
X148880000Y-124330000D01*
X156620000Y-123000000D02*
X156620000Y-124330000D01*
X156620000Y-124330000D02*
X155290000Y-124330000D01*
%TO.C,J8*%
X109805000Y-79107500D02*
X117245000Y-79107500D01*
X109805000Y-89147500D02*
X109805000Y-79107500D01*
X117845000Y-79107500D02*
X120205000Y-79107500D01*
X120205000Y-79107500D02*
X120205000Y-89147500D01*
X120205000Y-79727500D02*
X109805000Y-79727500D01*
X120205000Y-81227500D02*
X109805000Y-81227500D01*
X120205000Y-86127500D02*
X109805000Y-86127500D01*
X120205000Y-89147500D02*
X109805000Y-89147500D01*
X117545000Y-79107500D02*
X117105000Y-78497500D01*
X117985000Y-78497500D01*
X117545000Y-79107500D01*
G36*
X117545000Y-79107500D02*
G01*
X117105000Y-78497500D01*
X117985000Y-78497500D01*
X117545000Y-79107500D01*
G37*
%TO.C,J4*%
X148880000Y-107670000D02*
X148880000Y-110330000D01*
X154020000Y-107670000D02*
X148880000Y-107670000D01*
X154020000Y-107670000D02*
X154020000Y-110330000D01*
X154020000Y-110330000D02*
X148880000Y-110330000D01*
X156620000Y-109000000D02*
X156620000Y-110330000D01*
X156620000Y-110330000D02*
X155290000Y-110330000D01*
%TD*%
M02*
