%TF.GenerationSoftware,KiCad,Pcbnew,10.0.6*%
%TF.CreationDate,2026-09-06T22:11:13-04:00*%
%TF.ProjectId,ArmPCB_v1,41726d50-4342-45f7-9631-2e6b69636164,rev?*%
%TF.SameCoordinates,Original*%
%TF.FileFunction,Soldermask,Top*%
%TF.FilePolarity,Negative*%
%FSLAX46Y46*%
G04 Gerber Fmt 4.6, Leading zero omitted, Abs format (unit mm)*
G04 Created by KiCad (PCBNEW 10.0.6) date 2026-09-06 22:11:13*
%MOMM*%
%LPD*%
G01*
G04 APERTURE LIST*
G04 Aperture macros list*
%AMRoundRect*
0 Rectangle with rounded corners*
0 $1 Rounding radius*
0 $2 $3 $4 $5 $6 $7 $8 $9 X,Y pos of 4 corners*
0 Add a 4 corners polygon primitive as box body*
4,1,4,$2,$3,$4,$5,$6,$7,$8,$9,$2,$3,0*
0 Add four circle primitives for the rounded corners*
1,1,$1+$1,$2,$3*
1,1,$1+$1,$4,$5*
1,1,$1+$1,$6,$7*
1,1,$1+$1,$8,$9*
0 Add four rect primitives between the rounded corners*
20,1,$1+$1,$2,$3,$4,$5,0*
20,1,$1+$1,$4,$5,$6,$7,0*
20,1,$1+$1,$6,$7,$8,$9,0*
20,1,$1+$1,$8,$9,$2,$3,0*%
G04 Aperture macros list end*
%ADD10R,1.700000X1.700000*%
%ADD11C,1.700000*%
%ADD12C,1.600000*%
%ADD13RoundRect,0.250000X-0.750000X-0.750000X0.750000X-0.750000X0.750000X0.750000X-0.750000X0.750000X0*%
%ADD14C,2.000000*%
%ADD15RoundRect,0.250000X0.550000X-0.550000X0.550000X0.550000X-0.550000X0.550000X-0.550000X-0.550000X0*%
%ADD16R,1.600000X1.600000*%
%ADD17O,1.600000X1.600000*%
%ADD18RoundRect,0.250000X1.050000X1.050000X-1.050000X1.050000X-1.050000X-1.050000X1.050000X-1.050000X0*%
%ADD19C,2.600000*%
G04 APERTURE END LIST*
D10*
%TO.C,J5*%
X108460000Y-123000000D03*
D11*
X111000000Y-123000000D03*
X113540000Y-123000000D03*
X116080000Y-123000000D03*
X118620000Y-123000000D03*
%TD*%
D12*
%TO.C,R3*%
X109170000Y-116620000D03*
X109170000Y-101380000D03*
%TD*%
D13*
%TO.C,C3*%
X150250000Y-85250000D03*
D14*
X155250000Y-85250000D03*
%TD*%
D10*
%TO.C,J1*%
X155290000Y-95000000D03*
D11*
X152750000Y-95000000D03*
X150210000Y-95000000D03*
%TD*%
D10*
%TO.C,J6*%
X155290000Y-116000000D03*
D11*
X152750000Y-116000000D03*
X150210000Y-116000000D03*
%TD*%
D15*
%TO.C,C5*%
X117170000Y-95500000D03*
D12*
X117170000Y-93000000D03*
%TD*%
D15*
%TO.C,C1*%
X94170000Y-95500000D03*
D12*
X94170000Y-93000000D03*
%TD*%
D15*
%TO.C,C2*%
X102000000Y-95500000D03*
D12*
X102000000Y-93000000D03*
%TD*%
D15*
%TO.C,C4*%
X109170000Y-95500000D03*
D12*
X109170000Y-93000000D03*
%TD*%
%TO.C,R1*%
X94170000Y-116620000D03*
X94170000Y-101380000D03*
%TD*%
D10*
%TO.C,J2*%
X155290000Y-102000000D03*
D11*
X152750000Y-102000000D03*
X150210000Y-102000000D03*
%TD*%
D12*
%TO.C,R4*%
X117170000Y-116620000D03*
X117170000Y-101380000D03*
%TD*%
D10*
%TO.C,J3*%
X91920000Y-123000000D03*
D11*
X94460000Y-123000000D03*
X97000000Y-123000000D03*
X99540000Y-123000000D03*
X102080000Y-123000000D03*
%TD*%
D12*
%TO.C,R2*%
X102000000Y-116860000D03*
X102000000Y-101620000D03*
%TD*%
D16*
%TO.C,A1*%
X127760000Y-82810000D03*
D17*
X127760000Y-85350000D03*
X127760000Y-87890000D03*
X127760000Y-90430000D03*
X127760000Y-92970000D03*
X127760000Y-95510000D03*
X127760000Y-98050000D03*
X127760000Y-100590000D03*
X127760000Y-103130000D03*
X127760000Y-105670000D03*
X127760000Y-108210000D03*
X127760000Y-110750000D03*
X127760000Y-113290000D03*
X127760000Y-115830000D03*
X127760000Y-118370000D03*
X143000000Y-118370000D03*
X143000000Y-115830000D03*
X143000000Y-113290000D03*
X143000000Y-110750000D03*
X143000000Y-108210000D03*
X143000000Y-105670000D03*
X143000000Y-103130000D03*
X143000000Y-100590000D03*
X143000000Y-98050000D03*
X143000000Y-95510000D03*
X143000000Y-92970000D03*
X143000000Y-90430000D03*
X143000000Y-87890000D03*
X143000000Y-85350000D03*
X143000000Y-82810000D03*
%TD*%
D10*
%TO.C,J7*%
X155290000Y-123000000D03*
D11*
X152750000Y-123000000D03*
X150210000Y-123000000D03*
%TD*%
D18*
%TO.C,J8*%
X117545000Y-83827500D03*
D19*
X112465000Y-83827500D03*
%TD*%
D10*
%TO.C,J4*%
X155290000Y-109000000D03*
D11*
X152750000Y-109000000D03*
X150210000Y-109000000D03*
%TD*%
M02*
